<svg xmlns="http://www.w3.org/2000/svg" xmlns:xlink="http://www.w3.org/1999/xlink" contentStyleType="text/css" data-diagram-type="CLASS" height="972px" preserveAspectRatio="none" style="width:2562px;height:972px;background:#FFFFFF;" version="1.1" viewBox="0 0 2562 972" width="2562px" zoomAndPan="magnify"><?plantuml 1.2026.6?><defs/><g><g class="title" data-source-line="1"><text fill="#000000" font-family="sans-serif" font-size="14" font-weight="700" lengthAdjust="spacing" textLength="530.0381" x="1012.481" y="23.5352">Application / Entry Layer &#8212; Class Diagram (node, lean-cli, bin/lean-rust)</text></g><!--cluster bin/lean-rust--><g class="cluster" data-qualified-name="bin.lean-rust" data-source-line="6" id="ent0001"><path d="M1001.5,43.4883 L1101.71,43.4883 A3.75,3.75 0 0 1 1104.21,45.9883 L1111.21,65.9766 L1522.5,65.9766 A2.5,2.5 0 0 1 1525,68.4766 L1525,247.5483 A2.5,2.5 0 0 1 1522.5,250.0483 L1001.5,250.0483 A2.5,2.5 0 0 1 999,247.5483 L999,45.9883 A2.5,2.5 0 0 1 1001.5,43.4883" fill="#FFF4F4" style="stroke:#000000;stroke-width:1.5;"/><line style="stroke:#000000;stroke-width:1.5;" x1="999" x2="1111.21" y1="65.9766" y2="65.9766"/><text fill="#000000" font-family="sans-serif" font-size="14" font-weight="700" lengthAdjust="spacing" textLength="99.21" x="1003" y="59.0234">bin/lean-rust</text></g><!--cluster lean-cli--><g class="cluster" data-qualified-name="lean-cli" data-source-line="17" id="ent0003"><path d="M8.5,274.0483 L65.1787,274.0483 A3.75,3.75 0 0 1 67.6787,276.5483 L74.6787,296.5366 L1115.5,296.5366 A2.5,2.5 0 0 1 1118,299.0366 L1118,833.7983 A2.5,2.5 0 0 1 1115.5,836.2983 L8.5,836.2983 A2.5,2.5 0 0 1 6,833.7983 L6,276.5483 A2.5,2.5 0 0 1 8.5,274.0483" fill="#FFEEEE" style="stroke:#000000;stroke-width:1.5;"/><line style="stroke:#000000;stroke-width:1.5;" x1="6" x2="74.6787" y1="296.5366" y2="296.5366"/><text fill="#000000" font-family="sans-serif" font-size="14" font-weight="700" lengthAdjust="spacing" textLength="55.6787" x="10" y="289.5834">lean-cli</text></g><!--cluster node--><g class="cluster" data-qualified-name="node" data-source-line="52" id="ent0008"><path d="M1144.5,389.4583 L1181.1152,389.4583 A3.75,3.75 0 0 1 1183.6152,391.9583 L1190.6152,411.9466 L2544.5,411.9466 A2.5,2.5 0 0 1 2547,414.4466 L2547,858.5283 A2.5,2.5 0 0 1 2544.5,861.0283 L1144.5,861.0283 A2.5,2.5 0 0 1 1142,858.5283 L1142,391.9583 A2.5,2.5 0 0 1 1144.5,389.4583" fill="#FFE8E8" style="stroke:#000000;stroke-width:1.5;"/><line style="stroke:#000000;stroke-width:1.5;" x1="1142" x2="1190.6152" y1="411.9466" y2="411.9466"/><text fill="#000000" font-family="sans-serif" font-size="14" font-weight="700" lengthAdjust="spacing" textLength="35.6152" x="1146" y="404.9934">node</text></g><!--class Main--><g class="entity" data-qualified-name="bin.lean-rust.Main" data-source-line="7" id="ent0002"><rect fill="#F1F1F1" height="155.5508" rx="2.5" ry="2.5" style="stroke:#181818;stroke-width:0.5;" width="494.1729" x="1014.91" y="78.4883"/><ellipse cx="1241.4837" cy="98.7988" fill="#ADD1B2" rx="11" ry="11" style="stroke:#181818;stroke-width:1;"/><path d="M1243.9569,104.9419 Q1243.3758,105.2407 1242.7367,105.3901 Q1242.0975,105.5396 1241.3919,105.5396 Q1238.8851,105.5396 1237.5653,103.8877 Q1236.2454,102.2358 1236.2454,99.1147 Q1236.2454,95.9854 1237.5653,94.3335 Q1238.8851,92.6816 1241.3919,92.6816 Q1242.0975,92.6816 1242.745,92.8311 Q1243.3924,92.9805 1243.9569,93.2793 L1243.9569,96.002 Q1243.326,95.4209 1242.7325,95.1511 Q1242.139,94.8813 1241.5081,94.8813 Q1240.1634,94.8813 1239.4786,95.948 Q1238.7938,97.0146 1238.7938,99.1147 Q1238.7938,101.2065 1239.4786,102.2732 Q1240.1634,103.3398 1241.5081,103.3398 Q1242.139,103.3398 1242.7325,103.0701 Q1243.326,102.8003 1243.9569,102.2192 Z " fill="#000000"/><text fill="#000000" font-family="sans-serif" font-size="12" font-style="italic" lengthAdjust="spacing" textLength="31.043" x="1262.7249" y="95.0898">&#171;bin&#187;</text><text fill="#000000" font-family="sans-serif" font-size="14" lengthAdjust="spacing" textLength="32.5254" x="1261.9837" y="111.1563">Main</text><line style="stroke:#181818;stroke-width:0.5;" x1="1015.91" x2="1508.0829" y1="119.1094" y2="119.1094"/><g data-visibility-modifier="PUBLIC_FIELD"><ellipse cx="1025.91" cy="132.8535" fill="none" rx="3" ry="3" style="stroke:#038048;stroke-width:1;"/></g><text fill="#000000" font-family="sans-serif" font-size="14" lengthAdjust="spacing" text-decoration="underline" textLength="468.1729" x="1034.91" y="136.6445">AGENT_VERSION / DEFAULT_HTTP_ADDR / DEFAULT_METRICS_ADDR</text><line style="stroke:#181818;stroke-width:0.5;" x1="1015.91" x2="1508.0829" y1="143.5977" y2="143.5977"/><g data-visibility-modifier="PUBLIC_METHOD"><ellipse cx="1025.91" cy="157.3418" fill="#84BE84" rx="3" ry="3" style="stroke:#038048;stroke-width:1;"/></g><text fill="#000000" font-family="sans-serif" font-size="14" lengthAdjust="spacing" textLength="237.6104" x="1034.91" y="161.1328">main(): Result&lt;()&gt;  (#[tokio::main])</text><g data-visibility-modifier="PRIVATE_METHOD"><rect fill="#F24D5C" height="6" style="stroke:#C82930;stroke-width:1;" width="6" x="1022.91" y="170.8301"/></g><text fill="#000000" font-family="sans-serif" font-size="14" lengthAdjust="spacing" textLength="156.0986" x="1034.91" y="177.6211">run(cli: Cli): Result&lt;()&gt;</text><g data-visibility-modifier="PRIVATE_METHOD"><rect fill="#F24D5C" height="6" style="stroke:#C82930;stroke-width:1;" width="6" x="1022.91" y="187.3184"/></g><text fill="#000000" font-family="sans-serif" font-size="14" lengthAdjust="spacing" textLength="357.6768" x="1034.91" y="194.1094">build_devnet_config(cli: &amp;Cli): Result&lt;node::Config&gt;</text><g data-visibility-modifier="PRIVATE_METHOD"><rect fill="#F24D5C" height="6" style="stroke:#C82930;stroke-width:1;" width="6" x="1022.91" y="203.8066"/></g><text fill="#000000" font-family="sans-serif" font-size="14" lengthAdjust="spacing" textLength="302.0254" x="1034.91" y="210.5977">init_tracing(cli: &amp;Cli): Result&lt;TracingGuard&gt;</text><g data-visibility-modifier="PRIVATE_METHOD"><rect fill="#F24D5C" height="6" style="stroke:#C82930;stroke-width:1;" width="6" x="1022.91" y="220.2949"/></g><text fill="#000000" font-family="sans-serif" font-size="14" lengthAdjust="spacing" textLength="205.1055" x="1034.91" y="227.0859">shutdown_signal(): Result&lt;()&gt;</text></g><!--class Cli--><g class="entity" data-qualified-name="lean-cli.Cli" data-source-line="18" id="ent0004"><rect fill="#F1F1F1" height="303.9453" rx="2.5" ry="2.5" style="stroke:#181818;stroke-width:0.5;" width="363.0596" x="543.47" y="309.0483"/><ellipse cx="699.6638" cy="329.3588" fill="#ADD1B2" rx="11" ry="11" style="stroke:#181818;stroke-width:1;"/><path d="M702.137,335.5019 Q701.5559,335.8007 700.9168,335.9501 Q700.2776,336.0996 699.5721,336.0996 Q697.0652,336.0996 695.7454,334.4477 Q694.4256,332.7958 694.4256,329.6747 Q694.4256,326.5454 695.7454,324.8935 Q697.0652,323.2416 699.5721,323.2416 Q700.2776,323.2416 700.9251,323.3911 Q701.5725,323.5405 702.137,323.8393 L702.137,326.562 Q701.5061,325.9809 700.9126,325.7111 Q700.3191,325.4413 699.6883,325.4413 Q698.3435,325.4413 697.6587,326.508 Q696.9739,327.5746 696.9739,329.6747 Q696.9739,331.7665 697.6587,332.8332 Q698.3435,333.8998 699.6883,333.8998 Q700.3191,333.8998 700.9126,333.6301 Q701.5061,333.3603 702.137,332.7792 Z " fill="#000000"/><text fill="#000000" font-family="sans-serif" font-size="12" font-style="italic" lengthAdjust="spacing" textLength="46.1719" x="718.1638" y="325.6498">&#171;struct&#187;</text><text fill="#000000" font-family="sans-serif" font-size="14" lengthAdjust="spacing" textLength="17.7803" x="732.3596" y="341.7162">Cli</text><line style="stroke:#181818;stroke-width:0.5;" x1="544.47" x2="905.5296" y1="349.6694" y2="349.6694"/><g data-visibility-modifier="PUBLIC_FIELD"><ellipse cx="554.47" cy="363.4135" fill="none" rx="3" ry="3" style="stroke:#038048;stroke-width:1;"/></g><text fill="#000000" font-family="sans-serif" font-size="14" lengthAdjust="spacing" textLength="183.7568" x="563.47" y="367.2045">data_dir: Option&lt;PathBuf&gt;</text><g data-visibility-modifier="PUBLIC_FIELD"><ellipse cx="554.47" cy="379.9018" fill="none" rx="3" ry="3" style="stroke:#038048;stroke-width:1;"/></g><text fill="#000000" font-family="sans-serif" font-size="14" lengthAdjust="spacing" textLength="259.8408" x="563.47" y="383.6928">devnet_listen_addresses: Vec&lt;String&gt;</text><g data-visibility-modifier="PUBLIC_FIELD"><ellipse cx="554.47" cy="396.3901" fill="none" rx="3" ry="3" style="stroke:#038048;stroke-width:1;"/></g><text fill="#000000" font-family="sans-serif" font-size="14" lengthAdjust="spacing" textLength="253.5244" x="563.47" y="400.1811">devnet_bootnodes: Option&lt;PathBuf&gt;</text><g data-visibility-modifier="PUBLIC_FIELD"><ellipse cx="554.47" cy="412.8784" fill="none" rx="3" ry="3" style="stroke:#038048;stroke-width:1;"/></g><text fill="#000000" font-family="sans-serif" font-size="14" lengthAdjust="spacing" textLength="337.0596" x="563.47" y="416.6694">genesis_config / genesis_state: Option&lt;PathBuf&gt;</text><g data-visibility-modifier="PUBLIC_FIELD"><ellipse cx="554.47" cy="429.3666" fill="none" rx="3" ry="3" style="stroke:#038048;stroke-width:1;"/></g><text fill="#000000" font-family="sans-serif" font-size="14" lengthAdjust="spacing" textLength="284.0264" x="563.47" y="433.1577">validator_registry_path: Option&lt;PathBuf&gt;</text><g data-visibility-modifier="PUBLIC_FIELD"><ellipse cx="554.47" cy="445.8549" fill="none" rx="3" ry="3" style="stroke:#038048;stroke-width:1;"/></g><text fill="#000000" font-family="sans-serif" font-size="14" lengthAdjust="spacing" textLength="171.1035" x="563.47" y="449.6459">node_id: Option&lt;String&gt;</text><g data-visibility-modifier="PUBLIC_FIELD"><ellipse cx="554.47" cy="462.3432" fill="none" rx="3" ry="3" style="stroke:#038048;stroke-width:1;"/></g><text fill="#000000" font-family="sans-serif" font-size="14" lengthAdjust="spacing" textLength="243.0244" x="563.47" y="466.1342">private_key_path: Option&lt;PathBuf&gt;</text><g data-visibility-modifier="PUBLIC_FIELD"><ellipse cx="554.47" cy="478.8315" fill="none" rx="3" ry="3" style="stroke:#038048;stroke-width:1;"/></g><text fill="#000000" font-family="sans-serif" font-size="14" lengthAdjust="spacing" textLength="211.3604" x="563.47" y="482.6225">http_address: Option&lt;IpAddr&gt;</text><g data-visibility-modifier="PUBLIC_FIELD"><ellipse cx="554.47" cy="495.3198" fill="none" rx="3" ry="3" style="stroke:#038048;stroke-width:1;"/></g><text fill="#000000" font-family="sans-serif" font-size="14" lengthAdjust="spacing" textLength="167.1182" x="563.47" y="499.1108">http_port: Option&lt;u16&gt;</text><g data-visibility-modifier="PUBLIC_FIELD"><ellipse cx="554.47" cy="511.808" fill="none" rx="3" ry="3" style="stroke:#038048;stroke-width:1;"/></g><text fill="#000000" font-family="sans-serif" font-size="14" lengthAdjust="spacing" textLength="89.1064" x="563.47" y="515.5991">metrics: bool</text><g data-visibility-modifier="PUBLIC_FIELD"><ellipse cx="554.47" cy="528.2963" fill="none" rx="3" ry="3" style="stroke:#038048;stroke-width:1;"/></g><text fill="#000000" font-family="sans-serif" font-size="14" lengthAdjust="spacing" textLength="212.1123" x="563.47" y="532.0873">metrics_address / metrics_port</text><g data-visibility-modifier="PUBLIC_FIELD"><ellipse cx="554.47" cy="544.7846" fill="none" rx="3" ry="3" style="stroke:#038048;stroke-width:1;"/></g><text fill="#000000" font-family="sans-serif" font-size="14" lengthAdjust="spacing" textLength="132.002" x="563.47" y="548.5756">log_level: Verbosity</text><g data-visibility-modifier="PUBLIC_FIELD"><ellipse cx="554.47" cy="561.2729" fill="none" rx="3" ry="3" style="stroke:#038048;stroke-width:1;"/></g><text fill="#000000" font-family="sans-serif" font-size="14" lengthAdjust="spacing" textLength="214.1768" x="563.47" y="565.0639">command: Option&lt;Command&gt;</text><line style="stroke:#181818;stroke-width:0.5;" x1="544.47" x2="905.5296" y1="572.017" y2="572.017"/><g data-visibility-modifier="PUBLIC_METHOD"><ellipse cx="554.47" cy="585.7612" fill="#84BE84" rx="3" ry="3" style="stroke:#038048;stroke-width:1;"/></g><text fill="#000000" font-family="sans-serif" font-size="14" lengthAdjust="spacing" textLength="195.2275" x="563.47" y="589.5522">listen_address(&amp;self): Option</text><g data-visibility-modifier="PUBLIC_METHOD"><ellipse cx="554.47" cy="602.2495" fill="#84BE84" rx="3" ry="3" style="stroke:#038048;stroke-width:1;"/></g><text fill="#000000" font-family="sans-serif" font-size="14" lengthAdjust="spacing" textLength="177.6045" x="563.47" y="606.0405">verbosity(&amp;self): Verbosity</text></g><!--class Command--><g class="entity" data-qualified-name="lean-cli.Command" data-source-line="35" id="ent0005"><rect fill="#F1F1F1" height="106.0859" rx="2.5" ry="2.5" style="stroke:#181818;stroke-width:0.5;" width="247.8057" x="22.1" y="705.9683"/><ellipse cx="106.9237" cy="726.2788" fill="#EB937F" rx="11" ry="11" style="stroke:#181818;stroke-width:1;"/><path d="M110.538,732.7788 L102.8183,732.7788 L102.8183,720.3858 L110.538,720.3858 L110.538,722.544 L105.267,722.544 L105.267,725.2168 L110.0399,725.2168 L110.0399,727.375 L105.267,727.375 L105.267,730.6206 L110.538,730.6206 Z " fill="#000000"/><text fill="#000000" font-family="sans-serif" font-size="12" font-style="italic" lengthAdjust="spacing" textLength="45.3574" x="139.5741" y="722.5698">&#171;enum&#187;</text><text fill="#000000" font-family="sans-serif" font-size="14" lengthAdjust="spacing" textLength="69.6582" x="127.4237" y="738.6363">Command</text><line style="stroke:#181818;stroke-width:0.5;" x1="23.1" x2="268.9057" y1="746.5894" y2="746.5894"/><text fill="#000000" font-family="sans-serif" font-size="14" lengthAdjust="spacing" textLength="92.1553" x="28.1" y="764.1245">DevnetConfig</text><text fill="#000000" font-family="sans-serif" font-size="14" lengthAdjust="spacing" textLength="235.8057" x="28.1" y="780.6128">GeneratePrivateKey { output_path }</text><text fill="#000000" font-family="sans-serif" font-size="14" lengthAdjust="spacing" textLength="178.6709" x="28.1" y="797.1011">PeerId { private_key_path }</text><line style="stroke:#181818;stroke-width:0.5;" x1="23.1" x2="268.9057" y1="804.0542" y2="804.0542"/></g><!--class Genesis--><g class="entity" data-qualified-name="lean-cli.Genesis" data-source-line="40" id="ent0006"><rect fill="#F1F1F1" height="122.5742" rx="2.5" ry="2.5" style="stroke:#181818;stroke-width:0.5;" width="449.2813" x="305.36" y="697.7183"/><ellipse cx="487.3805" cy="718.0288" fill="#ADD1B2" rx="11" ry="11" style="stroke:#181818;stroke-width:1;"/><path d="M489.8537,724.1719 Q489.2726,724.4707 488.6334,724.6201 Q487.9943,724.7696 487.2887,724.7696 Q484.7819,724.7696 483.4621,723.1177 Q482.1422,721.4658 482.1422,718.3447 Q482.1422,715.2154 483.4621,713.5635 Q484.7819,711.9116 487.2887,711.9116 Q487.9943,711.9116 488.6417,712.0611 Q489.2892,712.2105 489.8537,712.5093 L489.8537,715.232 Q489.2228,714.6509 488.6293,714.3811 Q488.0358,714.1113 487.4049,714.1113 Q486.0602,714.1113 485.3754,715.178 Q484.6906,716.2446 484.6906,718.3447 Q484.6906,720.4365 485.3754,721.5032 Q486.0602,722.5698 487.4049,722.5698 Q488.0358,722.5698 488.6293,722.3001 Q489.2228,722.0303 489.8537,721.4492 Z " fill="#000000"/><text fill="#000000" font-family="sans-serif" font-size="12" font-style="italic" lengthAdjust="spacing" textLength="30.5508" x="530.9752" y="714.3198">&#171;fns&#187;</text><text fill="#000000" font-family="sans-serif" font-size="14" lengthAdjust="spacing" textLength="76.7402" x="507.8805" y="730.3863">genesis fns</text><line style="stroke:#181818;stroke-width:0.5;" x1="306.36" x2="753.6413" y1="738.3394" y2="738.3394"/><line style="stroke:#181818;stroke-width:0.5;" x1="306.36" x2="753.6413" y1="746.3394" y2="746.3394"/><g data-visibility-modifier="PUBLIC_METHOD"><ellipse cx="316.36" cy="760.0835" fill="#84BE84" rx="3" ry="3" style="stroke:#038048;stroke-width:1;"/></g><text fill="#000000" font-family="sans-serif" font-size="14" lengthAdjust="spacing" textLength="318.0898" x="325.36" y="763.8745">load_chain_config(path): Result&lt;ChainConfig&gt;</text><g data-visibility-modifier="PUBLIC_METHOD"><ellipse cx="316.36" cy="776.5718" fill="#84BE84" rx="3" ry="3" style="stroke:#038048;stroke-width:1;"/></g><text fill="#000000" font-family="sans-serif" font-size="14" lengthAdjust="spacing" textLength="215.3252" x="325.36" y="780.3628">load_state(path): Result&lt;State&gt;</text><g data-visibility-modifier="PUBLIC_METHOD"><ellipse cx="316.36" cy="793.0601" fill="#84BE84" rx="3" ry="3" style="stroke:#038048;stroke-width:1;"/></g><text fill="#000000" font-family="sans-serif" font-size="14" lengthAdjust="spacing" textLength="423.2813" x="325.36" y="796.8511">load_or_synthesize_state(state, cfg, validators): Result&lt;State&gt;</text><g data-visibility-modifier="PUBLIC_METHOD"><ellipse cx="316.36" cy="809.5484" fill="#84BE84" rx="3" ry="3" style="stroke:#038048;stroke-width:1;"/></g><text fill="#000000" font-family="sans-serif" font-size="14" lengthAdjust="spacing" textLength="308.2119" x="325.36" y="813.3394">anchor_block_for_state(state): Result&lt;Block&gt;</text></g><!--class Keygen--><g class="entity" data-qualified-name="lean-cli.Keygen" data-source-line="46" id="ent0007"><rect fill="#F1F1F1" height="89.5977" rx="2.5" ry="2.5" style="stroke:#181818;stroke-width:0.5;" width="312.7061" x="789.65" y="714.2083"/><ellipse cx="904.7945" cy="734.5188" fill="#ADD1B2" rx="11" ry="11" style="stroke:#181818;stroke-width:1;"/><path d="M907.2677,740.6619 Q906.6866,740.9607 906.0475,741.1101 Q905.4083,741.2596 904.7027,741.2596 Q902.1959,741.2596 900.8761,739.6077 Q899.5563,737.9558 899.5563,734.8347 Q899.5563,731.7054 900.8761,730.0535 Q902.1959,728.4016 904.7027,728.4016 Q905.4083,728.4016 906.0558,728.5511 Q906.7032,728.7005 907.2677,728.9993 L907.2677,731.722 Q906.6368,731.1409 906.0433,730.8711 Q905.4498,730.6013 904.8189,730.6013 Q903.4742,730.6013 902.7894,731.668 Q902.1046,732.7346 902.1046,734.8347 Q902.1046,736.9265 902.7894,737.9932 Q903.4742,739.0598 904.8189,739.0598 Q905.4498,739.0598 906.0433,738.7901 Q906.6368,738.5203 907.2677,737.9392 Z " fill="#000000"/><text fill="#000000" font-family="sans-serif" font-size="12" font-style="italic" lengthAdjust="spacing" textLength="30.5508" x="946.9776" y="730.8098">&#171;fns&#187;</text><text fill="#000000" font-family="sans-serif" font-size="14" lengthAdjust="spacing" textLength="73.917" x="925.2945" y="746.8763">keygen fns</text><line style="stroke:#181818;stroke-width:0.5;" x1="790.65" x2="1101.3561" y1="754.8294" y2="754.8294"/><line style="stroke:#181818;stroke-width:0.5;" x1="790.65" x2="1101.3561" y1="762.8294" y2="762.8294"/><g data-visibility-modifier="PUBLIC_METHOD"><ellipse cx="800.65" cy="776.5735" fill="#84BE84" rx="3" ry="3" style="stroke:#038048;stroke-width:1;"/></g><text fill="#000000" font-family="sans-serif" font-size="14" lengthAdjust="spacing" textLength="286.7061" x="809.65" y="780.3645">generate_and_write(path): Result&lt;PeerId&gt;</text><g data-visibility-modifier="PUBLIC_METHOD"><ellipse cx="800.65" cy="793.0618" fill="#84BE84" rx="3" ry="3" style="stroke:#038048;stroke-width:1;"/></g><text fill="#000000" font-family="sans-serif" font-size="14" lengthAdjust="spacing" textLength="271.9473" x="809.65" y="796.8528">peer_id_from_file(path): Result&lt;PeerId&gt;</text></g><!--class NodeWireConfig--><g class="entity" data-qualified-name="node.NodeWireConfig" data-source-line="53" id="ent0009"><rect fill="#F1F1F1" height="172.0391" rx="2.5" ry="2.5" style="stroke:#181818;stroke-width:0.5;" width="207.3232" x="1158.34" y="672.9883"/><ellipse cx="1211.5851" cy="693.2988" fill="#ADD1B2" rx="11" ry="11" style="stroke:#181818;stroke-width:1;"/><path d="M1214.0583,699.4419 Q1213.4772,699.7407 1212.838,699.8901 Q1212.1989,700.0396 1211.4933,700.0396 Q1208.9865,700.0396 1207.6667,698.3877 Q1206.3468,696.7358 1206.3468,693.6147 Q1206.3468,690.4854 1207.6667,688.8335 Q1208.9865,687.1816 1211.4933,687.1816 Q1212.1989,687.1816 1212.8463,687.3311 Q1213.4938,687.4805 1214.0583,687.7793 L1214.0583,690.502 Q1213.4274,689.9209 1212.8339,689.6511 Q1212.2404,689.3813 1211.6095,689.3813 Q1210.2648,689.3813 1209.58,690.448 Q1208.8952,691.5146 1208.8952,693.6147 Q1208.8952,695.7065 1209.58,696.7732 Q1210.2648,697.8398 1211.6095,697.8398 Q1212.2404,697.8398 1212.8339,697.5701 Q1213.4274,697.3003 1214.0583,696.7192 Z " fill="#000000"/><text fill="#000000" font-family="sans-serif" font-size="12" font-style="italic" lengthAdjust="spacing" textLength="46.1719" x="1255.1657" y="689.5898">&#171;struct&#187;</text><text fill="#000000" font-family="sans-serif" font-size="14" lengthAdjust="spacing" textLength="92.333" x="1232.0851" y="705.6563">Config (node)</text><line style="stroke:#181818;stroke-width:0.5;" x1="1159.34" x2="1364.6632" y1="713.6094" y2="713.6094"/><g data-visibility-modifier="PUBLIC_FIELD"><ellipse cx="1169.34" cy="727.3535" fill="none" rx="3" ry="3" style="stroke:#038048;stroke-width:1;"/></g><text fill="#000000" font-family="sans-serif" font-size="14" lengthAdjust="spacing" textLength="123.2109" x="1178.34" y="731.1445">node: NodeConfig</text><g data-visibility-modifier="PUBLIC_FIELD"><ellipse cx="1169.34" cy="743.8418" fill="none" rx="3" ry="3" style="stroke:#038048;stroke-width:1;"/></g><text fill="#000000" font-family="sans-serif" font-size="14" lengthAdjust="spacing" textLength="119.9912" x="1178.34" y="747.6328">p2p: HostOptions</text><g data-visibility-modifier="PUBLIC_FIELD"><ellipse cx="1169.34" cy="760.3301" fill="none" rx="3" ry="3" style="stroke:#038048;stroke-width:1;"/></g><text fill="#000000" font-family="sans-serif" font-size="14" lengthAdjust="spacing" textLength="181.3232" x="1178.34" y="764.1211">duties: lean_duties::Config</text><g data-visibility-modifier="PUBLIC_FIELD"><ellipse cx="1169.34" cy="776.8184" fill="none" rx="3" ry="3" style="stroke:#038048;stroke-width:1;"/></g><text fill="#000000" font-family="sans-serif" font-size="14" lengthAdjust="spacing" textLength="152.4551" x="1178.34" y="780.6094">http_addr: SocketAddr</text><g data-visibility-modifier="PUBLIC_FIELD"><ellipse cx="1169.34" cy="793.3066" fill="none" rx="3" ry="3" style="stroke:#038048;stroke-width:1;"/></g><text fill="#000000" font-family="sans-serif" font-size="14" lengthAdjust="spacing" textLength="174.6719" x="1178.34" y="797.0977">metrics_addr: SocketAddr</text><g data-visibility-modifier="PUBLIC_FIELD"><ellipse cx="1169.34" cy="809.7949" fill="none" rx="3" ry="3" style="stroke:#038048;stroke-width:1;"/></g><text fill="#000000" font-family="sans-serif" font-size="14" lengthAdjust="spacing" textLength="133.8818" x="1178.34" y="813.5859">genesis_state: State</text><g data-visibility-modifier="PUBLIC_FIELD"><ellipse cx="1169.34" cy="826.2832" fill="none" rx="3" ry="3" style="stroke:#038048;stroke-width:1;"/></g><text fill="#000000" font-family="sans-serif" font-size="14" lengthAdjust="spacing" textLength="140.0615" x="1178.34" y="830.0742">genesis_block: Block</text><line style="stroke:#181818;stroke-width:0.5;" x1="1159.34" x2="1364.6632" y1="837.0273" y2="837.0273"/></g><!--class NewDevnet--><g class="entity" data-qualified-name="node.NewDevnet" data-source-line="62" id="ent0010"><rect fill="#F1F1F1" height="73.1094" rx="2.5" ry="2.5" style="stroke:#181818;stroke-width:0.5;" width="319.5352" x="1448.23" y="424.4583"/><ellipse cx="1559.2661" cy="444.7688" fill="#ADD1B2" rx="11" ry="11" style="stroke:#181818;stroke-width:1;"/><path d="M1561.7393,450.9119 Q1561.1582,451.2107 1560.5191,451.3601 Q1559.8799,451.5096 1559.1743,451.5096 Q1556.6675,451.5096 1555.3477,449.8577 Q1554.0279,448.2058 1554.0279,445.0847 Q1554.0279,441.9554 1555.3477,440.3035 Q1556.6675,438.6516 1559.1743,438.6516 Q1559.8799,438.6516 1560.5274,438.8011 Q1561.1748,438.9505 1561.7393,439.2493 L1561.7393,441.972 Q1561.1084,441.3909 1560.5149,441.1211 Q1559.9214,440.8513 1559.2905,440.8513 Q1557.9458,440.8513 1557.261,441.918 Q1556.5762,442.9846 1556.5762,445.0847 Q1556.5762,447.1765 1557.261,448.2432 Q1557.9458,449.3098 1559.2905,449.3098 Q1559.9214,449.3098 1560.5149,449.0401 Q1561.1084,448.7703 1561.7393,448.1892 Z " fill="#000000"/><text fill="#000000" font-family="sans-serif" font-size="12" font-style="italic" lengthAdjust="spacing" textLength="24.4336" x="1612.0308" y="441.0598">&#171;fn&#187;</text><text fill="#000000" font-family="sans-serif" font-size="14" lengthAdjust="spacing" textLength="88.9629" x="1579.7661" y="457.1262">new_devnet()</text><line style="stroke:#181818;stroke-width:0.5;" x1="1449.23" x2="1766.7652" y1="465.0794" y2="465.0794"/><line style="stroke:#181818;stroke-width:0.5;" x1="1449.23" x2="1766.7652" y1="473.0794" y2="473.0794"/><g data-visibility-modifier="PUBLIC_METHOD"><ellipse cx="1459.23" cy="486.8235" fill="#84BE84" rx="3" ry="3" style="stroke:#038048;stroke-width:1;"/></g><text fill="#000000" font-family="sans-serif" font-size="14" lengthAdjust="spacing" textLength="293.5352" x="1468.23" y="490.6145">new_devnet(config: Config): Result&lt;Node&gt;</text></g><!--class PublisherAdapter--><g class="entity" data-qualified-name="node.PublisherAdapter" data-source-line="65" id="ent0011"><rect fill="#F1F1F1" height="122.5742" rx="2.5" ry="2.5" style="stroke:#181818;stroke-width:0.5;" width="414.7939" x="1400.6" y="697.7183"/><ellipse cx="1545.515" cy="718.0288" fill="#ADD1B2" rx="11" ry="11" style="stroke:#181818;stroke-width:1;"/><path d="M1547.9882,724.1719 Q1547.4071,724.4707 1546.768,724.6201 Q1546.1288,724.7696 1545.4232,724.7696 Q1542.9164,724.7696 1541.5966,723.1177 Q1540.2768,721.4658 1540.2768,718.3447 Q1540.2768,715.2154 1541.5966,713.5635 Q1542.9164,711.9116 1545.4232,711.9116 Q1546.1288,711.9116 1546.7763,712.0611 Q1547.4237,712.2105 1547.9882,712.5093 L1547.9882,715.232 Q1547.3573,714.6509 1546.7638,714.3811 Q1546.1703,714.1113 1545.5395,714.1113 Q1544.1947,714.1113 1543.5099,715.178 Q1542.8251,716.2446 1542.8251,718.3447 Q1542.8251,720.4365 1543.5099,721.5032 Q1544.1947,722.5698 1545.5395,722.5698 Q1546.1703,722.5698 1546.7638,722.3001 Q1547.3573,722.0303 1547.9882,721.4492 Z " fill="#000000"/><text fill="#000000" font-family="sans-serif" font-size="12" font-style="italic" lengthAdjust="spacing" textLength="46.1719" x="1601.161" y="714.3198">&#171;struct&#187;</text><text fill="#000000" font-family="sans-serif" font-size="14" lengthAdjust="spacing" textLength="116.4639" x="1566.015" y="730.3863">PublisherAdapter</text><line style="stroke:#181818;stroke-width:0.5;" x1="1401.6" x2="1814.3939" y1="738.3394" y2="738.3394"/><g data-visibility-modifier="PRIVATE_FIELD"><rect fill="none" height="6" style="stroke:#C82930;stroke-width:1;" width="6" x="1408.6" y="749.0835"/></g><text fill="#000000" font-family="sans-serif" font-size="14" lengthAdjust="spacing" textLength="152.8857" x="1420.6" y="755.8745">p2p: Arc&lt;P2pService&gt;</text><line style="stroke:#181818;stroke-width:0.5;" x1="1401.6" x2="1814.3939" y1="762.8277" y2="762.8277"/><g data-visibility-modifier="PUBLIC_METHOD"><ellipse cx="1411.6" cy="776.5718" fill="#84BE84" rx="3" ry="3" style="stroke:#038048;stroke-width:1;"/></g><text fill="#000000" font-family="sans-serif" font-size="14" lengthAdjust="spacing" textLength="222.6602" x="1420.6" y="780.3628">new(p2p: Arc&lt;P2pService&gt;): Self</text><g data-visibility-modifier="PUBLIC_METHOD"><ellipse cx="1411.6" cy="793.0601" fill="#84BE84" rx="3" ry="3" style="stroke:#038048;stroke-width:1;"/></g><text fill="#000000" font-family="sans-serif" font-size="14" lengthAdjust="spacing" textLength="358.1895" x="1420.6" y="796.8511">publish_block(SignedBlock): Result&lt;(), PublishError&gt;</text><g data-visibility-modifier="PUBLIC_METHOD"><ellipse cx="1411.6" cy="809.5484" fill="#84BE84" rx="3" ry="3" style="stroke:#038048;stroke-width:1;"/></g><text fill="#000000" font-family="sans-serif" font-size="14" lengthAdjust="spacing" textLength="388.7939" x="1420.6" y="813.3394">publish_attestation(SignedVote): Result&lt;(), PublishError&gt;</text></g><!--class GossipIngestService--><g class="entity" data-qualified-name="node.GossipIngestService" data-source-line="71" id="ent0012"><rect fill="#F1F1F1" height="85.5977" rx="2.5" ry="2.5" style="stroke:#181818;stroke-width:0.5;" width="299.1572" x="1850.42" y="716.2083"/><ellipse cx="1928.3463" cy="736.5188" fill="#ADD1B2" rx="11" ry="11" style="stroke:#181818;stroke-width:1;"/><path d="M1930.8194,742.6619 Q1930.2384,742.9607 1929.5992,743.1101 Q1928.96,743.2596 1928.2545,743.2596 Q1925.7476,743.2596 1924.4278,741.6077 Q1923.108,739.9558 1923.108,736.8347 Q1923.108,733.7054 1924.4278,732.0535 Q1925.7476,730.4016 1928.2545,730.4016 Q1928.96,730.4016 1929.6075,730.5511 Q1930.255,730.7005 1930.8194,730.9993 L1930.8194,733.722 Q1930.1886,733.1409 1929.595,732.8711 Q1929.0015,732.6013 1928.3707,732.6013 Q1927.026,732.6013 1926.3411,733.668 Q1925.6563,734.7346 1925.6563,736.8347 Q1925.6563,738.9265 1926.3411,739.9932 Q1927.026,741.0598 1928.3707,741.0598 Q1929.0015,741.0598 1929.595,740.7901 Q1930.1886,740.5203 1930.8194,739.9392 Z " fill="#000000"/><text fill="#000000" font-family="sans-serif" font-size="12" font-style="italic" lengthAdjust="spacing" textLength="46.1719" x="1993.1627" y="732.8098">&#171;struct&#187;</text><text fill="#000000" font-family="sans-serif" font-size="14" lengthAdjust="spacing" textLength="134.8047" x="1948.8463" y="748.8763">GossipIngestService</text><line style="stroke:#181818;stroke-width:0.5;" x1="1851.42" x2="2148.5772" y1="756.8294" y2="756.8294"/><text fill="#000000" font-family="sans-serif" font-size="14" lengthAdjust="spacing" textLength="287.1572" x="1856.42" y="794.8528">drains p2p block/vote receivers into chain</text><line style="stroke:#181818;stroke-width:1;stroke-dasharray:1,2;" x1="1851.42" x2="1922.4176" y1="773.0735" y2="773.0735"/><text fill="#000000" font-family="sans-serif" font-size="14" lengthAdjust="spacing" textLength="155.1621" x="1922.4176" y="777.8645">impl lean_core::Service</text><line style="stroke:#181818;stroke-width:1;stroke-dasharray:1,2;" x1="2077.5797" x2="2148.5772" y1="773.0735" y2="773.0735"/></g><!--class RpcProviderAdapter--><g class="entity" data-qualified-name="node.RpcProviderAdapter" data-source-line="75" id="ent0013"><rect fill="#F1F1F1" height="102.0859" rx="2.5" ry="2.5" style="stroke:#181818;stroke-width:0.5;" width="346.1816" x="2184.91" y="707.9683"/><ellipse cx="2286.5946" cy="728.2788" fill="#ADD1B2" rx="11" ry="11" style="stroke:#181818;stroke-width:1;"/><path d="M2289.0677,734.4219 Q2288.4867,734.7207 2287.8475,734.8701 Q2287.2083,735.0196 2286.5028,735.0196 Q2283.9959,735.0196 2282.6761,733.3677 Q2281.3563,731.7158 2281.3563,728.5947 Q2281.3563,725.4654 2282.6761,723.8135 Q2283.9959,722.1616 2286.5028,722.1616 Q2287.2083,722.1616 2287.8558,722.3111 Q2288.5033,722.4605 2289.0677,722.7593 L2289.0677,725.482 Q2288.4369,724.9009 2287.8433,724.6311 Q2287.2498,724.3613 2286.619,724.3613 Q2285.2743,724.3613 2284.5894,725.428 Q2283.9046,726.4946 2283.9046,728.5947 Q2283.9046,730.6865 2284.5894,731.7532 Q2285.2743,732.8198 2286.619,732.8198 Q2287.2498,732.8198 2287.8433,732.5501 Q2288.4369,732.2803 2289.0677,731.6992 Z " fill="#000000"/><text fill="#000000" font-family="sans-serif" font-size="12" font-style="italic" lengthAdjust="spacing" textLength="46.1719" x="2351.1649" y="724.5698">&#171;struct&#187;</text><text fill="#000000" font-family="sans-serif" font-size="14" lengthAdjust="spacing" textLength="134.3125" x="2307.0946" y="740.6363">RpcProviderAdapter</text><line style="stroke:#181818;stroke-width:0.5;" x1="2185.91" x2="2530.0916" y1="748.5894" y2="748.5894"/><g data-visibility-modifier="PUBLIC_METHOD"><ellipse cx="2195.91" cy="782.8218" fill="#84BE84" rx="3" ry="3" style="stroke:#038048;stroke-width:1;"/></g><text fill="#000000" font-family="sans-serif" font-size="14" lengthAdjust="spacing" textLength="320.1816" x="2204.91" y="786.6128">get_block_by_root(root): Option&lt;SignedBlock&gt;</text><g data-visibility-modifier="PUBLIC_METHOD"><ellipse cx="2195.91" cy="799.3101" fill="#84BE84" rx="3" ry="3" style="stroke:#038048;stroke-width:1;"/></g><text fill="#000000" font-family="sans-serif" font-size="14" lengthAdjust="spacing" textLength="139.2959" x="2204.91" y="803.1011">local_status(): Status</text><line style="stroke:#181818;stroke-width:1;stroke-dasharray:1,2;" x1="2185.91" x2="2268.5081" y1="764.8335" y2="764.8335"/><text fill="#000000" font-family="sans-serif" font-size="14" lengthAdjust="spacing" textLength="178.9854" x="2268.5081" y="769.6245">impl p2p_rpc::RpcProvider</text><line style="stroke:#181818;stroke-width:1;stroke-dasharray:1,2;" x1="2447.4935" x2="2530.0916" y1="764.8335" y2="764.8335"/></g><!--class lean_duties--><g class="entity" data-qualified-name="lean_duties" data-source-line="93" id="ent0024"><rect fill="#F1F1F1" height="48" rx="2.5" ry="2.5" style="stroke:#181818;stroke-width:0.5;" width="108.9863" x="1554" y="909.0283"/><ellipse cx="1569" cy="925.0283" fill="#ADD1B2" rx="11" ry="11" style="stroke:#181818;stroke-width:1;"/><path d="M1571.4731,931.1713 Q1570.8921,931.4702 1570.2529,931.6196 Q1569.6138,931.769 1568.9082,931.769 Q1566.4014,931.769 1565.0815,930.1171 Q1563.7617,928.4653 1563.7617,925.3442 Q1563.7617,922.2148 1565.0815,920.5629 Q1566.4014,918.9111 1568.9082,918.9111 Q1569.6138,918.9111 1570.2612,919.0605 Q1570.9087,919.2099 1571.4731,919.5088 L1571.4731,922.2314 Q1570.8423,921.6504 1570.2488,921.3806 Q1569.6553,921.1108 1569.0244,921.1108 Q1567.6797,921.1108 1566.9949,922.1775 Q1566.3101,923.2441 1566.3101,925.3442 Q1566.3101,927.436 1566.9949,928.5026 Q1567.6797,929.5693 1569.0244,929.5693 Q1569.6553,929.5693 1570.2488,929.2995 Q1570.8423,929.0297 1571.4731,928.4487 Z " fill="#000000"/><text fill="#000000" font-family="sans-serif" font-size="14" lengthAdjust="spacing" textLength="76.9863" x="1583" y="930.3193">lean_duties</text><line style="stroke:#181818;stroke-width:0.5;" x1="1555" x2="1661.9863" y1="941.0283" y2="941.0283"/><line style="stroke:#181818;stroke-width:0.5;" x1="1555" x2="1661.9863" y1="949.0283" y2="949.0283"/></g><!--class p2p_rpc--><g class="entity" data-qualified-name="p2p_rpc" data-source-line="94" id="ent0026"><rect fill="#F1F1F1" height="48" rx="2.5" ry="2.5" style="stroke:#181818;stroke-width:0.5;" width="87.1865" x="2314.5" y="909.0283"/><ellipse cx="2329.5" cy="925.0283" fill="#ADD1B2" rx="11" ry="11" style="stroke:#181818;stroke-width:1;"/><path d="M2331.9731,931.1713 Q2331.3921,931.4702 2330.7529,931.6196 Q2330.1138,931.769 2329.4082,931.769 Q2326.9014,931.769 2325.5815,930.1171 Q2324.2617,928.4653 2324.2617,925.3442 Q2324.2617,922.2148 2325.5815,920.5629 Q2326.9014,918.9111 2329.4082,918.9111 Q2330.1138,918.9111 2330.7612,919.0605 Q2331.4087,919.2099 2331.9731,919.5088 L2331.9731,922.2314 Q2331.3423,921.6504 2330.7488,921.3806 Q2330.1553,921.1108 2329.5244,921.1108 Q2328.1797,921.1108 2327.4949,922.1775 Q2326.8101,923.2441 2326.8101,925.3442 Q2326.8101,927.436 2327.4949,928.5026 Q2328.1797,929.5693 2329.5244,929.5693 Q2330.1553,929.5693 2330.7488,929.2995 Q2331.3423,929.0297 2331.9731,928.4487 Z " fill="#000000"/><text fill="#000000" font-family="sans-serif" font-size="14" lengthAdjust="spacing" textLength="55.1865" x="2343.5" y="930.3193">p2p_rpc</text><line style="stroke:#181818;stroke-width:0.5;" x1="2315.5" x2="2400.6865" y1="941.0283" y2="941.0283"/><line style="stroke:#181818;stroke-width:0.5;" x1="2315.5" x2="2400.6865" y1="949.0283" y2="949.0283"/></g><!--class lean_core--><g class="entity" data-qualified-name="lean_core" data-source-line="95" id="ent0028"><rect fill="#F1F1F1" height="48" rx="2.5" ry="2.5" style="stroke:#181818;stroke-width:0.5;" width="96.5654" x="1952" y="909.0283"/><ellipse cx="1967" cy="925.0283" fill="#ADD1B2" rx="11" ry="11" style="stroke:#181818;stroke-width:1;"/><path d="M1969.4731,931.1713 Q1968.8921,931.4702 1968.2529,931.6196 Q1967.6138,931.769 1966.9082,931.769 Q1964.4014,931.769 1963.0815,930.1171 Q1961.7617,928.4653 1961.7617,925.3442 Q1961.7617,922.2148 1963.0815,920.5629 Q1964.4014,918.9111 1966.9082,918.9111 Q1967.6138,918.9111 1968.2612,919.0605 Q1968.9087,919.2099 1969.4731,919.5088 L1969.4731,922.2314 Q1968.8423,921.6504 1968.2488,921.3806 Q1967.6553,921.1108 1967.0244,921.1108 Q1965.6797,921.1108 1964.9949,922.1775 Q1964.3101,923.2441 1964.3101,925.3442 Q1964.3101,927.436 1964.9949,928.5026 Q1965.6797,929.5693 1967.0244,929.5693 Q1967.6553,929.5693 1968.2488,929.2995 Q1968.8423,929.0297 1969.4731,928.4487 Z " fill="#000000"/><text fill="#000000" font-family="sans-serif" font-size="14" lengthAdjust="spacing" textLength="64.5654" x="1981" y="930.3193">lean_core</text><line style="stroke:#181818;stroke-width:0.5;" x1="1953" x2="2047.5654" y1="941.0283" y2="941.0283"/><line style="stroke:#181818;stroke-width:0.5;" x1="1953" x2="2047.5654" y1="949.0283" y2="949.0283"/></g><!--link Main to Cli--><g class="link" data-entity-1="ent0002" data-entity-2="ent0004" data-link-type="dependency" data-source-line="83" id="lnk14"><path codeLine="83" d="M1058.63,234.4483 C1058.63,294.4283 1058.63,367.0283 1058.63,367.0283 C1058.63,367.0283 990.02,367.0283 911.95,367.0283" fill="none" id="Main-to-Cli" style="stroke:#181818;stroke-width:1;stroke-dasharray:7,7;"/><polygon fill="#181818" points="906.95,367.0283,915.95,371.0283,911.95,367.0283,915.95,363.0283,906.95,367.0283" style="stroke:#181818;stroke-width:1;stroke-linejoin:miter;stroke-miterlimit:10;"/></g><!--link Main to NewDevnet--><g class="link" data-entity-1="ent0002" data-entity-2="ent0010" data-link-type="dependency" data-source-line="84" id="lnk15"><path codeLine="84" d="M1478.66,234.3483 C1478.66,295.3683 1478.66,372.4283 1478.66,419.2283" fill="none" id="Main-to-NewDevnet" style="stroke:#181818;stroke-width:1;stroke-dasharray:7,7;"/><polygon fill="#181818" points="1478.66,424.2283,1482.66,415.2283,1478.66,419.2283,1474.66,415.2283,1478.66,424.2283" style="stroke:#181818;stroke-width:1;stroke-linejoin:miter;stroke-miterlimit:10;"/></g><!--link Main to NodeWireConfig--><g class="link" data-entity-1="ent0002" data-entity-2="ent0009" data-link-type="dependency" data-source-line="85" id="lnk16"><path codeLine="85" d="M1227.45,234.4483 C1227.45,347.3683 1227.45,550.3883 1227.45,667.6883" fill="none" id="Main-to-NodeWireConfig" style="stroke:#181818;stroke-width:1;stroke-dasharray:7,7;"/><polygon fill="#181818" points="1227.45,672.6883,1231.45,663.6883,1227.45,667.6883,1223.45,663.6883,1227.45,672.6883" style="stroke:#181818;stroke-width:1;stroke-linejoin:miter;stroke-miterlimit:10;"/></g><!--reverse link Cli to Command--><g class="link" data-entity-1="ent0004" data-entity-2="ent0005" data-link-type="composition" data-source-line="86" id="lnk17"><path codeLine="86" d="M530.99,461.0283 C361.23,461.0283 146,461.0283 146,461.0283 C146,461.0283 146,620.0283 146,705.7383" fill="none" id="Cli-backto-Command" style="stroke:#181818;stroke-width:1;"/><polygon fill="#181818" points="542.99,461.0283,536.99,457.0283,530.99,461.0283,536.99,465.0283,542.99,461.0283" style="stroke:#181818;stroke-width:1;stroke-linejoin:miter;stroke-miterlimit:10;"/></g><!--link Cli to Genesis--><g class="link" data-entity-1="ent0004" data-entity-2="ent0006" data-link-type="dependency" data-source-line="87" id="lnk18"><path codeLine="87" d="M649.06,613.0683 C649.06,642.9183 649.06,667.5983 649.06,692.3183" fill="none" id="Cli-to-Genesis" style="stroke:#181818;stroke-width:1;stroke-dasharray:7,7;"/><polygon fill="#181818" points="649.06,697.3183,653.06,688.3183,649.06,692.3183,645.06,688.3183,649.06,697.3183" style="stroke:#181818;stroke-width:1;stroke-linejoin:miter;stroke-miterlimit:10;"/></g><!--link Cli to Keygen--><g class="link" data-entity-1="ent0004" data-entity-2="ent0007" data-link-type="dependency" data-source-line="88" id="lnk19"><path codeLine="88" d="M848.09,613.0683 C848.09,649.9483 848.09,681.5683 848.09,708.9083" fill="none" id="Cli-to-Keygen" style="stroke:#181818;stroke-width:1;stroke-dasharray:7,7;"/><polygon fill="#181818" points="848.09,713.9083,852.09,704.9083,848.09,708.9083,844.09,704.9083,848.09,713.9083" style="stroke:#181818;stroke-width:1;stroke-linejoin:miter;stroke-miterlimit:10;"/></g><!--link NewDevnet to NodeWireConfig--><g class="link" data-entity-1="ent0010" data-entity-2="ent0009" data-link-type="dependency" data-source-line="89" id="lnk20"><path codeLine="89" d="M1448.17,461.0283 C1371.7,461.0283 1296.55,461.0283 1296.55,461.0283 C1296.55,461.0283 1296.55,579.8183 1296.55,667.8183" fill="none" id="NewDevnet-to-NodeWireConfig" style="stroke:#181818;stroke-width:1;stroke-dasharray:7,7;"/><polygon fill="#181818" points="1296.55,672.8183,1300.55,663.8183,1296.55,667.8183,1292.55,663.8183,1296.55,672.8183" style="stroke:#181818;stroke-width:1;stroke-linejoin:miter;stroke-miterlimit:10;"/></g><!--link NewDevnet to PublisherAdapter--><g class="link" data-entity-1="ent0010" data-entity-2="ent0011" data-link-type="dependency" data-source-line="90" id="lnk21"><path codeLine="90" d="M1608,497.8583 C1608,547.6883 1608,632.2383 1608,692.3983" fill="none" id="NewDevnet-to-PublisherAdapter" style="stroke:#181818;stroke-width:1;stroke-dasharray:7,7;"/><polygon fill="#181818" points="1608,697.3983,1612,688.3983,1608,692.3983,1604,688.3983,1608,697.3983" style="stroke:#181818;stroke-width:1;stroke-linejoin:miter;stroke-miterlimit:10;"/></g><!--link NewDevnet to GossipIngestService--><g class="link" data-entity-1="ent0010" data-entity-2="ent0012" data-link-type="dependency" data-source-line="91" id="lnk22"><path codeLine="91" d="M1768.01,473.0283 C1876.4,473.0283 2000,473.0283 2000,473.0283 C2000,473.0283 2000,630.9983 2000,710.8883" fill="none" id="NewDevnet-to-GossipIngestService" style="stroke:#181818;stroke-width:1;stroke-dasharray:7,7;"/><polygon fill="#181818" points="2000,715.8883,2004,706.8883,2000,710.8883,1996,706.8883,2000,715.8883" style="stroke:#181818;stroke-width:1;stroke-linejoin:miter;stroke-miterlimit:10;"/></g><!--link NewDevnet to RpcProviderAdapter--><g class="link" data-entity-1="ent0010" data-entity-2="ent0013" data-link-type="dependency" data-source-line="92" id="lnk23"><path codeLine="92" d="M1767.97,449.0283 C1988.24,449.0283 2358,449.0283 2358,449.0283 C2358,449.0283 2358,614.3283 2358,702.4783" fill="none" id="NewDevnet-to-RpcProviderAdapter" style="stroke:#181818;stroke-width:1;stroke-dasharray:7,7;"/><polygon fill="#181818" points="2358,707.4783,2362,698.4783,2358,702.4783,2354,698.4783,2358,707.4783" style="stroke:#181818;stroke-width:1;stroke-linejoin:miter;stroke-miterlimit:10;"/></g><!--link PublisherAdapter to lean_duties--><g class="link" data-entity-1="ent0011" data-entity-2="ent0024" data-link-type="extension" data-source-line="93" id="lnk25"><path codeLine="93" d="M1608,820.3583 C1608,849.3283 1608,864.4583 1608,887.2583" fill="none" id="PublisherAdapter-to-lean_duties" style="stroke:#181818;stroke-width:1;stroke-dasharray:7,7;"/><polygon fill="none" points="1608,905.2583,1614,887.2583,1602,887.2583,1608,905.2583" style="stroke:#181818;stroke-width:1;stroke-linejoin:miter;stroke-miterlimit:10;"/></g><!--link RpcProviderAdapter to p2p_rpc--><g class="link" data-entity-1="ent0013" data-entity-2="ent0026" data-link-type="extension" data-source-line="94" id="lnk27"><path codeLine="94" d="M2358,810.2783 C2358,841.3583 2358,861.7983 2358,887.2983" fill="none" id="RpcProviderAdapter-to-p2p_rpc" style="stroke:#181818;stroke-width:1;stroke-dasharray:7,7;"/><polygon fill="none" points="2358,905.2983,2364,887.2983,2352,887.2983,2358,905.2983" style="stroke:#181818;stroke-width:1;stroke-linejoin:miter;stroke-miterlimit:10;"/></g><!--link GossipIngestService to lean_core--><g class="link" data-entity-1="ent0012" data-entity-2="ent0028" data-link-type="extension" data-source-line="95" id="lnk29"><path codeLine="95" d="M2000,802.0283 C2000,834.2283 2000,859.3583 2000,887.1683" fill="none" id="GossipIngestService-to-lean_core" style="stroke:#181818;stroke-width:1;stroke-dasharray:7,7;"/><polygon fill="none" points="2000,905.1683,2006,887.1683,1994,887.1683,2000,905.1683" style="stroke:#181818;stroke-width:1;stroke-linejoin:miter;stroke-miterlimit:10;"/></g><?plantuml-src VLRhQYCt5Fu_Jt7mGcetYKENfIo3CNWJ9njsDsjYD_rHYf1dvB68B0sIni5D3Ns8Fc6Vf4VIN6rd0qciSp_VkTboAnXCybpmX5gk95p1L5gzWwzqnpJyzy-_S2seCN33QQRf1lfIfUm21AFoCX7y0fPSNlcNBemTH95vvZAdJbHmoUmkPw2qNQiMmwnfgbwup615XM5HbDFacMOCUXrZFNXtUtlxuVO3l4O0YG_Z6-KIHYEK6uyz6U1yWxJ-88P7PWfXH_t16A3_xW-hdhcAOyVzS-0bqQhiOz0nviGx2e6zBBX8ISgs63T9b5pnB8YVTUGT0d5yxVcb9fVS4gjfWacTKba4rbr1TLggc7LX4GL93Cya5VtZUCvVZSMY97kOt4qV5kHf-ZY___w09RgPtav--xeWdnUB6PdSt3osQD-cYyVxwxadevbzj6_XMvNDGpl5dnQq630YQwmk4jk0cr9BISfr3Dzpro2Z6RNhJyMg3B44It1ZcIGqJJKpXfaOdbWocbkDINSbbqfP1w1vms3693FSbF1ZNXN1OS7UKDfImJ5GfObc6OQYToH7WJUadNl2qvhR2JFNV8kEo3FxeOsrjNcLRYrodq-GqfR8iVLhTl7BhoLlmz1bWeg8XkYGAfkOU4LnDeACK1aHRCk4WrSlbU5s5pY9scoeR5Aw3k_INRSw_JF3n6fGovuXNXMEbTLQfkrdZxzC5XiehMEtk6VTApU-mc4kFE4EIwSHp5d0z0lRmIkemkQ5zTXwYm0pnlHzYgn3x3r_NpTehsm5M4dJ0sgyVVSUZP3IjAnGD2N96kU-6c9dh9clQyTgZs_Gy0rs83ftjBOGjfZPIRj6lt-nKiN_lO1abLr0tOdcj14gapNQM0gLF9ELizQOQ3G-EVQucpo2WldNkNy9puFKin9nWkKXBveV9HImhdeT7pW8PANLXgouU5kukqNS08KDyd7wiRL1UW7KS2C6Fim7_FGxrwpa7EyNlqozMAjnplFtUGoVbR6XHqsvGWhBtU9mMuoKZxYjLazb37D4a5atZyVpTSmzM3A-ObsEhrWClZBTmaZsKjwCVfapUmcZuAlJIhKH37s9TyZ_Rn1tE7JhFYkMEBvhfYSfpIsUv2C8BprO4vsCPk_pETDRdbJTXXxxfxZeS8xpNM8TF8GC-tEyHYprQROlqaKLo5HhLQsBIfDQo_ofKhBKVrBjTZwbtcHufupX-RtCq4OPu76Imo7mJIv2wHEbyG1NiiEXbqWrJhK1J1Ty9bTRZ04qInZ7jMQ0Iwl0RuMEzySycMcrvUaF4AwSessYyoIEMqgLUsmKMuxrSaSqNhc--zEisHQmzK99gF0jLnXt_kV-KpLjFs7imcDgrZmtaV_cCnoEtPrk7dMljKYTaOlSMV_vyh9QslxjnChbMR_3GecQvZrXgyiyRCq3zecw7aWSOnyTjVjm-FSuV6-f9xwMwKKdgXSKJfMg5vrgjPQ3Jb_rely1?></g></svg>