<svg xmlns="http://www.w3.org/2000/svg" xmlns:xlink="http://www.w3.org/1999/xlink" contentStyleType="text/css" data-diagram-type="CLASS" height="1706px" preserveAspectRatio="none" style="width:2337px;height:1706px;background:#FFFFFF;" version="1.1" viewBox="0 0 2337 1706" width="2337px" zoomAndPan="magnify"><?plantuml 1.2026.6?><defs/><g><g class="title" data-source-line="1"><text fill="#000000" font-family="sans-serif" font-size="14" font-weight="700" lengthAdjust="spacing" textLength="395.0693" x="967.5853" y="23.5352">lean-rust &#8212; Global Class / Crate Dependency Diagram</text></g><!--cluster Domain / Data--><g class="cluster" data-qualified-name="Domain . Data" data-source-line="9" id="ent0001"><rect fill="#F4F9F4" height="557" rx="2.5" ry="2.5" style="stroke:#000000;stroke-width:1.5;" width="589.24" x="1734" y="404.4883"/><text fill="#000000" font-family="sans-serif" font-size="14" font-weight="700" lengthAdjust="spacing" textLength="105.9775" x="1975.6312" y="420.0234">Domain / Data</text></g><!--cluster types--><g class="cluster" data-qualified-name="Domain . Data.types" data-source-line="10" id="ent0002"><rect fill="none" height="217" rx="2.5" ry="2.5" style="stroke:#000000;stroke-width:1.5;" width="311.36" x="1979.88" y="455.4883"/><text fill="#000000" font-family="sans-serif" font-size="14" font-weight="700" lengthAdjust="spacing" textLength="39.2314" x="2115.9443" y="471.0234">types</text></g><!--cluster ssz--><g class="cluster" data-qualified-name="Domain . Data.ssz" data-source-line="16" id="ent0007"><rect fill="none" height="217" rx="2.5" ry="2.5" style="stroke:#000000;stroke-width:1.5;" width="357.39" x="1766" y="712.4883"/><text fill="#000000" font-family="sans-serif" font-size="14" font-weight="700" lengthAdjust="spacing" textLength="24.1035" x="1932.6432" y="728.0234">ssz</text></g><!--cluster config--><g class="cluster" data-qualified-name="Domain . Data.config" data-source-line="21" id="ent0011"><rect fill="none" height="134" rx="2.5" ry="2.5" style="stroke:#000000;stroke-width:1.5;" width="124.9" x="1768.88" y="497.4883"/><text fill="#000000" font-family="sans-serif" font-size="14" font-weight="700" lengthAdjust="spacing" textLength="45.1787" x="1808.7406" y="513.0234">config</text></g><!--cluster Protocol / Consensus--><g class="cluster" data-qualified-name="Protocol . Consensus" data-source-line="27" id="ent0013"><rect fill="#F4F6FB" height="383" rx="2.5" ry="2.5" style="stroke:#000000;stroke-width:1.5;" width="772.35" x="1175.53" y="985.4883"/><text fill="#000000" font-family="sans-serif" font-size="14" font-weight="700" lengthAdjust="spacing" textLength="155.0459" x="1484.1821" y="1001.0234">Protocol / Consensus</text></g><!--cluster protocol--><g class="cluster" data-qualified-name="Protocol . Consensus.protocol" data-source-line="28" id="ent0014"><rect fill="none" height="300" rx="2.5" ry="2.5" style="stroke:#000000;stroke-width:1.5;" width="436.05" x="1479.83" y="1036.4883"/><text fill="#000000" font-family="sans-serif" font-size="14" font-weight="700" lengthAdjust="spacing" textLength="60.1426" x="1667.7837" y="1052.0234">protocol</text></g><!--cluster forkchoice--><g class="cluster" data-qualified-name="Protocol . Consensus.forkchoice" data-source-line="36" id="ent0021"><rect fill="none" height="217" rx="2.5" ry="2.5" style="stroke:#000000;stroke-width:1.5;" width="186.87" x="1207.53" y="1036.4883"/><text fill="#000000" font-family="sans-serif" font-size="14" font-weight="700" lengthAdjust="spacing" textLength="75.7627" x="1263.0837" y="1052.0234">forkchoice</text></g><!--cluster Storage--><g class="cluster" data-qualified-name="Storage" data-source-line="43" id="ent0024"><rect fill="#FBF8F4" height="300" rx="2.5" ry="2.5" style="stroke:#000000;stroke-width:1.5;" width="490.8" x="1184.23" y="1392.4883"/><text fill="#000000" font-family="sans-serif" font-size="14" font-weight="700" lengthAdjust="spacing" textLength="54.6465" x="1402.3068" y="1408.0234">Storage</text></g><!--cluster storage--><g class="cluster" data-qualified-name="Storage.storage" data-source-line="44" id="ent0025"><rect fill="none" height="217" rx="2.5" ry="2.5" style="stroke:#000000;stroke-width:1.5;" width="426.8" x="1216.23" y="1443.4883"/><text fill="#000000" font-family="sans-serif" font-size="14" font-weight="700" lengthAdjust="spacing" textLength="54.5645" x="1402.3478" y="1459.0234">storage</text></g><!--cluster Networking--><g class="cluster" data-qualified-name="Networking" data-source-line="53" id="ent0030"><rect fill="#FBF4F9" height="300" rx="2.5" ry="2.5" style="stroke:#000000;stroke-width:1.5;" width="1238.03" x="471.97" y="44.4883"/><text fill="#000000" font-family="sans-serif" font-size="14" font-weight="700" lengthAdjust="spacing" textLength="83.8633" x="1049.0534" y="60.0234">Networking</text></g><!--cluster networking (lean-wire)--><g class="cluster" data-qualified-name="Networking.networking .lean-wire." data-source-line="54" id="ent0031"><rect fill="none" height="217" rx="2.5" ry="2.5" style="stroke:#000000;stroke-width:1.5;" width="489.12" x="1188.88" y="95.4883"/><text fill="#000000" font-family="sans-serif" font-size="14" font-weight="700" lengthAdjust="spacing" textLength="167.6104" x="1349.6348" y="111.0234">networking (lean-wire)</text></g><!--cluster runtime/p2p (lean-p2p-host)--><g class="cluster" data-qualified-name="Networking.runtime.p2p .lean-p2p-host." data-source-line="60" id="ent0036"><rect fill="none" height="217" rx="2.5" ry="2.5" style="stroke:#000000;stroke-width:1.5;" width="231" x="503.97" y="95.4883"/><text fill="#000000" font-family="sans-serif" font-size="14" font-weight="700" lengthAdjust="spacing" textLength="215.0313" x="511.9544" y="111.0234">runtime/p2p (lean-p2p-host)</text></g><!--cluster runtime/p2p-rpc--><g class="cluster" data-qualified-name="Networking.runtime.p2p-rpc" data-source-line="64" id="ent0039"><rect fill="none" height="134" rx="2.5" ry="2.5" style="stroke:#000000;stroke-width:1.5;" width="165.07" x="919.43" y="95.4883"/><text fill="#000000" font-family="sans-serif" font-size="14" font-weight="700" lengthAdjust="spacing" textLength="124.4961" x="939.717" y="111.0234">runtime/p2p-rpc</text></g><!--cluster Runtime / Services--><g class="cluster" data-qualified-name="Runtime . Services" data-source-line="70" id="ent0041"><rect fill="#F4FBFB" height="557" rx="2.5" ry="2.5" style="stroke:#000000;stroke-width:1.5;" width="956" x="475.47" y="404.4883"/><text fill="#000000" font-family="sans-serif" font-size="14" font-weight="700" lengthAdjust="spacing" textLength="136.1924" x="885.3738" y="420.0234">Runtime / Services</text></g><!--cluster runtime/core (lean-core)--><g class="cluster" data-qualified-name="Runtime . Services.runtime.core .lean-core." data-source-line="71" id="ent0042"><rect fill="none" height="217" rx="2.5" ry="2.5" style="stroke:#000000;stroke-width:1.5;" width="196" x="1203.47" y="455.4883"/><text fill="#000000" font-family="sans-serif" font-size="14" font-weight="700" lengthAdjust="spacing" textLength="180.708" x="1211.116" y="471.0234">runtime/core (lean-core)</text></g><!--cluster runtime/chain (lean-chain)--><g class="cluster" data-qualified-name="Runtime . Services.runtime.chain .lean-chain." data-source-line="75" id="ent0045"><rect fill="none" height="217" rx="2.5" ry="2.5" style="stroke:#000000;stroke-width:1.5;" width="212" x="896.47" y="455.4883"/><text fill="#000000" font-family="sans-serif" font-size="14" font-weight="700" lengthAdjust="spacing" textLength="196.0342" x="904.4529" y="471.0234">runtime/chain (lean-chain)</text></g><!--cluster runtime/sync (lean-sync)--><g class="cluster" data-qualified-name="Runtime . Services.runtime.sync .lean-sync." data-source-line="79" id="ent0048"><rect fill="none" height="134" rx="2.5" ry="2.5" style="stroke:#000000;stroke-width:1.5;" width="200" x="519.47" y="712.4883"/><text fill="#000000" font-family="sans-serif" font-size="14" font-weight="700" lengthAdjust="spacing" textLength="184.2354" x="527.3523" y="728.0234">runtime/sync (lean-sync)</text></g><!--cluster runtime/duties (lean-duties)--><g class="cluster" data-qualified-name="Runtime . Services.runtime.duties .lean-duties." data-source-line="82" id="ent0050"><rect fill="none" height="217" rx="2.5" ry="2.5" style="stroke:#000000;stroke-width:1.5;" width="224" x="507.47" y="455.4883"/><text fill="#000000" font-family="sans-serif" font-size="14" font-weight="700" lengthAdjust="spacing" textLength="208.4209" x="515.2596" y="471.0234">runtime/duties (lean-duties)</text></g><!--cluster runtime/api (lean-api)--><g class="cluster" data-qualified-name="Runtime . Services.runtime.api .lean-api." data-source-line="86" id="ent0053"><rect fill="none" height="217" rx="2.5" ry="2.5" style="stroke:#000000;stroke-width:1.5;" width="178" x="913.47" y="712.4883"/><text fill="#000000" font-family="sans-serif" font-size="14" font-weight="700" lengthAdjust="spacing" textLength="162.9072" x="921.0164" y="728.0234">runtime/api (lean-api)</text></g><!--cluster Cross-cutting--><g class="cluster" data-qualified-name="Cross-cutting" data-source-line="93" id="ent0056"><rect fill="#F9F9F4" height="217" rx="2.5" ry="2.5" style="stroke:#000000;stroke-width:1.5;" width="322" x="458.47" y="993.4883"/><text fill="#000000" font-family="sans-serif" font-size="14" font-weight="700" lengthAdjust="spacing" textLength="101.0283" x="568.9558" y="1009.0234">Cross-cutting</text></g><!--cluster observability (lean-observability)--><g class="cluster" data-qualified-name="Cross-cutting.observability .lean-observability." data-source-line="94" id="ent0057"><rect fill="none" height="134" rx="2.5" ry="2.5" style="stroke:#000000;stroke-width:1.5;" width="258" x="490.47" y="1044.4883"/><text fill="#000000" font-family="sans-serif" font-size="14" font-weight="700" lengthAdjust="spacing" textLength="242.1289" x="498.4055" y="1060.0234">observability (lean-observability)</text></g><!--cluster Application / Entry--><g class="cluster" data-qualified-name="Application . Entry" data-source-line="100" id="ent0059"><rect fill="#FFF4F4" height="391" rx="2.5" ry="2.5" style="stroke:#000000;stroke-width:1.5;" width="439.47" x="7" y="317.4883"/><text fill="#000000" font-family="sans-serif" font-size="14" font-weight="700" lengthAdjust="spacing" textLength="136.958" x="158.256" y="333.0234">Application / Entry</text></g><!--cluster node--><g class="cluster" data-qualified-name="Application . Entry.node" data-source-line="101" id="ent0060"><rect fill="none" height="134" rx="2.5" ry="2.5" style="stroke:#000000;stroke-width:1.5;" width="196.47" x="218" y="542.4883"/><text fill="#000000" font-family="sans-serif" font-size="14" font-weight="700" lengthAdjust="spacing" textLength="35.6152" x="298.4274" y="558.0234">node</text></g><!--cluster lean-cli--><g class="cluster" data-qualified-name="Application . Entry.lean-cli" data-source-line="104" id="ent0062"><rect fill="none" height="134" rx="2.5" ry="2.5" style="stroke:#000000;stroke-width:1.5;" width="97.78" x="267.34" y="368.4883"/><text fill="#000000" font-family="sans-serif" font-size="14" font-weight="700" lengthAdjust="spacing" textLength="55.6787" x="288.3906" y="384.0234">lean-cli</text></g><!--cluster bin/lean-rust--><g class="cluster" data-qualified-name="Application . Entry.bin.lean-rust" data-source-line="107" id="ent0064"><rect fill="none" height="134" rx="2.5" ry="2.5" style="stroke:#000000;stroke-width:1.5;" width="115" x="39" y="455.4883"/><text fill="#000000" font-family="sans-serif" font-size="14" font-weight="700" lengthAdjust="spacing" textLength="99.21" x="46.895" y="471.0234">bin/lean-rust</text></g><!--class Bytes32--><g class="entity" data-qualified-name="Domain . Data.types.Bytes32" data-source-line="11" id="ent0003"><rect fill="#F1F1F1" height="48" rx="2.5" ry="2.5" style="stroke:#181818;stroke-width:0.5;" width="85.2451" x="2012.73" y="600.4883"/><ellipse cx="2027.73" cy="616.4883" fill="#ADD1B2" rx="11" ry="11" style="stroke:#181818;stroke-width:1;"/><path d="M2030.2031,622.6313 Q2029.6221,622.9302 2028.9829,623.0796 Q2028.3438,623.229 2027.6382,623.229 Q2025.1314,623.229 2023.8115,621.5771 Q2022.4917,619.9253 2022.4917,616.8042 Q2022.4917,613.6748 2023.8115,612.0229 Q2025.1314,610.3711 2027.6382,610.3711 Q2028.3438,610.3711 2028.9912,610.5205 Q2029.6387,610.6699 2030.2031,610.9688 L2030.2031,613.6914 Q2029.5723,613.1104 2028.9788,612.8406 Q2028.3853,612.5708 2027.7544,612.5708 Q2026.4097,612.5708 2025.7249,613.6375 Q2025.0401,614.7041 2025.0401,616.8042 Q2025.0401,618.896 2025.7249,619.9626 Q2026.4097,621.0293 2027.7544,621.0293 Q2028.3853,621.0293 2028.9788,620.7595 Q2029.5723,620.4897 2030.2031,619.9087 Z " fill="#000000"/><text fill="#000000" font-family="sans-serif" font-size="14" lengthAdjust="spacing" textLength="53.2451" x="2041.73" y="621.7793">Bytes32</text><line style="stroke:#181818;stroke-width:0.5;" x1="2013.73" x2="2096.9751" y1="632.4883" y2="632.4883"/><line style="stroke:#181818;stroke-width:0.5;" x1="2013.73" x2="2096.9751" y1="640.4883" y2="640.4883"/></g><!--class Bytes4000--><g class="entity" data-qualified-name="Domain . Data.types.Bytes4000" data-source-line="12" id="ent0004"><rect fill="#F1F1F1" height="48" rx="2.5" ry="2.5" style="stroke:#181818;stroke-width:0.5;" width="102.9502" x="2003.88" y="517.4883"/><ellipse cx="2018.88" cy="533.4883" fill="#ADD1B2" rx="11" ry="11" style="stroke:#181818;stroke-width:1;"/><path d="M2021.3531,539.6313 Q2020.7721,539.9302 2020.1329,540.0796 Q2019.4938,540.229 2018.7882,540.229 Q2016.2814,540.229 2014.9615,538.5771 Q2013.6417,536.9253 2013.6417,533.8042 Q2013.6417,530.6748 2014.9615,529.0229 Q2016.2814,527.3711 2018.7882,527.3711 Q2019.4938,527.3711 2020.1412,527.5205 Q2020.7887,527.6699 2021.3531,527.9688 L2021.3531,530.6914 Q2020.7223,530.1104 2020.1288,529.8406 Q2019.5353,529.5708 2018.9044,529.5708 Q2017.5597,529.5708 2016.8749,530.6375 Q2016.1901,531.7041 2016.1901,533.8042 Q2016.1901,535.896 2016.8749,536.9626 Q2017.5597,538.0293 2018.9044,538.0293 Q2019.5353,538.0293 2020.1288,537.7595 Q2020.7223,537.4897 2021.3531,536.9087 Z " fill="#000000"/><text fill="#000000" font-family="sans-serif" font-size="14" lengthAdjust="spacing" textLength="70.9502" x="2032.88" y="538.7793">Bytes4000</text><line style="stroke:#181818;stroke-width:0.5;" x1="2004.88" x2="2105.8302" y1="549.4883" y2="549.4883"/><line style="stroke:#181818;stroke-width:0.5;" x1="2004.88" x2="2105.8302" y1="557.4883" y2="557.4883"/></g><!--class BasisPoint--><g class="entity" data-qualified-name="Domain . Data.types.BasisPoint" data-source-line="13" id="ent0005"><rect fill="#F1F1F1" height="48" rx="2.5" ry="2.5" style="stroke:#181818;stroke-width:0.5;" width="100.4141" x="2166.83" y="600.4883"/><ellipse cx="2181.83" cy="616.4883" fill="#ADD1B2" rx="11" ry="11" style="stroke:#181818;stroke-width:1;"/><path d="M2184.3031,622.6313 Q2183.7221,622.9302 2183.0829,623.0796 Q2182.4438,623.229 2181.7382,623.229 Q2179.2314,623.229 2177.9115,621.5771 Q2176.5917,619.9253 2176.5917,616.8042 Q2176.5917,613.6748 2177.9115,612.0229 Q2179.2314,610.3711 2181.7382,610.3711 Q2182.4438,610.3711 2183.0912,610.5205 Q2183.7387,610.6699 2184.3031,610.9688 L2184.3031,613.6914 Q2183.6723,613.1104 2183.0788,612.8406 Q2182.4853,612.5708 2181.8544,612.5708 Q2180.5097,612.5708 2179.8249,613.6375 Q2179.1401,614.7041 2179.1401,616.8042 Q2179.1401,618.896 2179.8249,619.9626 Q2180.5097,621.0293 2181.8544,621.0293 Q2182.4853,621.0293 2183.0788,620.7595 Q2183.6723,620.4897 2184.3031,619.9087 Z " fill="#000000"/><text fill="#000000" font-family="sans-serif" font-size="14" lengthAdjust="spacing" textLength="68.4141" x="2195.83" y="621.7793">BasisPoint</text><line style="stroke:#181818;stroke-width:0.5;" x1="2167.83" x2="2266.2441" y1="632.4883" y2="632.4883"/><line style="stroke:#181818;stroke-width:0.5;" x1="2167.83" x2="2266.2441" y1="640.4883" y2="640.4883"/></g><!--class Bitlist--><g class="entity" data-qualified-name="Domain . Data.types.Bitlist" data-source-line="14" id="ent0006"><rect fill="#F1F1F1" height="48" rx="2.5" ry="2.5" style="stroke:#181818;stroke-width:0.5;" width="69.8027" x="2182.13" y="517.4883"/><ellipse cx="2197.13" cy="533.4883" fill="#ADD1B2" rx="11" ry="11" style="stroke:#181818;stroke-width:1;"/><path d="M2199.6031,539.6313 Q2199.0221,539.9302 2198.3829,540.0796 Q2197.7438,540.229 2197.0382,540.229 Q2194.5314,540.229 2193.2115,538.5771 Q2191.8917,536.9253 2191.8917,533.8042 Q2191.8917,530.6748 2193.2115,529.0229 Q2194.5314,527.3711 2197.0382,527.3711 Q2197.7438,527.3711 2198.3912,527.5205 Q2199.0387,527.6699 2199.6031,527.9688 L2199.6031,530.6914 Q2198.9723,530.1104 2198.3788,529.8406 Q2197.7853,529.5708 2197.1544,529.5708 Q2195.8097,529.5708 2195.1249,530.6375 Q2194.4401,531.7041 2194.4401,533.8042 Q2194.4401,535.896 2195.1249,536.9626 Q2195.8097,538.0293 2197.1544,538.0293 Q2197.7853,538.0293 2198.3788,537.7595 Q2198.9723,537.4897 2199.6031,536.9087 Z " fill="#000000"/><text fill="#000000" font-family="sans-serif" font-size="14" lengthAdjust="spacing" textLength="37.8027" x="2211.13" y="538.7793">Bitlist</text><line style="stroke:#181818;stroke-width:0.5;" x1="2183.13" x2="2250.9327" y1="549.4883" y2="549.4883"/><line style="stroke:#181818;stroke-width:0.5;" x1="2183.13" x2="2250.9327" y1="557.4883" y2="557.4883"/></g><!--class Encode--><g class="entity" data-qualified-name="Domain . Data.ssz.Encode" data-source-line="17" id="ent0008"><rect fill="#F1F1F1" height="48" rx="2.5" ry="2.5" style="stroke:#181818;stroke-width:0.5;" width="80.6582" x="1791" y="857.4883"/><ellipse cx="1806" cy="873.4883" fill="#B4A7E5" rx="11" ry="11" style="stroke:#181818;stroke-width:1;"/><path d="M1802.4277,869.7534 L1802.4277,867.5952 L1809.8071,867.5952 L1809.8071,869.7534 L1807.3418,869.7534 L1807.3418,877.8301 L1809.8071,877.8301 L1809.8071,879.9883 L1802.4277,879.9883 L1802.4277,877.8301 L1804.8931,877.8301 L1804.8931,869.7534 Z " fill="#000000"/><text fill="#000000" font-family="sans-serif" font-size="14" font-style="italic" lengthAdjust="spacing" textLength="48.6582" x="1820" y="878.7793">Encode</text><line style="stroke:#181818;stroke-width:0.5;" x1="1792" x2="1870.6582" y1="889.4883" y2="889.4883"/><line style="stroke:#181818;stroke-width:0.5;" x1="1792" x2="1870.6582" y1="897.4883" y2="897.4883"/></g><!--class Decode--><g class="entity" data-qualified-name="Domain . Data.ssz.Decode" data-source-line="18" id="ent0009"><rect fill="#F1F1F1" height="48" rx="2.5" ry="2.5" style="stroke:#181818;stroke-width:0.5;" width="82.668" x="1790" y="774.4883"/><ellipse cx="1805" cy="790.4883" fill="#B4A7E5" rx="11" ry="11" style="stroke:#181818;stroke-width:1;"/><path d="M1801.4277,786.7534 L1801.4277,784.5952 L1808.8071,784.5952 L1808.8071,786.7534 L1806.3418,786.7534 L1806.3418,794.8301 L1808.8071,794.8301 L1808.8071,796.9883 L1801.4277,796.9883 L1801.4277,794.8301 L1803.8931,794.8301 L1803.8931,786.7534 Z " fill="#000000"/><text fill="#000000" font-family="sans-serif" font-size="14" font-style="italic" lengthAdjust="spacing" textLength="50.668" x="1819" y="795.7793">Decode</text><line style="stroke:#181818;stroke-width:0.5;" x1="1791" x2="1871.668" y1="806.4883" y2="806.4883"/><line style="stroke:#181818;stroke-width:0.5;" x1="1791" x2="1871.668" y1="814.4883" y2="814.4883"/></g><!--class SszError--><g class="entity" data-qualified-name="Domain . Data.ssz.SszError" data-source-line="19" id="ent0010"><rect fill="#F1F1F1" height="48" rx="2.5" ry="2.5" style="stroke:#181818;stroke-width:0.5;" width="88.0752" x="2011.31" y="857.4883"/><ellipse cx="2026.31" cy="873.4883" fill="#ADD1B2" rx="11" ry="11" style="stroke:#181818;stroke-width:1;"/><path d="M2028.7831,879.6313 Q2028.2021,879.9302 2027.5629,880.0796 Q2026.9238,880.229 2026.2182,880.229 Q2023.7114,880.229 2022.3915,878.5771 Q2021.0717,876.9253 2021.0717,873.8042 Q2021.0717,870.6748 2022.3915,869.0229 Q2023.7114,867.3711 2026.2182,867.3711 Q2026.9238,867.3711 2027.5712,867.5205 Q2028.2187,867.6699 2028.7831,867.9688 L2028.7831,870.6914 Q2028.1523,870.1104 2027.5588,869.8406 Q2026.9653,869.5708 2026.3344,869.5708 Q2024.9897,869.5708 2024.3049,870.6375 Q2023.6201,871.7041 2023.6201,873.8042 Q2023.6201,875.896 2024.3049,876.9626 Q2024.9897,878.0293 2026.3344,878.0293 Q2026.9653,878.0293 2027.5588,877.7595 Q2028.1523,877.4897 2028.7831,876.9087 Z " fill="#000000"/><text fill="#000000" font-family="sans-serif" font-size="14" lengthAdjust="spacing" textLength="56.0752" x="2040.31" y="878.7793">SszError</text><line style="stroke:#181818;stroke-width:0.5;" x1="2012.31" x2="2098.3852" y1="889.4883" y2="889.4883"/><line style="stroke:#181818;stroke-width:0.5;" x1="2012.31" x2="2098.3852" y1="897.4883" y2="897.4883"/></g><!--class Config--><g class="entity" data-qualified-name="Domain . Data.config.Config" data-source-line="22" id="ent0012"><rect fill="#F1F1F1" height="48" rx="2.5" ry="2.5" style="stroke:#181818;stroke-width:0.5;" width="76.8984" x="1792.88" y="559.4883"/><ellipse cx="1807.88" cy="575.4883" fill="#ADD1B2" rx="11" ry="11" style="stroke:#181818;stroke-width:1;"/><path d="M1810.3531,581.6313 Q1809.7721,581.9302 1809.1329,582.0796 Q1808.4938,582.229 1807.7882,582.229 Q1805.2814,582.229 1803.9615,580.5771 Q1802.6417,578.9253 1802.6417,575.8042 Q1802.6417,572.6748 1803.9615,571.0229 Q1805.2814,569.3711 1807.7882,569.3711 Q1808.4938,569.3711 1809.1412,569.5205 Q1809.7887,569.6699 1810.3531,569.9688 L1810.3531,572.6914 Q1809.7223,572.1104 1809.1288,571.8406 Q1808.5353,571.5708 1807.9044,571.5708 Q1806.5597,571.5708 1805.8749,572.6375 Q1805.1901,573.7041 1805.1901,575.8042 Q1805.1901,577.896 1805.8749,578.9626 Q1806.5597,580.0293 1807.9044,580.0293 Q1808.5353,580.0293 1809.1288,579.7595 Q1809.7223,579.4897 1810.3531,578.9087 Z " fill="#000000"/><text fill="#000000" font-family="sans-serif" font-size="14" lengthAdjust="spacing" textLength="44.8984" x="1821.88" y="580.7793">Config</text><line style="stroke:#181818;stroke-width:0.5;" x1="1793.88" x2="1868.7784" y1="591.4883" y2="591.4883"/><line style="stroke:#181818;stroke-width:0.5;" x1="1793.88" x2="1868.7784" y1="599.4883" y2="599.4883"/></g><!--class SignedBlock--><g class="entity" data-qualified-name="Protocol . Consensus.protocol.SignedBlock" data-source-line="29" id="ent0015"><rect fill="#F1F1F1" height="48" rx="2.5" ry="2.5" style="stroke:#181818;stroke-width:0.5;" width="113.6689" x="1503.83" y="1264.4883"/><ellipse cx="1518.83" cy="1280.4883" fill="#ADD1B2" rx="11" ry="11" style="stroke:#181818;stroke-width:1;"/><path d="M1521.3031,1286.6313 Q1520.7221,1286.9302 1520.0829,1287.0796 Q1519.4438,1287.229 1518.7382,1287.229 Q1516.2314,1287.229 1514.9115,1285.5771 Q1513.5917,1283.9253 1513.5917,1280.8042 Q1513.5917,1277.6748 1514.9115,1276.0229 Q1516.2314,1274.3711 1518.7382,1274.3711 Q1519.4438,1274.3711 1520.0912,1274.5205 Q1520.7387,1274.6699 1521.3031,1274.9688 L1521.3031,1277.6914 Q1520.6723,1277.1104 1520.0788,1276.8406 Q1519.4853,1276.5708 1518.8544,1276.5708 Q1517.5097,1276.5708 1516.8249,1277.6375 Q1516.1401,1278.7041 1516.1401,1280.8042 Q1516.1401,1282.896 1516.8249,1283.9626 Q1517.5097,1285.0293 1518.8544,1285.0293 Q1519.4853,1285.0293 1520.0788,1284.7595 Q1520.6723,1284.4897 1521.3031,1283.9087 Z " fill="#000000"/><text fill="#000000" font-family="sans-serif" font-size="14" lengthAdjust="spacing" textLength="81.6689" x="1532.83" y="1285.7793">SignedBlock</text><line style="stroke:#181818;stroke-width:0.5;" x1="1504.83" x2="1616.4989" y1="1296.4883" y2="1296.4883"/><line style="stroke:#181818;stroke-width:0.5;" x1="1504.83" x2="1616.4989" y1="1304.4883" y2="1304.4883"/></g><!--class Block--><g class="entity" data-qualified-name="Protocol . Consensus.protocol.Block" data-source-line="30" id="ent0016"><rect fill="#F1F1F1" height="48" rx="2.5" ry="2.5" style="stroke:#181818;stroke-width:0.5;" width="68.0527" x="1526.63" y="1181.4883"/><ellipse cx="1541.63" cy="1197.4883" fill="#ADD1B2" rx="11" ry="11" style="stroke:#181818;stroke-width:1;"/><path d="M1544.1031,1203.6313 Q1543.5221,1203.9302 1542.8829,1204.0796 Q1542.2438,1204.229 1541.5382,1204.229 Q1539.0314,1204.229 1537.7115,1202.5771 Q1536.3917,1200.9253 1536.3917,1197.8042 Q1536.3917,1194.6748 1537.7115,1193.0229 Q1539.0314,1191.3711 1541.5382,1191.3711 Q1542.2438,1191.3711 1542.8912,1191.5205 Q1543.5387,1191.6699 1544.1031,1191.9688 L1544.1031,1194.6914 Q1543.4723,1194.1104 1542.8788,1193.8406 Q1542.2853,1193.5708 1541.6544,1193.5708 Q1540.3097,1193.5708 1539.6249,1194.6375 Q1538.9401,1195.7041 1538.9401,1197.8042 Q1538.9401,1199.896 1539.6249,1200.9626 Q1540.3097,1202.0293 1541.6544,1202.0293 Q1542.2853,1202.0293 1542.8788,1201.7595 Q1543.4723,1201.4897 1544.1031,1200.9087 Z " fill="#000000"/><text fill="#000000" font-family="sans-serif" font-size="14" lengthAdjust="spacing" textLength="36.0527" x="1555.63" y="1202.7793">Block</text><line style="stroke:#181818;stroke-width:0.5;" x1="1527.63" x2="1593.6827" y1="1213.4883" y2="1213.4883"/><line style="stroke:#181818;stroke-width:0.5;" x1="1527.63" x2="1593.6827" y1="1221.4883" y2="1221.4883"/></g><!--class BlockBody--><g class="entity" data-qualified-name="Protocol . Consensus.protocol.BlockBody" data-source-line="31" id="ent0017"><rect fill="#F1F1F1" height="48" rx="2.5" ry="2.5" style="stroke:#181818;stroke-width:0.5;" width="100.8311" x="1510.24" y="1098.4883"/><ellipse cx="1525.24" cy="1114.4883" fill="#ADD1B2" rx="11" ry="11" style="stroke:#181818;stroke-width:1;"/><path d="M1527.7131,1120.6313 Q1527.1321,1120.9302 1526.4929,1121.0796 Q1525.8538,1121.229 1525.1482,1121.229 Q1522.6414,1121.229 1521.3215,1119.5771 Q1520.0017,1117.9253 1520.0017,1114.8042 Q1520.0017,1111.6748 1521.3215,1110.0229 Q1522.6414,1108.3711 1525.1482,1108.3711 Q1525.8538,1108.3711 1526.5012,1108.5205 Q1527.1487,1108.6699 1527.7131,1108.9688 L1527.7131,1111.6914 Q1527.0823,1111.1104 1526.4888,1110.8406 Q1525.8953,1110.5708 1525.2644,1110.5708 Q1523.9197,1110.5708 1523.2349,1111.6375 Q1522.5501,1112.7041 1522.5501,1114.8042 Q1522.5501,1116.896 1523.2349,1117.9626 Q1523.9197,1119.0293 1525.2644,1119.0293 Q1525.8953,1119.0293 1526.4888,1118.7595 Q1527.0823,1118.4897 1527.7131,1117.9087 Z " fill="#000000"/><text fill="#000000" font-family="sans-serif" font-size="14" lengthAdjust="spacing" textLength="68.8311" x="1539.24" y="1119.7793">BlockBody</text><line style="stroke:#181818;stroke-width:0.5;" x1="1511.24" x2="1610.0711" y1="1130.4883" y2="1130.4883"/><line style="stroke:#181818;stroke-width:0.5;" x1="1511.24" x2="1610.0711" y1="1138.4883" y2="1138.4883"/></g><!--class BlockHeader--><g class="entity" data-qualified-name="Protocol . Consensus.protocol.BlockHeader" data-source-line="32" id="ent0018"><rect fill="#F1F1F1" height="48" rx="2.5" ry="2.5" style="stroke:#181818;stroke-width:0.5;" width="116.2119" x="1773.22" y="1264.4883"/><ellipse cx="1788.22" cy="1280.4883" fill="#ADD1B2" rx="11" ry="11" style="stroke:#181818;stroke-width:1;"/><path d="M1790.6931,1286.6313 Q1790.1121,1286.9302 1789.4729,1287.0796 Q1788.8338,1287.229 1788.1282,1287.229 Q1785.6214,1287.229 1784.3015,1285.5771 Q1782.9817,1283.9253 1782.9817,1280.8042 Q1782.9817,1277.6748 1784.3015,1276.0229 Q1785.6214,1274.3711 1788.1282,1274.3711 Q1788.8338,1274.3711 1789.4812,1274.5205 Q1790.1287,1274.6699 1790.6931,1274.9688 L1790.6931,1277.6914 Q1790.0623,1277.1104 1789.4688,1276.8406 Q1788.8753,1276.5708 1788.2444,1276.5708 Q1786.8997,1276.5708 1786.2149,1277.6375 Q1785.5301,1278.7041 1785.5301,1280.8042 Q1785.5301,1282.896 1786.2149,1283.9626 Q1786.8997,1285.0293 1788.2444,1285.0293 Q1788.8753,1285.0293 1789.4688,1284.7595 Q1790.0623,1284.4897 1790.6931,1283.9087 Z " fill="#000000"/><text fill="#000000" font-family="sans-serif" font-size="14" lengthAdjust="spacing" textLength="84.2119" x="1802.22" y="1285.7793">BlockHeader</text><line style="stroke:#181818;stroke-width:0.5;" x1="1774.22" x2="1888.4319" y1="1296.4883" y2="1296.4883"/><line style="stroke:#181818;stroke-width:0.5;" x1="1774.22" x2="1888.4319" y1="1304.4883" y2="1304.4883"/></g><!--class Checkpoint--><g class="entity" data-qualified-name="Protocol . Consensus.protocol.Checkpoint" data-source-line="33" id="ent0019"><rect fill="#F1F1F1" height="48" rx="2.5" ry="2.5" style="stroke:#181818;stroke-width:0.5;" width="108.9111" x="1776.87" y="1181.4883"/><ellipse cx="1791.87" cy="1197.4883" fill="#ADD1B2" rx="11" ry="11" style="stroke:#181818;stroke-width:1;"/><path d="M1794.3431,1203.6313 Q1793.7621,1203.9302 1793.1229,1204.0796 Q1792.4838,1204.229 1791.7782,1204.229 Q1789.2714,1204.229 1787.9515,1202.5771 Q1786.6317,1200.9253 1786.6317,1197.8042 Q1786.6317,1194.6748 1787.9515,1193.0229 Q1789.2714,1191.3711 1791.7782,1191.3711 Q1792.4838,1191.3711 1793.1312,1191.5205 Q1793.7787,1191.6699 1794.3431,1191.9688 L1794.3431,1194.6914 Q1793.7123,1194.1104 1793.1188,1193.8406 Q1792.5253,1193.5708 1791.8944,1193.5708 Q1790.5497,1193.5708 1789.8649,1194.6375 Q1789.1801,1195.7041 1789.1801,1197.8042 Q1789.1801,1199.896 1789.8649,1200.9626 Q1790.5497,1202.0293 1791.8944,1202.0293 Q1792.5253,1202.0293 1793.1188,1201.7595 Q1793.7123,1201.4897 1794.3431,1200.9087 Z " fill="#000000"/><text fill="#000000" font-family="sans-serif" font-size="14" lengthAdjust="spacing" textLength="76.9111" x="1805.87" y="1202.7793">Checkpoint</text><line style="stroke:#181818;stroke-width:0.5;" x1="1777.87" x2="1884.7811" y1="1213.4883" y2="1213.4883"/><line style="stroke:#181818;stroke-width:0.5;" x1="1777.87" x2="1884.7811" y1="1221.4883" y2="1221.4883"/></g><!--class ProtocolError--><g class="entity" data-qualified-name="Protocol . Consensus.protocol.ProtocolError" data-source-line="34" id="ent0020"><rect fill="#F1F1F1" height="48" rx="2.5" ry="2.5" style="stroke:#181818;stroke-width:0.5;" width="121.0928" x="1770.78" y="1098.4883"/><ellipse cx="1785.78" cy="1114.4883" fill="#ADD1B2" rx="11" ry="11" style="stroke:#181818;stroke-width:1;"/><path d="M1788.2531,1120.6313 Q1787.6721,1120.9302 1787.0329,1121.0796 Q1786.3938,1121.229 1785.6882,1121.229 Q1783.1814,1121.229 1781.8615,1119.5771 Q1780.5417,1117.9253 1780.5417,1114.8042 Q1780.5417,1111.6748 1781.8615,1110.0229 Q1783.1814,1108.3711 1785.6882,1108.3711 Q1786.3938,1108.3711 1787.0412,1108.5205 Q1787.6887,1108.6699 1788.2531,1108.9688 L1788.2531,1111.6914 Q1787.6223,1111.1104 1787.0288,1110.8406 Q1786.4353,1110.5708 1785.8044,1110.5708 Q1784.4597,1110.5708 1783.7749,1111.6375 Q1783.0901,1112.7041 1783.0901,1114.8042 Q1783.0901,1116.896 1783.7749,1117.9626 Q1784.4597,1119.0293 1785.8044,1119.0293 Q1786.4353,1119.0293 1787.0288,1118.7595 Q1787.6223,1118.4897 1788.2531,1117.9087 Z " fill="#000000"/><text fill="#000000" font-family="sans-serif" font-size="14" lengthAdjust="spacing" textLength="89.0928" x="1799.78" y="1119.7793">ProtocolError</text><line style="stroke:#181818;stroke-width:0.5;" x1="1771.78" x2="1890.8728" y1="1130.4883" y2="1130.4883"/><line style="stroke:#181818;stroke-width:0.5;" x1="1771.78" x2="1890.8728" y1="1138.4883" y2="1138.4883"/></g><!--class FcStore--><g class="entity" data-qualified-name="Protocol . Consensus.forkchoice.FcStore" data-source-line="37" id="ent0022"><rect fill="#F1F1F1" height="48" rx="2.5" ry="2.5" style="stroke:#181818;stroke-width:0.5;" width="66.9043" x="1267.51" y="1181.4883"/><ellipse cx="1282.51" cy="1197.4883" fill="#ADD1B2" rx="11" ry="11" style="stroke:#181818;stroke-width:1;"/><path d="M1284.9831,1203.6313 Q1284.4021,1203.9302 1283.7629,1204.0796 Q1283.1238,1204.229 1282.4182,1204.229 Q1279.9114,1204.229 1278.5915,1202.5771 Q1277.2717,1200.9253 1277.2717,1197.8042 Q1277.2717,1194.6748 1278.5915,1193.0229 Q1279.9114,1191.3711 1282.4182,1191.3711 Q1283.1238,1191.3711 1283.7712,1191.5205 Q1284.4187,1191.6699 1284.9831,1191.9688 L1284.9831,1194.6914 Q1284.3523,1194.1104 1283.7588,1193.8406 Q1283.1653,1193.5708 1282.5344,1193.5708 Q1281.1897,1193.5708 1280.5049,1194.6375 Q1279.8201,1195.7041 1279.8201,1197.8042 Q1279.8201,1199.896 1280.5049,1200.9626 Q1281.1897,1202.0293 1282.5344,1202.0293 Q1283.1653,1202.0293 1283.7588,1201.7595 Q1284.3523,1201.4897 1284.9831,1200.9087 Z " fill="#000000"/><text fill="#000000" font-family="sans-serif" font-size="14" lengthAdjust="spacing" textLength="34.9043" x="1296.51" y="1202.7793">Store</text><line style="stroke:#181818;stroke-width:0.5;" x1="1268.51" x2="1333.4143" y1="1213.4883" y2="1213.4883"/><line style="stroke:#181818;stroke-width:0.5;" x1="1268.51" x2="1333.4143" y1="1221.4883" y2="1221.4883"/></g><!--class ForkchoiceError--><g class="entity" data-qualified-name="Protocol . Consensus.forkchoice.ForkchoiceError" data-source-line="38" id="ent0023"><rect fill="#F1F1F1" height="48" rx="2.5" ry="2.5" style="stroke:#181818;stroke-width:0.5;" width="138.8662" x="1231.53" y="1098.4883"/><ellipse cx="1246.53" cy="1114.4883" fill="#ADD1B2" rx="11" ry="11" style="stroke:#181818;stroke-width:1;"/><path d="M1249.0031,1120.6313 Q1248.4221,1120.9302 1247.7829,1121.0796 Q1247.1438,1121.229 1246.4382,1121.229 Q1243.9314,1121.229 1242.6115,1119.5771 Q1241.2917,1117.9253 1241.2917,1114.8042 Q1241.2917,1111.6748 1242.6115,1110.0229 Q1243.9314,1108.3711 1246.4382,1108.3711 Q1247.1438,1108.3711 1247.7912,1108.5205 Q1248.4387,1108.6699 1249.0031,1108.9688 L1249.0031,1111.6914 Q1248.3723,1111.1104 1247.7788,1110.8406 Q1247.1853,1110.5708 1246.5544,1110.5708 Q1245.2097,1110.5708 1244.5249,1111.6375 Q1243.8401,1112.7041 1243.8401,1114.8042 Q1243.8401,1116.896 1244.5249,1117.9626 Q1245.2097,1119.0293 1246.5544,1119.0293 Q1247.1853,1119.0293 1247.7788,1118.7595 Q1248.3723,1118.4897 1249.0031,1117.9087 Z " fill="#000000"/><text fill="#000000" font-family="sans-serif" font-size="14" lengthAdjust="spacing" textLength="106.8662" x="1260.53" y="1119.7793">ForkchoiceError</text><line style="stroke:#181818;stroke-width:0.5;" x1="1232.53" x2="1369.3962" y1="1130.4883" y2="1130.4883"/><line style="stroke:#181818;stroke-width:0.5;" x1="1232.53" x2="1369.3962" y1="1138.4883" y2="1138.4883"/></g><!--class StorageStore--><g class="entity" data-qualified-name="Storage.storage.StorageStore" data-source-line="45" id="ent0026"><rect fill="#F1F1F1" height="48" rx="2.5" ry="2.5" style="stroke:#181818;stroke-width:0.5;" width="66.9043" x="1267.51" y="1588.4883"/><ellipse cx="1282.51" cy="1604.4883" fill="#B4A7E5" rx="11" ry="11" style="stroke:#181818;stroke-width:1;"/><path d="M1278.9377,1600.7534 L1278.9377,1598.5952 L1286.3171,1598.5952 L1286.3171,1600.7534 L1283.8518,1600.7534 L1283.8518,1608.8301 L1286.3171,1608.8301 L1286.3171,1610.9883 L1278.9377,1610.9883 L1278.9377,1608.8301 L1281.4031,1608.8301 L1281.4031,1600.7534 Z " fill="#000000"/><text fill="#000000" font-family="sans-serif" font-size="14" font-style="italic" lengthAdjust="spacing" textLength="34.9043" x="1296.51" y="1609.7793">Store</text><line style="stroke:#181818;stroke-width:0.5;" x1="1268.51" x2="1333.4143" y1="1620.4883" y2="1620.4883"/><line style="stroke:#181818;stroke-width:0.5;" x1="1268.51" x2="1333.4143" y1="1628.4883" y2="1628.4883"/></g><!--class MemoryStore--><g class="entity" data-qualified-name="Storage.storage.MemoryStore" data-source-line="46" id="ent0027"><rect fill="#F1F1F1" height="48" rx="2.5" ry="2.5" style="stroke:#181818;stroke-width:0.5;" width="121.4756" x="1240.23" y="1505.4883"/><ellipse cx="1255.23" cy="1521.4883" fill="#ADD1B2" rx="11" ry="11" style="stroke:#181818;stroke-width:1;"/><path d="M1257.7031,1527.6313 Q1257.1221,1527.9302 1256.4829,1528.0796 Q1255.8438,1528.229 1255.1382,1528.229 Q1252.6314,1528.229 1251.3115,1526.5771 Q1249.9917,1524.9253 1249.9917,1521.8042 Q1249.9917,1518.6748 1251.3115,1517.0229 Q1252.6314,1515.3711 1255.1382,1515.3711 Q1255.8438,1515.3711 1256.4912,1515.5205 Q1257.1387,1515.6699 1257.7031,1515.9688 L1257.7031,1518.6914 Q1257.0723,1518.1104 1256.4788,1517.8406 Q1255.8853,1517.5708 1255.2544,1517.5708 Q1253.9097,1517.5708 1253.2249,1518.6375 Q1252.5401,1519.7041 1252.5401,1521.8042 Q1252.5401,1523.896 1253.2249,1524.9626 Q1253.9097,1526.0293 1255.2544,1526.0293 Q1255.8853,1526.0293 1256.4788,1525.7595 Q1257.0723,1525.4897 1257.7031,1524.9087 Z " fill="#000000"/><text fill="#000000" font-family="sans-serif" font-size="14" lengthAdjust="spacing" textLength="89.4756" x="1269.23" y="1526.7793">MemoryStore</text><line style="stroke:#181818;stroke-width:0.5;" x1="1241.23" x2="1360.7056" y1="1537.4883" y2="1537.4883"/><line style="stroke:#181818;stroke-width:0.5;" x1="1241.23" x2="1360.7056" y1="1545.4883" y2="1545.4883"/></g><!--class HeadInfo--><g class="entity" data-qualified-name="Storage.storage.HeadInfo" data-source-line="47" id="ent0028"><rect fill="#F1F1F1" height="48" rx="2.5" ry="2.5" style="stroke:#181818;stroke-width:0.5;" width="93.0996" x="1514.11" y="1588.4883"/><ellipse cx="1529.11" cy="1604.4883" fill="#ADD1B2" rx="11" ry="11" style="stroke:#181818;stroke-width:1;"/><path d="M1531.5831,1610.6313 Q1531.0021,1610.9302 1530.3629,1611.0796 Q1529.7238,1611.229 1529.0182,1611.229 Q1526.5114,1611.229 1525.1915,1609.5771 Q1523.8717,1607.9253 1523.8717,1604.8042 Q1523.8717,1601.6748 1525.1915,1600.0229 Q1526.5114,1598.3711 1529.0182,1598.3711 Q1529.7238,1598.3711 1530.3712,1598.5205 Q1531.0187,1598.6699 1531.5831,1598.9688 L1531.5831,1601.6914 Q1530.9523,1601.1104 1530.3588,1600.8406 Q1529.7653,1600.5708 1529.1344,1600.5708 Q1527.7897,1600.5708 1527.1049,1601.6375 Q1526.4201,1602.7041 1526.4201,1604.8042 Q1526.4201,1606.896 1527.1049,1607.9626 Q1527.7897,1609.0293 1529.1344,1609.0293 Q1529.7653,1609.0293 1530.3588,1608.7595 Q1530.9523,1608.4897 1531.5831,1607.9087 Z " fill="#000000"/><text fill="#000000" font-family="sans-serif" font-size="14" lengthAdjust="spacing" textLength="61.0996" x="1543.11" y="1609.7793">HeadInfo</text><line style="stroke:#181818;stroke-width:0.5;" x1="1515.11" x2="1606.2096" y1="1620.4883" y2="1620.4883"/><line style="stroke:#181818;stroke-width:0.5;" x1="1515.11" x2="1606.2096" y1="1628.4883" y2="1628.4883"/></g><!--class StorageError--><g class="entity" data-qualified-name="Storage.storage.StorageError" data-source-line="48" id="ent0029"><rect fill="#F1F1F1" height="48" rx="2.5" ry="2.5" style="stroke:#181818;stroke-width:0.5;" width="116.7383" x="1502.29" y="1505.4883"/><ellipse cx="1517.29" cy="1521.4883" fill="#ADD1B2" rx="11" ry="11" style="stroke:#181818;stroke-width:1;"/><path d="M1519.7631,1527.6313 Q1519.1821,1527.9302 1518.5429,1528.0796 Q1517.9038,1528.229 1517.1982,1528.229 Q1514.6914,1528.229 1513.3715,1526.5771 Q1512.0517,1524.9253 1512.0517,1521.8042 Q1512.0517,1518.6748 1513.3715,1517.0229 Q1514.6914,1515.3711 1517.1982,1515.3711 Q1517.9038,1515.3711 1518.5512,1515.5205 Q1519.1987,1515.6699 1519.7631,1515.9688 L1519.7631,1518.6914 Q1519.1323,1518.1104 1518.5388,1517.8406 Q1517.9453,1517.5708 1517.3144,1517.5708 Q1515.9697,1517.5708 1515.2849,1518.6375 Q1514.6001,1519.7041 1514.6001,1521.8042 Q1514.6001,1523.896 1515.2849,1524.9626 Q1515.9697,1526.0293 1517.3144,1526.0293 Q1517.9453,1526.0293 1518.5388,1525.7595 Q1519.1323,1525.4897 1519.7631,1524.9087 Z " fill="#000000"/><text fill="#000000" font-family="sans-serif" font-size="14" lengthAdjust="spacing" textLength="84.7383" x="1531.29" y="1526.7793">StorageError</text><line style="stroke:#181818;stroke-width:0.5;" x1="1503.29" x2="1618.0283" y1="1537.4883" y2="1537.4883"/><line style="stroke:#181818;stroke-width:0.5;" x1="1503.29" x2="1618.0283" y1="1545.4883" y2="1545.4883"/></g><!--class Status--><g class="entity" data-qualified-name="Networking.networking .lean-wire..Status" data-source-line="55" id="ent0032"><rect fill="#F1F1F1" height="48" rx="2.5" ry="2.5" style="stroke:#181818;stroke-width:0.5;" width="73.5693" x="1264.18" y="221.4883"/><ellipse cx="1279.18" cy="237.4883" fill="#ADD1B2" rx="11" ry="11" style="stroke:#181818;stroke-width:1;"/><path d="M1281.6531,243.6313 Q1281.0721,243.9302 1280.4329,244.0796 Q1279.7938,244.229 1279.0882,244.229 Q1276.5814,244.229 1275.2615,242.5771 Q1273.9417,240.9253 1273.9417,237.8042 Q1273.9417,234.6748 1275.2615,233.0229 Q1276.5814,231.3711 1279.0882,231.3711 Q1279.7938,231.3711 1280.4412,231.5205 Q1281.0887,231.6699 1281.6531,231.9688 L1281.6531,234.6914 Q1281.0223,234.1104 1280.4288,233.8406 Q1279.8353,233.5708 1279.2044,233.5708 Q1277.8597,233.5708 1277.1749,234.6375 Q1276.4901,235.7041 1276.4901,237.8042 Q1276.4901,239.896 1277.1749,240.9626 Q1277.8597,242.0293 1279.2044,242.0293 Q1279.8353,242.0293 1280.4288,241.7595 Q1281.0223,241.4897 1281.6531,240.9087 Z " fill="#000000"/><text fill="#000000" font-family="sans-serif" font-size="14" lengthAdjust="spacing" textLength="41.5693" x="1293.18" y="242.7793">Status</text><line style="stroke:#181818;stroke-width:0.5;" x1="1265.18" x2="1336.7493" y1="253.4883" y2="253.4883"/><line style="stroke:#181818;stroke-width:0.5;" x1="1265.18" x2="1336.7493" y1="261.4883" y2="261.4883"/></g><!--class BlocksByRootRequest--><g class="entity" data-qualified-name="Networking.networking .lean-wire..BlocksByRootRequest" data-source-line="56" id="ent0033"><rect fill="#F1F1F1" height="48" rx="2.5" ry="2.5" style="stroke:#181818;stroke-width:0.5;" width="176.1699" x="1212.88" y="138.4883"/><ellipse cx="1227.88" cy="154.4883" fill="#ADD1B2" rx="11" ry="11" style="stroke:#181818;stroke-width:1;"/><path d="M1230.3531,160.6313 Q1229.7721,160.9302 1229.1329,161.0796 Q1228.4938,161.229 1227.7882,161.229 Q1225.2814,161.229 1223.9615,159.5771 Q1222.6417,157.9253 1222.6417,154.8042 Q1222.6417,151.6748 1223.9615,150.0229 Q1225.2814,148.3711 1227.7882,148.3711 Q1228.4938,148.3711 1229.1412,148.5205 Q1229.7887,148.6699 1230.3531,148.9688 L1230.3531,151.6914 Q1229.7223,151.1104 1229.1288,150.8406 Q1228.5353,150.5708 1227.9044,150.5708 Q1226.5597,150.5708 1225.8749,151.6375 Q1225.1901,152.7041 1225.1901,154.8042 Q1225.1901,156.896 1225.8749,157.9626 Q1226.5597,159.0293 1227.9044,159.0293 Q1228.5353,159.0293 1229.1288,158.7595 Q1229.7223,158.4897 1230.3531,157.9087 Z " fill="#000000"/><text fill="#000000" font-family="sans-serif" font-size="14" lengthAdjust="spacing" textLength="144.1699" x="1241.88" y="159.7793">BlocksByRootRequest</text><line style="stroke:#181818;stroke-width:0.5;" x1="1213.88" x2="1388.0499" y1="170.4883" y2="170.4883"/><line style="stroke:#181818;stroke-width:0.5;" x1="1213.88" x2="1388.0499" y1="178.4883" y2="178.4883"/></g><!--class BlocksByRootResponse--><g class="entity" data-qualified-name="Networking.networking .lean-wire..BlocksByRootResponse" data-source-line="57" id="ent0034"><rect fill="#F1F1F1" height="48" rx="2.5" ry="2.5" style="stroke:#181818;stroke-width:0.5;" width="186.6699" x="1467.33" y="221.4883"/><ellipse cx="1482.33" cy="237.4883" fill="#ADD1B2" rx="11" ry="11" style="stroke:#181818;stroke-width:1;"/><path d="M1484.8031,243.6313 Q1484.2221,243.9302 1483.5829,244.0796 Q1482.9438,244.229 1482.2382,244.229 Q1479.7314,244.229 1478.4115,242.5771 Q1477.0917,240.9253 1477.0917,237.8042 Q1477.0917,234.6748 1478.4115,233.0229 Q1479.7314,231.3711 1482.2382,231.3711 Q1482.9438,231.3711 1483.5912,231.5205 Q1484.2387,231.6699 1484.8031,231.9688 L1484.8031,234.6914 Q1484.1723,234.1104 1483.5788,233.8406 Q1482.9853,233.5708 1482.3544,233.5708 Q1481.0097,233.5708 1480.3249,234.6375 Q1479.6401,235.7041 1479.6401,237.8042 Q1479.6401,239.896 1480.3249,240.9626 Q1481.0097,242.0293 1482.3544,242.0293 Q1482.9853,242.0293 1483.5788,241.7595 Q1484.1723,241.4897 1484.8031,240.9087 Z " fill="#000000"/><text fill="#000000" font-family="sans-serif" font-size="14" lengthAdjust="spacing" textLength="154.6699" x="1496.33" y="242.7793">BlocksByRootResponse</text><line style="stroke:#181818;stroke-width:0.5;" x1="1468.33" x2="1652.9999" y1="253.4883" y2="253.4883"/><line style="stroke:#181818;stroke-width:0.5;" x1="1468.33" x2="1652.9999" y1="261.4883" y2="261.4883"/></g><!--class NetworkingError--><g class="entity" data-qualified-name="Networking.networking .lean-wire..NetworkingError" data-source-line="58" id="ent0035"><rect fill="#F1F1F1" height="48" rx="2.5" ry="2.5" style="stroke:#181818;stroke-width:0.5;" width="143.5146" x="1488.9" y="138.4883"/><ellipse cx="1503.9" cy="154.4883" fill="#ADD1B2" rx="11" ry="11" style="stroke:#181818;stroke-width:1;"/><path d="M1506.3731,160.6313 Q1505.7921,160.9302 1505.1529,161.0796 Q1504.5138,161.229 1503.8082,161.229 Q1501.3014,161.229 1499.9815,159.5771 Q1498.6617,157.9253 1498.6617,154.8042 Q1498.6617,151.6748 1499.9815,150.0229 Q1501.3014,148.3711 1503.8082,148.3711 Q1504.5138,148.3711 1505.1612,148.5205 Q1505.8087,148.6699 1506.3731,148.9688 L1506.3731,151.6914 Q1505.7423,151.1104 1505.1488,150.8406 Q1504.5553,150.5708 1503.9244,150.5708 Q1502.5797,150.5708 1501.8949,151.6375 Q1501.2101,152.7041 1501.2101,154.8042 Q1501.2101,156.896 1501.8949,157.9626 Q1502.5797,159.0293 1503.9244,159.0293 Q1504.5553,159.0293 1505.1488,158.7595 Q1505.7423,158.4897 1506.3731,157.9087 Z " fill="#000000"/><text fill="#000000" font-family="sans-serif" font-size="14" lengthAdjust="spacing" textLength="111.5146" x="1517.9" y="159.7793">NetworkingError</text><line style="stroke:#181818;stroke-width:0.5;" x1="1489.9" x2="1631.4146" y1="170.4883" y2="170.4883"/><line style="stroke:#181818;stroke-width:0.5;" x1="1489.9" x2="1631.4146" y1="178.4883" y2="178.4883"/></g><!--class DevnetHost--><g class="entity" data-qualified-name="Networking.runtime.p2p .lean-p2p-host..DevnetHost" data-source-line="61" id="ent0037"><rect fill="#F1F1F1" height="48" rx="2.5" ry="2.5" style="stroke:#181818;stroke-width:0.5;" width="110.5176" x="563.71" y="240.4883"/><ellipse cx="578.71" cy="256.4883" fill="#ADD1B2" rx="11" ry="11" style="stroke:#181818;stroke-width:1;"/><path d="M581.1831,262.6313 Q580.6021,262.9302 579.9629,263.0796 Q579.3238,263.229 578.6182,263.229 Q576.1114,263.229 574.7915,261.5771 Q573.4717,259.9253 573.4717,256.8042 Q573.4717,253.6748 574.7915,252.0229 Q576.1114,250.3711 578.6182,250.3711 Q579.3238,250.3711 579.9712,250.5205 Q580.6187,250.6699 581.1831,250.9688 L581.1831,253.6914 Q580.5523,253.1104 579.9588,252.8406 Q579.3653,252.5708 578.7344,252.5708 Q577.3897,252.5708 576.7049,253.6375 Q576.0201,254.7041 576.0201,256.8042 Q576.0201,258.896 576.7049,259.9626 Q577.3897,261.0293 578.7344,261.0293 Q579.3653,261.0293 579.9588,260.7595 Q580.5523,260.4897 581.1831,259.9087 Z " fill="#000000"/><text fill="#000000" font-family="sans-serif" font-size="14" lengthAdjust="spacing" textLength="78.5176" x="592.71" y="261.7793">DevnetHost</text><line style="stroke:#181818;stroke-width:0.5;" x1="564.71" x2="673.2276" y1="272.4883" y2="272.4883"/><line style="stroke:#181818;stroke-width:0.5;" x1="564.71" x2="673.2276" y1="280.4883" y2="280.4883"/></g><!--class Topic--><g class="entity" data-qualified-name="Networking.runtime.p2p .lean-p2p-host..Topic" data-source-line="62" id="ent0038"><rect fill="#F1F1F1" height="48" rx="2.5" ry="2.5" style="stroke:#181818;stroke-width:0.5;" width="69.4814" x="584.23" y="157.4883"/><ellipse cx="599.23" cy="173.4883" fill="#ADD1B2" rx="11" ry="11" style="stroke:#181818;stroke-width:1;"/><path d="M601.7031,179.6313 Q601.1221,179.9302 600.4829,180.0796 Q599.8438,180.229 599.1382,180.229 Q596.6314,180.229 595.3115,178.5771 Q593.9917,176.9253 593.9917,173.8042 Q593.9917,170.6748 595.3115,169.0229 Q596.6314,167.3711 599.1382,167.3711 Q599.8438,167.3711 600.4912,167.5205 Q601.1387,167.6699 601.7031,167.9688 L601.7031,170.6914 Q601.0723,170.1104 600.4788,169.8406 Q599.8853,169.5708 599.2544,169.5708 Q597.9097,169.5708 597.2249,170.6375 Q596.5401,171.7041 596.5401,173.8042 Q596.5401,175.896 597.2249,176.9626 Q597.9097,178.0293 599.2544,178.0293 Q599.8853,178.0293 600.4788,177.7595 Q601.0723,177.4897 601.7031,176.9087 Z " fill="#000000"/><text fill="#000000" font-family="sans-serif" font-size="14" lengthAdjust="spacing" textLength="37.4814" x="613.23" y="178.7793">Topic</text><line style="stroke:#181818;stroke-width:0.5;" x1="585.23" x2="652.7114" y1="189.4883" y2="189.4883"/><line style="stroke:#181818;stroke-width:0.5;" x1="585.23" x2="652.7114" y1="197.4883" y2="197.4883"/></g><!--class RpcHandlers--><g class="entity" data-qualified-name="Networking.runtime.p2p-rpc.RpcHandlers" data-source-line="65" id="ent0040"><rect fill="#F1F1F1" height="48" rx="2.5" ry="2.5" style="stroke:#181818;stroke-width:0.5;" width="117.0664" x="943.43" y="157.4883"/><ellipse cx="958.43" cy="173.4883" fill="#ADD1B2" rx="11" ry="11" style="stroke:#181818;stroke-width:1;"/><path d="M960.9031,179.6313 Q960.3221,179.9302 959.6829,180.0796 Q959.0438,180.229 958.3382,180.229 Q955.8314,180.229 954.5115,178.5771 Q953.1917,176.9253 953.1917,173.8042 Q953.1917,170.6748 954.5115,169.0229 Q955.8314,167.3711 958.3382,167.3711 Q959.0438,167.3711 959.6912,167.5205 Q960.3387,167.6699 960.9031,167.9688 L960.9031,170.6914 Q960.2723,170.1104 959.6788,169.8406 Q959.0853,169.5708 958.4544,169.5708 Q957.1097,169.5708 956.4249,170.6375 Q955.7401,171.7041 955.7401,173.8042 Q955.7401,175.896 956.4249,176.9626 Q957.1097,178.0293 958.4544,178.0293 Q959.0853,178.0293 959.6788,177.7595 Q960.2723,177.4897 960.9031,176.9087 Z " fill="#000000"/><text fill="#000000" font-family="sans-serif" font-size="14" lengthAdjust="spacing" textLength="85.0664" x="972.43" y="178.7793">RpcHandlers</text><line style="stroke:#181818;stroke-width:0.5;" x1="944.43" x2="1059.4964" y1="189.4883" y2="189.4883"/><line style="stroke:#181818;stroke-width:0.5;" x1="944.43" x2="1059.4964" y1="197.4883" y2="197.4883"/></g><!--class Node--><g class="entity" data-qualified-name="Runtime . Services.runtime.core .lean-core..Node" data-source-line="72" id="ent0043"><rect fill="#F1F1F1" height="48" rx="2.5" ry="2.5" style="stroke:#181818;stroke-width:0.5;" width="67.5537" x="1267.19" y="600.4883"/><ellipse cx="1282.19" cy="616.4883" fill="#ADD1B2" rx="11" ry="11" style="stroke:#181818;stroke-width:1;"/><path d="M1284.6631,622.6313 Q1284.0821,622.9302 1283.4429,623.0796 Q1282.8038,623.229 1282.0982,623.229 Q1279.5914,623.229 1278.2715,621.5771 Q1276.9517,619.9253 1276.9517,616.8042 Q1276.9517,613.6748 1278.2715,612.0229 Q1279.5914,610.3711 1282.0982,610.3711 Q1282.8038,610.3711 1283.4512,610.5205 Q1284.0987,610.6699 1284.6631,610.9688 L1284.6631,613.6914 Q1284.0323,613.1104 1283.4388,612.8406 Q1282.8453,612.5708 1282.2144,612.5708 Q1280.8697,612.5708 1280.1849,613.6375 Q1279.5001,614.7041 1279.5001,616.8042 Q1279.5001,618.896 1280.1849,619.9626 Q1280.8697,621.0293 1282.2144,621.0293 Q1282.8453,621.0293 1283.4388,620.7595 Q1284.0323,620.4897 1284.6631,619.9087 Z " fill="#000000"/><text fill="#000000" font-family="sans-serif" font-size="14" lengthAdjust="spacing" textLength="35.5537" x="1296.19" y="621.7793">Node</text><line style="stroke:#181818;stroke-width:0.5;" x1="1268.19" x2="1333.7437" y1="632.4883" y2="632.4883"/><line style="stroke:#181818;stroke-width:0.5;" x1="1268.19" x2="1333.7437" y1="640.4883" y2="640.4883"/></g><!--class NodeConfig--><g class="entity" data-qualified-name="Runtime . Services.runtime.core .lean-core..NodeConfig" data-source-line="73" id="ent0044"><rect fill="#F1F1F1" height="48" rx="2.5" ry="2.5" style="stroke:#181818;stroke-width:0.5;" width="112.4521" x="1244.74" y="517.4883"/><ellipse cx="1259.74" cy="533.4883" fill="#ADD1B2" rx="11" ry="11" style="stroke:#181818;stroke-width:1;"/><path d="M1262.2131,539.6313 Q1261.6321,539.9302 1260.9929,540.0796 Q1260.3538,540.229 1259.6482,540.229 Q1257.1414,540.229 1255.8215,538.5771 Q1254.5017,536.9253 1254.5017,533.8042 Q1254.5017,530.6748 1255.8215,529.0229 Q1257.1414,527.3711 1259.6482,527.3711 Q1260.3538,527.3711 1261.0012,527.5205 Q1261.6487,527.6699 1262.2131,527.9688 L1262.2131,530.6914 Q1261.5823,530.1104 1260.9888,529.8406 Q1260.3953,529.5708 1259.7644,529.5708 Q1258.4197,529.5708 1257.7349,530.6375 Q1257.0501,531.7041 1257.0501,533.8042 Q1257.0501,535.896 1257.7349,536.9626 Q1258.4197,538.0293 1259.7644,538.0293 Q1260.3953,538.0293 1260.9888,537.7595 Q1261.5823,537.4897 1262.2131,536.9087 Z " fill="#000000"/><text fill="#000000" font-family="sans-serif" font-size="14" lengthAdjust="spacing" textLength="80.4521" x="1273.74" y="538.7793">NodeConfig</text><line style="stroke:#181818;stroke-width:0.5;" x1="1245.74" x2="1356.1921" y1="549.4883" y2="549.4883"/><line style="stroke:#181818;stroke-width:0.5;" x1="1245.74" x2="1356.1921" y1="557.4883" y2="557.4883"/></g><!--class ChainService--><g class="entity" data-qualified-name="Runtime . Services.runtime.chain .lean-chain..ChainService" data-source-line="76" id="ent0046"><rect fill="#F1F1F1" height="48" rx="2.5" ry="2.5" style="stroke:#181818;stroke-width:0.5;" width="79.332" x="962.3" y="600.4883"/><ellipse cx="977.3" cy="616.4883" fill="#ADD1B2" rx="11" ry="11" style="stroke:#181818;stroke-width:1;"/><path d="M979.7731,622.6313 Q979.1921,622.9302 978.5529,623.0796 Q977.9138,623.229 977.2082,623.229 Q974.7014,623.229 973.3815,621.5771 Q972.0617,619.9253 972.0617,616.8042 Q972.0617,613.6748 973.3815,612.0229 Q974.7014,610.3711 977.2082,610.3711 Q977.9138,610.3711 978.5612,610.5205 Q979.2087,610.6699 979.7731,610.9688 L979.7731,613.6914 Q979.1423,613.1104 978.5488,612.8406 Q977.9553,612.5708 977.3244,612.5708 Q975.9797,612.5708 975.2949,613.6375 Q974.6101,614.7041 974.6101,616.8042 Q974.6101,618.896 975.2949,619.9626 Q975.9797,621.0293 977.3244,621.0293 Q977.9553,621.0293 978.5488,620.7595 Q979.1423,620.4897 979.7731,619.9087 Z " fill="#000000"/><text fill="#000000" font-family="sans-serif" font-size="14" lengthAdjust="spacing" textLength="47.332" x="991.3" y="621.7793">Service</text><line style="stroke:#181818;stroke-width:0.5;" x1="963.3" x2="1040.632" y1="632.4883" y2="632.4883"/><line style="stroke:#181818;stroke-width:0.5;" x1="963.3" x2="1040.632" y1="640.4883" y2="640.4883"/></g><!--class ChainSnapshot--><g class="entity" data-qualified-name="Runtime . Services.runtime.chain .lean-chain..ChainSnapshot" data-source-line="77" id="ent0047"><rect fill="#F1F1F1" height="48" rx="2.5" ry="2.5" style="stroke:#181818;stroke-width:0.5;" width="133.2744" x="935.33" y="517.4883"/><ellipse cx="950.33" cy="533.4883" fill="#ADD1B2" rx="11" ry="11" style="stroke:#181818;stroke-width:1;"/><path d="M952.8031,539.6313 Q952.2221,539.9302 951.5829,540.0796 Q950.9438,540.229 950.2382,540.229 Q947.7314,540.229 946.4115,538.5771 Q945.0917,536.9253 945.0917,533.8042 Q945.0917,530.6748 946.4115,529.0229 Q947.7314,527.3711 950.2382,527.3711 Q950.9438,527.3711 951.5912,527.5205 Q952.2387,527.6699 952.8031,527.9688 L952.8031,530.6914 Q952.1723,530.1104 951.5788,529.8406 Q950.9853,529.5708 950.3544,529.5708 Q949.0097,529.5708 948.3249,530.6375 Q947.6401,531.7041 947.6401,533.8042 Q947.6401,535.896 948.3249,536.9626 Q949.0097,538.0293 950.3544,538.0293 Q950.9853,538.0293 951.5788,537.7595 Q952.1723,537.4897 952.8031,536.9087 Z " fill="#000000"/><text fill="#000000" font-family="sans-serif" font-size="14" lengthAdjust="spacing" textLength="101.2744" x="964.33" y="538.7793">ChainSnapshot</text><line style="stroke:#181818;stroke-width:0.5;" x1="936.33" x2="1067.6044" y1="549.4883" y2="549.4883"/><line style="stroke:#181818;stroke-width:0.5;" x1="936.33" x2="1067.6044" y1="557.4883" y2="557.4883"/></g><!--class SyncLoop--><g class="entity" data-qualified-name="Runtime . Services.runtime.sync .lean-sync..SyncLoop" data-source-line="80" id="ent0049"><rect fill="#F1F1F1" height="48" rx="2.5" ry="2.5" style="stroke:#181818;stroke-width:0.5;" width="65.4756" x="586.23" y="774.4883"/><ellipse cx="601.23" cy="790.4883" fill="#ADD1B2" rx="11" ry="11" style="stroke:#181818;stroke-width:1;"/><path d="M603.7031,796.6313 Q603.1221,796.9302 602.4829,797.0796 Q601.8438,797.229 601.1382,797.229 Q598.6314,797.229 597.3115,795.5771 Q595.9917,793.9253 595.9917,790.8042 Q595.9917,787.6748 597.3115,786.0229 Q598.6314,784.3711 601.1382,784.3711 Q601.8438,784.3711 602.4912,784.5205 Q603.1387,784.6699 603.7031,784.9688 L603.7031,787.6914 Q603.0723,787.1104 602.4788,786.8406 Q601.8853,786.5708 601.2544,786.5708 Q599.9097,786.5708 599.2249,787.6375 Q598.5401,788.7041 598.5401,790.8042 Q598.5401,792.896 599.2249,793.9626 Q599.9097,795.0293 601.2544,795.0293 Q601.8853,795.0293 602.4788,794.7595 Q603.0723,794.4897 603.7031,793.9087 Z " fill="#000000"/><text fill="#000000" font-family="sans-serif" font-size="14" lengthAdjust="spacing" textLength="33.4756" x="615.23" y="795.7793">Loop</text><line style="stroke:#181818;stroke-width:0.5;" x1="587.23" x2="650.7056" y1="806.4883" y2="806.4883"/><line style="stroke:#181818;stroke-width:0.5;" x1="587.23" x2="650.7056" y1="814.4883" y2="814.4883"/></g><!--class Publisher--><g class="entity" data-qualified-name="Runtime . Services.runtime.duties .lean-duties..Publisher" data-source-line="83" id="ent0051"><rect fill="#F1F1F1" height="48" rx="2.5" ry="2.5" style="stroke:#181818;stroke-width:0.5;" width="94.6855" x="571.62" y="600.4883"/><ellipse cx="586.62" cy="616.4883" fill="#ADD1B2" rx="11" ry="11" style="stroke:#181818;stroke-width:1;"/><path d="M589.0931,622.6313 Q588.5121,622.9302 587.8729,623.0796 Q587.2338,623.229 586.5282,623.229 Q584.0214,623.229 582.7015,621.5771 Q581.3817,619.9253 581.3817,616.8042 Q581.3817,613.6748 582.7015,612.0229 Q584.0214,610.3711 586.5282,610.3711 Q587.2338,610.3711 587.8812,610.5205 Q588.5287,610.6699 589.0931,610.9688 L589.0931,613.6914 Q588.4623,613.1104 587.8688,612.8406 Q587.2753,612.5708 586.6444,612.5708 Q585.2997,612.5708 584.6149,613.6375 Q583.9301,614.7041 583.9301,616.8042 Q583.9301,618.896 584.6149,619.9626 Q585.2997,621.0293 586.6444,621.0293 Q587.2753,621.0293 587.8688,620.7595 Q588.4623,620.4897 589.0931,619.9087 Z " fill="#000000"/><text fill="#000000" font-family="sans-serif" font-size="14" lengthAdjust="spacing" textLength="62.6855" x="600.62" y="621.7793">Publisher</text><line style="stroke:#181818;stroke-width:0.5;" x1="572.62" x2="665.3055" y1="632.4883" y2="632.4883"/><line style="stroke:#181818;stroke-width:0.5;" x1="572.62" x2="665.3055" y1="640.4883" y2="640.4883"/></g><!--class LocalProposers--><g class="entity" data-qualified-name="Runtime . Services.runtime.duties .lean-duties..LocalProposers" data-source-line="84" id="ent0052"><rect fill="#F1F1F1" height="48" rx="2.5" ry="2.5" style="stroke:#181818;stroke-width:0.5;" width="134.293" x="551.82" y="517.4883"/><ellipse cx="566.82" cy="533.4883" fill="#ADD1B2" rx="11" ry="11" style="stroke:#181818;stroke-width:1;"/><path d="M569.2931,539.6313 Q568.7121,539.9302 568.0729,540.0796 Q567.4338,540.229 566.7282,540.229 Q564.2214,540.229 562.9015,538.5771 Q561.5817,536.9253 561.5817,533.8042 Q561.5817,530.6748 562.9015,529.0229 Q564.2214,527.3711 566.7282,527.3711 Q567.4338,527.3711 568.0812,527.5205 Q568.7287,527.6699 569.2931,527.9688 L569.2931,530.6914 Q568.6623,530.1104 568.0688,529.8406 Q567.4753,529.5708 566.8444,529.5708 Q565.4997,529.5708 564.8149,530.6375 Q564.1301,531.7041 564.1301,533.8042 Q564.1301,535.896 564.8149,536.9626 Q565.4997,538.0293 566.8444,538.0293 Q567.4753,538.0293 568.0688,537.7595 Q568.6623,537.4897 569.2931,536.9087 Z " fill="#000000"/><text fill="#000000" font-family="sans-serif" font-size="14" lengthAdjust="spacing" textLength="102.293" x="580.82" y="538.7793">LocalProposers</text><line style="stroke:#181818;stroke-width:0.5;" x1="552.82" x2="685.113" y1="549.4883" y2="549.4883"/><line style="stroke:#181818;stroke-width:0.5;" x1="552.82" x2="685.113" y1="557.4883" y2="557.4883"/></g><!--class HttpService--><g class="entity" data-qualified-name="Runtime . Services.runtime.api .lean-api..HttpService" data-source-line="87" id="ent0054"><rect fill="#F1F1F1" height="48" rx="2.5" ry="2.5" style="stroke:#181818;stroke-width:0.5;" width="108.9043" x="947.51" y="857.4883"/><ellipse cx="962.51" cy="873.4883" fill="#ADD1B2" rx="11" ry="11" style="stroke:#181818;stroke-width:1;"/><path d="M964.9831,879.6313 Q964.4021,879.9302 963.7629,880.0796 Q963.1238,880.229 962.4182,880.229 Q959.9114,880.229 958.5915,878.5771 Q957.2717,876.9253 957.2717,873.8042 Q957.2717,870.6748 958.5915,869.0229 Q959.9114,867.3711 962.4182,867.3711 Q963.1238,867.3711 963.7712,867.5205 Q964.4187,867.6699 964.9831,867.9688 L964.9831,870.6914 Q964.3523,870.1104 963.7588,869.8406 Q963.1653,869.5708 962.5344,869.5708 Q961.1897,869.5708 960.5049,870.6375 Q959.8201,871.7041 959.8201,873.8042 Q959.8201,875.896 960.5049,876.9626 Q961.1897,878.0293 962.5344,878.0293 Q963.1653,878.0293 963.7588,877.7595 Q964.3523,877.4897 964.9831,876.9087 Z " fill="#000000"/><text fill="#000000" font-family="sans-serif" font-size="14" lengthAdjust="spacing" textLength="76.9043" x="976.51" y="878.7793">HttpService</text><line style="stroke:#181818;stroke-width:0.5;" x1="948.51" x2="1055.4143" y1="889.4883" y2="889.4883"/><line style="stroke:#181818;stroke-width:0.5;" x1="948.51" x2="1055.4143" y1="897.4883" y2="897.4883"/></g><!--class Server--><g class="entity" data-qualified-name="Runtime . Services.runtime.api .lean-api..Server" data-source-line="88" id="ent0055"><rect fill="#F1F1F1" height="48" rx="2.5" ry="2.5" style="stroke:#181818;stroke-width:0.5;" width="73.8428" x="965.05" y="774.4883"/><ellipse cx="980.05" cy="790.4883" fill="#ADD1B2" rx="11" ry="11" style="stroke:#181818;stroke-width:1;"/><path d="M982.5231,796.6313 Q981.9421,796.9302 981.3029,797.0796 Q980.6638,797.229 979.9582,797.229 Q977.4514,797.229 976.1315,795.5771 Q974.8117,793.9253 974.8117,790.8042 Q974.8117,787.6748 976.1315,786.0229 Q977.4514,784.3711 979.9582,784.3711 Q980.6638,784.3711 981.3112,784.5205 Q981.9587,784.6699 982.5231,784.9688 L982.5231,787.6914 Q981.8923,787.1104 981.2988,786.8406 Q980.7053,786.5708 980.0744,786.5708 Q978.7297,786.5708 978.0449,787.6375 Q977.3601,788.7041 977.3601,790.8042 Q977.3601,792.896 978.0449,793.9626 Q978.7297,795.0293 980.0744,795.0293 Q980.7053,795.0293 981.2988,794.7595 Q981.8923,794.4897 982.5231,793.9087 Z " fill="#000000"/><text fill="#000000" font-family="sans-serif" font-size="14" lengthAdjust="spacing" textLength="41.8428" x="994.05" y="795.7793">Server</text><line style="stroke:#181818;stroke-width:0.5;" x1="966.05" x2="1037.8928" y1="806.4883" y2="806.4883"/><line style="stroke:#181818;stroke-width:0.5;" x1="966.05" x2="1037.8928" y1="814.4883" y2="814.4883"/></g><!--class Verbosity--><g class="entity" data-qualified-name="Cross-cutting.observability .lean-observability..Verbosity" data-source-line="95" id="ent0058"><rect fill="#F1F1F1" height="48" rx="2.5" ry="2.5" style="stroke:#181818;stroke-width:0.5;" width="95.8271" x="571.05" y="1106.4883"/><ellipse cx="586.05" cy="1122.4883" fill="#ADD1B2" rx="11" ry="11" style="stroke:#181818;stroke-width:1;"/><path d="M588.5231,1128.6313 Q587.9421,1128.9302 587.3029,1129.0796 Q586.6638,1129.229 585.9582,1129.229 Q583.4514,1129.229 582.1315,1127.5771 Q580.8117,1125.9253 580.8117,1122.8042 Q580.8117,1119.6748 582.1315,1118.0229 Q583.4514,1116.3711 585.9582,1116.3711 Q586.6638,1116.3711 587.3112,1116.5205 Q587.9587,1116.6699 588.5231,1116.9688 L588.5231,1119.6914 Q587.8923,1119.1104 587.2988,1118.8406 Q586.7053,1118.5708 586.0744,1118.5708 Q584.7297,1118.5708 584.0449,1119.6375 Q583.3601,1120.7041 583.3601,1122.8042 Q583.3601,1124.896 584.0449,1125.9626 Q584.7297,1127.0293 586.0744,1127.0293 Q586.7053,1127.0293 587.2988,1126.7595 Q587.8923,1126.4897 588.5231,1125.9087 Z " fill="#000000"/><text fill="#000000" font-family="sans-serif" font-size="14" lengthAdjust="spacing" textLength="63.8271" x="600.05" y="1127.7793">Verbosity</text><line style="stroke:#181818;stroke-width:0.5;" x1="572.05" x2="665.8771" y1="1138.4883" y2="1138.4883"/><line style="stroke:#181818;stroke-width:0.5;" x1="572.05" x2="665.8771" y1="1146.4883" y2="1146.4883"/></g><!--class PublisherAdapter--><g class="entity" data-qualified-name="Application . Entry.node.PublisherAdapter" data-source-line="102" id="ent0061"><rect fill="#F1F1F1" height="48" rx="2.5" ry="2.5" style="stroke:#181818;stroke-width:0.5;" width="148.4639" x="242" y="604.4883"/><ellipse cx="257" cy="620.4883" fill="#ADD1B2" rx="11" ry="11" style="stroke:#181818;stroke-width:1;"/><path d="M259.4731,626.6313 Q258.8921,626.9302 258.2529,627.0796 Q257.6138,627.229 256.9082,627.229 Q254.4014,627.229 253.0815,625.5771 Q251.7617,623.9253 251.7617,620.8042 Q251.7617,617.6748 253.0815,616.0229 Q254.4014,614.3711 256.9082,614.3711 Q257.6138,614.3711 258.2612,614.5205 Q258.9087,614.6699 259.4731,614.9688 L259.4731,617.6914 Q258.8423,617.1104 258.2488,616.8406 Q257.6553,616.5708 257.0244,616.5708 Q255.6797,616.5708 254.9949,617.6375 Q254.3101,618.7041 254.3101,620.8042 Q254.3101,622.896 254.9949,623.9626 Q255.6797,625.0293 257.0244,625.0293 Q257.6553,625.0293 258.2488,624.7595 Q258.8423,624.4897 259.4731,623.9087 Z " fill="#000000"/><text fill="#000000" font-family="sans-serif" font-size="14" lengthAdjust="spacing" textLength="116.4639" x="271" y="625.7793">PublisherAdapter</text><line style="stroke:#181818;stroke-width:0.5;" x1="243" x2="389.4639" y1="636.4883" y2="636.4883"/><line style="stroke:#181818;stroke-width:0.5;" x1="243" x2="389.4639" y1="644.4883" y2="644.4883"/></g><!--class Cli--><g class="entity" data-qualified-name="Application . Entry.lean-cli.Cli" data-source-line="105" id="ent0063"><rect fill="#F1F1F1" height="48" rx="2.5" ry="2.5" style="stroke:#181818;stroke-width:0.5;" width="49.7803" x="291.34" y="430.4883"/><ellipse cx="306.34" cy="446.4883" fill="#ADD1B2" rx="11" ry="11" style="stroke:#181818;stroke-width:1;"/><path d="M308.8131,452.6313 Q308.2321,452.9302 307.5929,453.0796 Q306.9538,453.229 306.2482,453.229 Q303.7414,453.229 302.4215,451.5771 Q301.1017,449.9253 301.1017,446.8042 Q301.1017,443.6748 302.4215,442.0229 Q303.7414,440.3711 306.2482,440.3711 Q306.9538,440.3711 307.6012,440.5205 Q308.2487,440.6699 308.8131,440.9688 L308.8131,443.6914 Q308.1823,443.1104 307.5888,442.8406 Q306.9953,442.5708 306.3644,442.5708 Q305.0197,442.5708 304.3349,443.6375 Q303.6501,444.7041 303.6501,446.8042 Q303.6501,448.896 304.3349,449.9626 Q305.0197,451.0293 306.3644,451.0293 Q306.9953,451.0293 307.5888,450.7595 Q308.1823,450.4897 308.8131,449.9087 Z " fill="#000000"/><text fill="#000000" font-family="sans-serif" font-size="14" lengthAdjust="spacing" textLength="17.7803" x="320.34" y="451.7793">Cli</text><line style="stroke:#181818;stroke-width:0.5;" x1="292.34" x2="340.1203" y1="462.4883" y2="462.4883"/><line style="stroke:#181818;stroke-width:0.5;" x1="292.34" x2="340.1203" y1="470.4883" y2="470.4883"/></g><!--class Main--><g class="entity" data-qualified-name="Application . Entry.bin.lean-rust.Main" data-source-line="108" id="ent0065"><rect fill="#F1F1F1" height="48" rx="2.5" ry="2.5" style="stroke:#181818;stroke-width:0.5;" width="64.5254" x="63.74" y="517.4883"/><ellipse cx="78.74" cy="533.4883" fill="#ADD1B2" rx="11" ry="11" style="stroke:#181818;stroke-width:1;"/><path d="M81.2131,539.6313 Q80.6321,539.9302 79.9929,540.0796 Q79.3538,540.229 78.6482,540.229 Q76.1414,540.229 74.8215,538.5771 Q73.5017,536.9253 73.5017,533.8042 Q73.5017,530.6748 74.8215,529.0229 Q76.1414,527.3711 78.6482,527.3711 Q79.3538,527.3711 80.0012,527.5205 Q80.6487,527.6699 81.2131,527.9688 L81.2131,530.6914 Q80.5823,530.1104 79.9888,529.8406 Q79.3953,529.5708 78.7644,529.5708 Q77.4197,529.5708 76.7349,530.6375 Q76.0501,531.7041 76.0501,533.8042 Q76.0501,535.896 76.7349,536.9626 Q77.4197,538.0293 78.7644,538.0293 Q79.3953,538.0293 79.9888,537.7595 Q80.5823,537.4897 81.2131,536.9087 Z " fill="#000000"/><text fill="#000000" font-family="sans-serif" font-size="14" lengthAdjust="spacing" textLength="32.5254" x="92.74" y="538.7793">Main</text><line style="stroke:#181818;stroke-width:0.5;" x1="64.74" x2="127.2654" y1="549.4883" y2="549.4883"/><line style="stroke:#181818;stroke-width:0.5;" x1="64.74" x2="127.2654" y1="557.4883" y2="557.4883"/></g><!--link config to types--><g class="link" data-entity-1="ent0011" data-entity-2="ent0002" data-link-type="dependency" data-source-line="113" id="lnk66"><path codeLine="113" d="M1831.24,497.4805 C1831.24,497.407 1831.24,497.3335 1831.24,497.2601 C1831.24,496.0863 1831.24,494.9396 1831.24,493.8363 C1831.24,491.6297 1831.24,489.5966 1831.24,487.8666 C1831.24,484.4064 1831.24,482.1583 1831.24,482.1583 C1831.24,482.1583 1883.82,482.1583 1938.0438,482.1583 C1951.5997,482.1583 1965.2584,482.1583 1978.2239,482.1583 C1978.6291,482.1583 1974.0336,482.1583 1974.4373,482.1583" fill="none" id="config-to-types" style="stroke:#181818;stroke-width:1;stroke-dasharray:7,7;"/><polygon fill="#181818" points="1979.4373,482.1583,1970.4373,478.1583,1974.4373,482.1583,1970.4373,486.1583,1979.4373,482.1583" style="stroke:#181818;stroke-width:1;stroke-linejoin:miter;stroke-miterlimit:10;"/></g><!--link ssz to types--><g class="link" data-entity-1="ent0007" data-entity-2="ent0002" data-link-type="dependency" data-source-line="114" id="lnk67"><path codeLine="114" d="M2123.9172,739.4883 C2124.174,739.4883 2124.4275,739.4883 2124.6776,739.4883 C2132.6816,739.4883 2137.24,739.4883 2137.24,739.4883 C2137.24,739.4883 2137.24,723.4258 2137.24,699.332 C2137.24,693.3086 2137.24,686.7832 2137.24,679.8813 C2137.24,678.1559 2137.24,676.4069 2137.24,674.6363 C2137.24,674.1937 2137.24,678.7497 2137.24,678.3044" fill="none" id="ssz-to-types" style="stroke:#181818;stroke-width:1;stroke-dasharray:7,7;"/><polygon fill="#181818" points="2137.24,673.3044,2133.24,682.3044,2137.24,678.3044,2141.24,682.3044,2137.24,673.3044" style="stroke:#181818;stroke-width:1;stroke-linejoin:miter;stroke-miterlimit:10;"/></g><!--link protocol to ssz--><g class="link" data-entity-1="ent0014" data-entity-2="ent0007" data-link-type="dependency" data-source-line="115" id="lnk68"><path codeLine="115" d="M1561.24,1035.8472 C1561.24,1035.483 1561.24,1035.1157 1561.24,1034.7455 C1561.24,1034.0051 1561.24,1033.2528 1561.24,1032.4888 C1561.24,1030.9609 1561.24,1029.3864 1561.24,1027.7677 C1561.24,1021.2929 1561.24,1014.1104 1561.24,1006.3673 C1561.24,975.3952 1561.24,935.4545 1561.24,895.9658 C1561.24,816.9883 1561.24,739.8183 1561.24,739.8183 C1561.24,739.8183 1624.6075,739.8183 1689.955,739.8183 C1706.2919,739.8183 1722.7525,739.8183 1738.3777,739.8183 C1746.1903,739.8183 1753.794,739.8183 1761.069,739.8183 C1761.9784,739.8183 1762.8826,739.8183 1763.7815,739.8183 C1764.2309,739.8183 1759.679,739.8183 1760.1257,739.8183" fill="none" id="protocol-to-ssz" style="stroke:#181818;stroke-width:1;stroke-dasharray:7,7;"/><polygon fill="#181818" points="1765.1257,739.8183,1756.1257,735.8183,1760.1257,739.8183,1756.1257,743.8183,1765.1257,739.8183" style="stroke:#181818;stroke-width:1;stroke-linejoin:miter;stroke-miterlimit:10;"/></g><!--link protocol to config--><g class="link" data-entity-1="ent0014" data-entity-2="ent0011" data-link-type="dependency" data-source-line="116" id="lnk69"><path codeLine="116" d="M1586.24,1035.5981 C1586.24,1031.0909 1586.24,1026.2166 1586.24,1021.0083 C1586.24,1010.5918 1586.24,998.8398 1586.24,986.0195 C1586.24,934.7383 1586.24,866.3633 1586.24,797.9883 C1586.24,661.2383 1586.24,524.4883 1586.24,524.4883 C1586.24,524.4883 1643.7425,524.4883 1703.0425,524.4883 C1717.8675,524.4883 1732.8048,524.4883 1746.9841,524.4883 C1754.0738,524.4883 1760.9739,524.4883 1767.5758,524.4883 C1767.9884,524.4883 1763.3998,524.4883 1763.8101,524.4883" fill="none" id="protocol-to-config" style="stroke:#181818;stroke-width:1;stroke-dasharray:7,7;"/><polygon fill="#181818" points="1768.8101,524.4883,1759.8101,520.4883,1763.8101,524.4883,1759.8101,528.4883,1768.8101,524.4883" style="stroke:#181818;stroke-width:1;stroke-linejoin:miter;stroke-miterlimit:10;"/></g><!--link forkchoice to protocol--><g class="link" data-entity-1="ent0021" data-entity-2="ent0014" data-link-type="dependency" data-source-line="117" id="lnk70"><path codeLine="117" d="M1395.6967,1063.4883 C1396.1569,1063.4883 1396.6177,1063.4883 1397.0791,1063.4883 C1400.7706,1063.4883 1404.5011,1063.4883 1408.2576,1063.4883 C1415.7707,1063.4883 1423.3877,1063.4883 1431.0038,1063.4883 C1446.2359,1063.4883 1461.4646,1063.4883 1475.8513,1063.4883 C1476.7505,1063.4883 1477.6464,1063.4883 1478.5387,1063.4883 C1478.7618,1063.4883 1473.9847,1063.4883 1474.2074,1063.4883" fill="none" id="forkchoice-to-protocol" style="stroke:#181818;stroke-width:1;stroke-dasharray:7,7;"/><polygon fill="#181818" points="1479.2074,1063.4883,1470.2074,1059.4883,1474.2074,1063.4883,1470.2074,1067.4883,1479.2074,1063.4883" style="stroke:#181818;stroke-width:1;stroke-linejoin:miter;stroke-miterlimit:10;"/></g><!--link storage to protocol--><g class="link" data-entity-1="ent0025" data-entity-2="ent0014" data-link-type="dependency" data-source-line="118" id="lnk71"><path codeLine="118" d="M1636.24,1442.5135 C1636.24,1442.0858 1636.24,1441.6539 1636.24,1441.2178 C1636.24,1440.3457 1636.24,1439.4568 1636.24,1438.5517 C1636.24,1436.7414 1636.24,1434.8658 1636.24,1432.9282 C1636.24,1425.1777 1636.24,1416.4336 1636.24,1406.8945 C1636.24,1387.8164 1636.24,1365.5586 1636.24,1341.7109 C1636.24,1340.2205 1636.24,1338.7238 1636.24,1337.2213 C1636.24,1337.0334 1636.24,1341.8455 1636.24,1341.6575" fill="none" id="storage-to-protocol" style="stroke:#181818;stroke-width:1;stroke-dasharray:7,7;"/><polygon fill="#181818" points="1636.24,1336.6575,1632.24,1345.6575,1636.24,1341.6575,1640.24,1345.6575,1636.24,1336.6575" style="stroke:#181818;stroke-width:1;stroke-linejoin:miter;stroke-miterlimit:10;"/></g><!--link networking (lean-wire) to protocol--><g class="link" data-entity-1="ent0031" data-entity-2="ent0014" data-link-type="dependency" data-source-line="119" id="lnk72"><path codeLine="119" d="M1560.24,313.4672 C1560.24,313.9817 1560.24,314.5054 1560.24,315.0383 C1560.24,316.1039 1560.24,317.206 1560.24,318.3439 C1560.24,320.6195 1560.24,323.0381 1560.24,325.5941 C1560.24,346.0416 1560.24,375.2784 1560.24,410.4353 C1560.24,480.7492 1560.24,574.7439 1560.24,669.467 C1560.24,764.1902 1560.24,859.6417 1560.24,932.8694 C1560.24,969.4832 1560.24,1000.5411 1560.24,1023.1739 C1560.24,1026.003 1560.24,1028.7005 1560.24,1031.2607 C1560.24,1032.5408 1560.24,1033.7866 1560.24,1034.9974 C1560.24,1035.3001 1560.24,1030.6006 1560.24,1030.8989" fill="none" id="networking (lean-wire)-to-protocol" style="stroke:#181818;stroke-width:1;stroke-dasharray:7,7;"/><polygon fill="#181818" points="1560.24,1035.8989,1564.24,1026.8989,1560.24,1030.8989,1556.24,1026.8989,1560.24,1035.8989" style="stroke:#181818;stroke-width:1;stroke-linejoin:miter;stroke-miterlimit:10;"/></g><!--link runtime/chain (lean-chain) to runtime/core (lean-core)--><g class="link" data-entity-1="ent0045" data-entity-2="ent0042" data-link-type="dependency" data-source-line="121" id="lnk73"><path codeLine="121" d="M1109.4456,482.4883 C1110.5023,482.4883 1111.5621,482.4883 1112.6247,482.4883 C1116.8749,482.4883 1121.1702,482.4883 1125.4954,482.4883 C1134.1459,482.4883 1142.9159,482.4883 1151.685,482.4883 C1169.2231,482.4883 1181.7572,482.4883 1198.3218,482.4883" fill="none" id="runtime/chain (lean-chain)-to-runtime/core (lean-core)" style="stroke:#181818;stroke-width:1;stroke-dasharray:7,7;"/><polygon fill="#181818" points="1203.3218,482.4883,1194.3218,478.4883,1198.3218,482.4883,1194.3218,486.4883,1203.3218,482.4883" style="stroke:#181818;stroke-width:1;stroke-linejoin:miter;stroke-miterlimit:10;"/></g><!--link runtime/chain (lean-chain) to storage--><g class="link" data-entity-1="ent0045" data-entity-2="ent0025" data-link-type="dependency" data-source-line="122" id="lnk74"><path codeLine="122" d="M1001.24,455.2761 C1001.24,455.0162 1001.24,454.7548 1001.24,454.4921 C1001.24,453.4412 1001.24,452.3682 1001.24,451.2745 C1001.24,433.7752 1001.24,410.9658 1001.24,388.3308 C1001.24,343.0608 1001.24,298.4883 1001.24,298.4883 C1001.24,298.4883 1141.24,298.4883 1141.24,298.4883 C1141.24,298.4883 1141.24,1488.4883 1141.24,1488.4883 C1141.24,1488.4883 1151.24,1488.4883 1166.24,1488.4883 C1173.74,1488.4883 1182.49,1488.4883 1191.865,1488.4883 C1196.5525,1488.4883 1201.3963,1488.4883 1206.3181,1488.4883 C1208.7791,1488.4883 1211.2595,1488.4883 1213.7498,1488.4883 C1214.3723,1488.4883 1209.9955,1488.4883 1210.6191,1488.4883" fill="none" id="runtime/chain (lean-chain)-to-storage" style="stroke:#181818;stroke-width:1;stroke-dasharray:7,7;"/><polygon fill="#181818" points="1215.6191,1488.4883,1206.6191,1484.4883,1210.6191,1488.4883,1206.6191,1492.4883,1215.6191,1488.4883" style="stroke:#181818;stroke-width:1;stroke-linejoin:miter;stroke-miterlimit:10;"/></g><!--link runtime/chain (lean-chain) to forkchoice--><g class="link" data-entity-1="ent0045" data-entity-2="ent0021" data-link-type="dependency" data-source-line="123" id="lnk75"><path codeLine="123" d="M895.9895,482.8183 C894.2344,482.8183 892.4761,482.8183 890.7162,482.8183 C887.1965,482.8183 883.6705,482.8183 880.1512,482.8183 C823.8425,482.8183 769.24,482.8183 769.24,482.8183 C769.24,482.8183 769.24,1063.4883 769.24,1063.4883 C769.24,1063.4883 898.05,1063.4883 1028.8725,1063.4883 C1061.5781,1063.4883 1094.4095,1063.4883 1125.3855,1063.4883 C1140.8735,1063.4883 1155.8976,1063.4883 1170.2102,1063.4883 C1177.3666,1063.4883 1184.345,1063.4883 1191.1146,1063.4883 C1194.4994,1063.4883 1197.832,1063.4883 1201.1085,1063.4883 C1202.7468,1063.4883 1199.371,1063.4883 1200.9807,1063.4883" fill="none" id="runtime/chain (lean-chain)-to-forkchoice" style="stroke:#181818;stroke-width:1;stroke-dasharray:7,7;"/><polygon fill="#181818" points="1205.9807,1063.4883,1196.9807,1059.4883,1200.9807,1063.4883,1196.9807,1067.4883,1205.9807,1063.4883" style="stroke:#181818;stroke-width:1;stroke-linejoin:miter;stroke-miterlimit:10;"/></g><!--link runtime/chain (lean-chain) to networking (lean-wire)--><g class="link" data-entity-1="ent0045" data-entity-2="ent0031" data-link-type="dependency" data-source-line="124" id="lnk76"><path codeLine="124" d="M1002.24,454.7686 C1002.24,452.7645 1002.24,450.6797 1002.24,448.5239 C1002.24,431.2777 1002.24,409.4883 1002.24,388.1008 C1002.24,345.3258 1002.24,304.1583 1002.24,304.1583 C1002.24,304.1583 1073.4625,304.1583 1146.3538,304.1583 C1155.4652,304.1583 1164.6026,304.1583 1173.6303,304.1583 C1178.1442,304.1583 1182.6306,304.1583 1187.0726,304.1583 C1187.6278,304.1583 1183.1824,304.1583 1183.7362,304.1583" fill="none" id="runtime/chain (lean-chain)-to-networking (lean-wire)" style="stroke:#181818;stroke-width:1;stroke-dasharray:7,7;"/><polygon fill="#181818" points="1188.7362,304.1583,1179.7362,300.1583,1183.7362,304.1583,1179.7362,308.1583,1188.7362,304.1583" style="stroke:#181818;stroke-width:1;stroke-linejoin:miter;stroke-miterlimit:10;"/></g><!--link runtime/duties (lean-duties) to runtime/chain (lean-chain)--><g class="link" data-entity-1="ent0050" data-entity-2="ent0045" data-link-type="dependency" data-source-line="126" id="lnk77"><path codeLine="126" d="M733.4338,482.1583 C734.0932,482.1583 734.7541,482.1583 735.4164,482.1583 C738.0655,482.1583 740.7374,482.1583 743.4295,482.1583 C764.9663,482.1583 787.7978,482.1583 810.6263,482.1583 C833.4547,482.1583 856.2801,482.1583 877.8047,482.1583 C883.1859,482.1583 888.4858,482.1583 893.6841,482.1583 C894.3339,482.1583 889.9821,482.1583 890.6286,482.1583" fill="none" id="runtime/duties (lean-duties)-to-runtime/chain (lean-chain)" style="stroke:#181818;stroke-width:1;stroke-dasharray:7,7;"/><polygon fill="#181818" points="895.6286,482.1583,886.6286,478.1583,890.6286,482.1583,886.6286,486.1583,895.6286,482.1583" style="stroke:#181818;stroke-width:1;stroke-linejoin:miter;stroke-miterlimit:10;"/></g><!--link runtime/sync (lean-sync) to runtime/chain (lean-chain)--><g class="link" data-entity-1="ent0048" data-entity-2="ent0045" data-link-type="dependency" data-source-line="127" id="lnk78"><path codeLine="127" d="M719.9284,739.1583 C726.9333,739.1583 734.015,739.1583 741.07,739.1583 C797.51,739.1583 852.24,739.1583 852.24,739.1583 C852.24,739.1583 852.24,500.4883 852.24,500.4883 C852.24,500.4883 861.615,500.4883 875.6775,500.4883 C879.1931,500.4883 883.0017,500.4883 887.03,500.4883 C889.0442,500.4883 891.1133,500.4883 893.2282,500.4883 C894.2856,500.4883 890.3545,500.4883 891.4336,500.4883" fill="none" id="runtime/sync (lean-sync)-to-runtime/chain (lean-chain)" style="stroke:#181818;stroke-width:1;stroke-dasharray:7,7;"/><polygon fill="#181818" points="896.4336,500.4883,887.4336,496.4883,891.4336,500.4883,887.4336,504.4883,896.4336,500.4883" style="stroke:#181818;stroke-width:1;stroke-linejoin:miter;stroke-miterlimit:10;"/></g><!--link runtime/sync (lean-sync) to storage--><g class="link" data-entity-1="ent0048" data-entity-2="ent0025" data-link-type="dependency" data-source-line="128" id="lnk79"><path codeLine="128" d="M561.24,847.953 C561.24,848.8273 561.24,849.7052 561.24,850.5866 C561.24,852.3495 561.24,854.1265 561.24,855.9171 C561.24,859.4983 561.24,863.1339 561.24,866.8198 C561.24,881.5635 561.24,897.1113 561.24,913.1953 C561.24,945.3633 561.24,979.6758 561.24,1013.9883 C561.24,1151.2383 561.24,1288.4883 561.24,1288.4883 C561.24,1288.4883 1301.24,1288.4883 1301.24,1288.4883 C1301.24,1288.4883 1301.24,1330.5033 1301.24,1374.1595 C1301.24,1395.9877 1301.24,1418.2261 1301.24,1435.8281 C1301.24,1438.0284 1301.24,1440.1562 1301.24,1442.2017 C1301.24,1442.4574 1301.24,1437.7118 1301.24,1437.9649" fill="none" id="runtime/sync (lean-sync)-to-storage" style="stroke:#181818;stroke-width:1;stroke-dasharray:7,7;"/><polygon fill="#181818" points="1301.24,1442.9649,1305.24,1433.9649,1301.24,1437.9649,1297.24,1433.9649,1301.24,1442.9649" style="stroke:#181818;stroke-width:1;stroke-linejoin:miter;stroke-miterlimit:10;"/></g><!--link runtime/sync (lean-sync) to networking (lean-wire)--><g class="link" data-entity-1="ent0048" data-entity-2="ent0031" data-link-type="dependency" data-source-line="129" id="lnk80"><path codeLine="129" d="M619.24,712.3378 C619.24,712.2605 619.24,712.1833 619.24,712.1063 C619.24,711.798 619.24,711.4911 619.24,711.1861 C619.24,709.9659 619.24,708.774 619.24,707.6272 C619.24,705.3336 619.24,703.2202 619.24,701.4219 C619.24,697.8252 619.24,695.4883 619.24,695.4883 C619.24,695.4883 1238.24,695.4883 1238.24,695.4883 C1238.24,695.4883 1238.24,597.8208 1238.24,500.1533 C1238.24,451.3195 1238.24,402.4858 1238.24,365.8605 C1238.24,347.5478 1238.24,332.2873 1238.24,321.6049 C1238.24,318.9343 1238.24,316.5498 1238.24,314.4753 C1238.24,313.9567 1238.24,318.4575 1238.24,317.978" fill="none" id="runtime/sync (lean-sync)-to-networking (lean-wire)" style="stroke:#181818;stroke-width:1;stroke-dasharray:7,7;"/><polygon fill="#181818" points="1238.24,312.978,1234.24,321.978,1238.24,317.978,1242.24,321.978,1238.24,312.978" style="stroke:#181818;stroke-width:1;stroke-linejoin:miter;stroke-miterlimit:10;"/></g><!--link runtime/p2p-rpc to networking (lean-wire)--><g class="link" data-entity-1="ent0039" data-entity-2="ent0031" data-link-type="dependency" data-source-line="131" id="lnk81"><path codeLine="131" d="M1084.9773,122.4883 C1087.616,122.4883 1090.2978,122.4883 1093.0197,122.4883 C1098.4634,122.4883 1104.0675,122.4883 1109.8076,122.4883 C1121.288,122.4883 1133.3126,122.4883 1145.6878,122.4883 C1158.0629,122.4883 1170.7885,122.4883 1183.6708,122.4883 C1185.2811,122.4883 1186.8938,122.4883 1188.5086,122.4883 C1188.6096,122.4883 1183.7105,122.4883 1183.8114,122.4883" fill="none" id="runtime/p2p-rpc-to-networking (lean-wire)" style="stroke:#181818;stroke-width:1;stroke-dasharray:7,7;"/><polygon fill="#181818" points="1188.8114,122.4883,1179.8114,118.4883,1183.8114,122.4883,1179.8114,126.4883,1188.8114,122.4883" style="stroke:#181818;stroke-width:1;stroke-linejoin:miter;stroke-miterlimit:10;"/></g><!--link runtime/p2p (lean-p2p-host) to runtime/p2p-rpc--><g class="link" data-entity-1="ent0036" data-entity-2="ent0039" data-link-type="dependency" data-source-line="132" id="lnk82"><path codeLine="132" d="M735.4164,122.4883 C738.0655,122.4883 740.7374,122.4883 743.4295,122.4883 C764.9663,122.4883 787.7978,122.4883 810.6263,122.4883 C833.4547,122.4883 856.2801,122.4883 877.8047,122.4883 C888.5671,122.4883 899.0042,122.4883 908.954,122.4883 C911.4414,122.4883 913.8984,122.4883 916.3224,122.4883 C916.9284,122.4883 917.5323,122.4883 918.1342,122.4883 C918.4351,122.4883 913.7355,122.4883 914.0353,122.4883" fill="none" id="runtime/p2p (lean-p2p-host)-to-runtime/p2p-rpc" style="stroke:#181818;stroke-width:1;stroke-dasharray:7,7;"/><polygon fill="#181818" points="919.0353,122.4883,910.0353,118.4883,914.0353,122.4883,910.0353,126.4883,919.0353,122.4883" style="stroke:#181818;stroke-width:1;stroke-linejoin:miter;stroke-miterlimit:10;"/></g><!--link runtime/p2p (lean-p2p-host) to runtime/core (lean-core)--><g class="link" data-entity-1="ent0036" data-entity-2="ent0042" data-link-type="dependency" data-source-line="133" id="lnk83"><path codeLine="133" d="M680.24,312.5502 C680.24,312.9075 680.24,313.2629 680.24,313.6164 C680.24,314.3232 680.24,315.0224 680.24,315.7135 C680.24,317.0958 680.24,318.4461 680.24,319.7625 C680.24,322.3954 680.24,324.8929 680.24,327.24 C680.24,331.9341 680.24,336.0264 680.24,339.3965 C680.24,346.1367 680.24,349.9883 680.24,349.9883 C680.24,349.9883 1301.24,349.9883 1301.24,349.9883 C1301.24,349.9883 1301.24,381.0758 1301.24,413.1345 C1301.24,421.1492 1301.24,429.2246 1301.24,436.8901 C1301.24,440.7229 1301.24,444.4532 1301.24,448.0222 C1301.24,449.8067 1301.24,451.5509 1301.24,453.2474 C1301.24,453.6715 1301.24,454.0927 1301.24,454.5107 C1301.24,454.7198 1301.24,449.928 1301.24,450.1355" fill="none" id="runtime/p2p (lean-p2p-host)-to-runtime/core (lean-core)" style="stroke:#181818;stroke-width:1;stroke-dasharray:7,7;"/><polygon fill="#181818" points="1301.24,455.1355,1305.24,446.1355,1301.24,450.1355,1297.24,446.1355,1301.24,455.1355" style="stroke:#181818;stroke-width:1;stroke-linejoin:miter;stroke-miterlimit:10;"/></g><!--link runtime/api (lean-api) to runtime/core (lean-core)--><g class="link" data-entity-1="ent0053" data-entity-2="ent0042" data-link-type="dependency" data-source-line="134" id="lnk84"><path codeLine="134" d="M1091.7926,739.1583 C1092.3987,739.1583 1093.0067,739.1583 1093.6165,739.1583 C1103.3734,739.1583 1113.5928,739.1583 1124.1101,739.1583 C1145.1447,739.1583 1167.3706,739.1583 1189.47,739.1583 C1277.8675,739.1583 1364.24,739.1583 1364.24,739.1583 C1364.24,739.1583 1364.24,723.137 1364.24,699.1052 C1364.24,693.0972 1364.24,686.5886 1364.24,679.7044 C1364.24,677.9834 1364.24,676.2389 1364.24,674.4729 C1364.24,674.0314 1364.24,678.5885 1364.24,678.1444" fill="none" id="runtime/api (lean-api)-to-runtime/core (lean-core)" style="stroke:#181818;stroke-width:1;stroke-dasharray:7,7;"/><polygon fill="#181818" points="1364.24,673.1444,1360.24,682.1444,1364.24,678.1444,1368.24,682.1444,1364.24,673.1444" style="stroke:#181818;stroke-width:1;stroke-linejoin:miter;stroke-miterlimit:10;"/></g><!--link runtime/api (lean-api) to storage--><g class="link" data-entity-1="ent0053" data-entity-2="ent0025" data-link-type="dependency" data-source-line="135" id="lnk85"><path codeLine="135" d="M1062.24,930.0857 C1062.24,932.5111 1062.24,934.9522 1062.24,937.4083 C1062.24,942.3204 1062.24,947.2923 1062.24,952.3187 C1062.24,962.3713 1062.24,972.6416 1062.24,983.0859 C1062.24,1024.8633 1062.24,1069.4258 1062.24,1113.9883 C1062.24,1292.2383 1062.24,1470.4883 1062.24,1470.4883 C1062.24,1470.4883 1118.25,1470.4883 1176.01,1470.4883 C1183.23,1470.4883 1190.4773,1470.4883 1197.6461,1470.4883 C1201.2304,1470.4883 1204.7951,1470.4883 1208.3269,1470.4883 C1210.0928,1470.4883 1211.8505,1470.4883 1213.5983,1470.4883 C1214.4721,1470.4883 1210.3436,1470.4883 1211.2123,1470.4883" fill="none" id="runtime/api (lean-api)-to-storage" style="stroke:#181818;stroke-width:1;stroke-dasharray:7,7;"/><polygon fill="#181818" points="1216.2123,1470.4883,1207.2123,1466.4883,1211.2123,1470.4883,1207.2123,1474.4883,1216.2123,1470.4883" style="stroke:#181818;stroke-width:1;stroke-linejoin:miter;stroke-miterlimit:10;"/></g><!--link node to runtime/chain (lean-chain)--><g class="link" data-entity-1="ent0060" data-entity-2="ent0045" data-link-type="dependency" data-source-line="137" id="lnk86"><path codeLine="137" d="M333.24,542.023 C333.24,541.6586 333.24,541.2939 333.24,540.929 C333.24,540.1992 333.24,539.4688 333.24,538.7383 C333.24,515.3633 333.24,491.9883 333.24,491.9883 C333.24,491.9883 500.24,491.9883 667.24,491.9883 C708.99,491.9883 750.74,491.9883 789.8806,491.9883 C809.4509,491.9883 828.3689,491.9883 846.3084,491.9883 C855.2781,491.9883 864.0032,491.9883 872.4429,491.9883 C876.6627,491.9883 880.8112,491.9883 884.8833,491.9883 C886.9193,491.9883 888.9362,491.9883 890.9334,491.9883 C891.932,491.9883 887.9256,491.9883 888.9142,491.9883" fill="none" id="node-to-runtime/chain (lean-chain)" style="stroke:#181818;stroke-width:1;stroke-dasharray:7,7;"/><polygon fill="#181818" points="893.9142,491.9883,884.9142,487.9883,888.9142,491.9883,884.9142,495.9883,893.9142,491.9883" style="stroke:#181818;stroke-width:1;stroke-linejoin:miter;stroke-miterlimit:10;"/></g><!--link node to runtime/duties (lean-duties)--><g class="link" data-entity-1="ent0060" data-entity-2="ent0050" data-link-type="dependency" data-source-line="138" id="lnk87"><path codeLine="138" d="M325.24,542.313 C325.24,542.1556 325.24,541.9979 325.24,541.8398 C325.24,536.7808 325.24,531.3845 325.24,525.9883 C325.24,504.4033 325.24,482.8183 325.24,482.8183 C325.24,482.8183 395.27,482.8183 466.9412,482.8183 C475.9002,482.8183 484.8847,482.8183 493.7613,482.8183 C498.1996,482.8183 497.611,482.8183 501.9786,482.8183" fill="none" id="node-to-runtime/duties (lean-duties)" style="stroke:#181818;stroke-width:1;stroke-dasharray:7,7;"/><polygon fill="#181818" points="506.9786,482.8183,497.9786,478.8183,501.9786,482.8183,497.9786,486.8183,506.9786,482.8183" style="stroke:#181818;stroke-width:1;stroke-linejoin:miter;stroke-miterlimit:10;"/></g><!--link node to runtime/p2p (lean-p2p-host)--><g class="link" data-entity-1="ent0060" data-entity-2="ent0036" data-link-type="dependency" data-source-line="139" id="lnk88"><path codeLine="139" d="M266.24,541.8325 C266.24,538.3594 266.24,534.6034 266.24,530.5901 C266.24,522.5635 266.24,513.5078 266.24,503.6289 C266.24,464.1133 266.24,411.4258 266.24,358.7383 C266.24,253.3633 266.24,147.9883 266.24,147.9883 C266.24,147.9883 354.49,147.9883 442.74,147.9883 C453.7713,147.9883 464.8025,147.9883 475.6614,147.9883 C481.0908,147.9883 486.4772,147.9883 491.7989,147.9883 C494.4598,147.9883 497.1045,147.9883 499.7303,147.9883 C501.0432,147.9883 497.3514,147.9883 498.6546,147.9883" fill="none" id="node-to-runtime/p2p (lean-p2p-host)" style="stroke:#181818;stroke-width:1;stroke-dasharray:7,7;"/><polygon fill="#181818" points="503.6546,147.9883,494.6546,143.9883,498.6546,147.9883,494.6546,151.9883,503.6546,147.9883" style="stroke:#181818;stroke-width:1;stroke-linejoin:miter;stroke-miterlimit:10;"/></g><!--link node to runtime/api (lean-api)--><g class="link" data-entity-1="ent0060" data-entity-2="ent0053" data-link-type="dependency" data-source-line="140" id="lnk89"><path codeLine="140" d="M416.1215,569.8183 C417.0266,569.8183 417.9363,569.8183 418.8505,569.8183 C420.6788,569.8183 422.5249,569.8183 424.3883,569.8183 C484.0166,569.8183 561.3206,569.8183 637.8913,569.8183 C791.0325,569.8183 941.24,569.8183 941.24,569.8183 C941.24,569.8183 941.24,612.3183 941.24,654.8183 C941.24,665.4433 941.24,676.0683 941.24,686.0292 C941.24,691.0097 941.24,695.8241 941.24,700.3896 C941.24,702.6723 941.24,704.8927 941.24,707.0406 C941.24,708.1145 941.24,709.1702 941.24,710.2065 C941.24,710.7247 941.24,706.238 941.24,706.7462" fill="none" id="node-to-runtime/api (lean-api)" style="stroke:#181818;stroke-width:1;stroke-dasharray:7,7;"/><polygon fill="#181818" points="941.24,711.7462,945.24,702.7462,941.24,706.7462,937.24,702.7462,941.24,711.7462" style="stroke:#181818;stroke-width:1;stroke-linejoin:miter;stroke-miterlimit:10;"/></g><!--link node to runtime/core (lean-core)--><g class="link" data-entity-1="ent0060" data-entity-2="ent0042" data-link-type="dependency" data-source-line="141" id="lnk90"><path codeLine="141" d="M316.24,542.3776 C316.24,542.1572 316.24,541.9365 316.24,541.7156 C316.24,539.9485 316.24,538.17 316.24,536.4045 C316.24,522.2808 316.24,508.9883 316.24,508.9883 C316.24,508.9883 562.49,508.9883 808.74,508.9883 C931.865,508.9883 1054.99,508.9883 1147.3338,508.9883 C1158.8767,508.9883 1169.9387,508.9883 1180.4597,508.9883 C1185.7201,508.9883 1190.8453,508.9883 1195.8277,508.9883 C1198.319,508.9883 1195.7745,508.9883 1198.1933,508.9883" fill="none" id="node-to-runtime/core (lean-core)" style="stroke:#181818;stroke-width:1;stroke-dasharray:7,7;"/><polygon fill="#181818" points="1203.1933,508.9883,1194.1933,504.9883,1198.1933,508.9883,1194.1933,512.9883,1203.1933,508.9883" style="stroke:#181818;stroke-width:1;stroke-linejoin:miter;stroke-miterlimit:10;"/></g><!--link lean-cli to runtime/duties (lean-duties)--><g class="link" data-entity-1="ent0062" data-entity-2="ent0050" data-link-type="dependency" data-source-line="143" id="lnk91"><path codeLine="143" d="M365.6882,395.4883 C366.1286,395.4883 366.5712,395.4883 367.016,395.4883 C367.9054,395.4883 368.8033,395.4883 369.7094,395.4883 C398.7044,395.4883 436.095,395.4883 473.0625,395.4883 C546.9975,395.4883 619.24,395.4883 619.24,395.4883 C619.24,395.4883 619.24,415.2458 619.24,435.9295 C619.24,441.1005 619.24,446.3293 619.24,451.3218 C619.24,452.5699 619.24,453.8032 619.24,455.0172 C619.24,455.169 619.24,450.3204 619.24,450.4716" fill="none" id="lean-cli-to-runtime/duties (lean-duties)" style="stroke:#181818;stroke-width:1;stroke-dasharray:7,7;"/><polygon fill="#181818" points="619.24,455.4716,623.24,446.4716,619.24,450.4716,615.24,446.4716,619.24,455.4716" style="stroke:#181818;stroke-width:1;stroke-linejoin:miter;stroke-miterlimit:10;"/></g><!--link lean-cli to runtime/p2p (lean-p2p-host)--><g class="link" data-entity-1="ent0062" data-entity-2="ent0036" data-link-type="dependency" data-source-line="144" id="lnk92"><path codeLine="144" d="M316.24,367.6828 C316.24,366.3716 316.24,365.0225 316.24,363.6376 C316.24,358.0978 316.24,351.9834 316.24,345.4155 C316.24,319.1439 316.24,285.617 316.24,252.5908 C316.24,186.5383 316.24,122.4883 316.24,122.4883 C316.24,122.4883 388.415,122.4883 462.2825,122.4883 C471.5159,122.4883 480.7758,122.4883 489.9245,122.4883 C494.4988,122.4883 494.0454,122.4883 498.5469,122.4883" fill="none" id="lean-cli-to-runtime/p2p (lean-p2p-host)" style="stroke:#181818;stroke-width:1;stroke-dasharray:7,7;"/><polygon fill="#181818" points="503.5469,122.4883,494.5469,118.4883,498.5469,122.4883,494.5469,126.4883,503.5469,122.4883" style="stroke:#181818;stroke-width:1;stroke-linejoin:miter;stroke-miterlimit:10;"/></g><!--link lean-cli to observability (lean-observability)--><g class="link" data-entity-1="ent0062" data-entity-2="ent0057" data-link-type="dependency" data-source-line="145" id="lnk93"><path codeLine="145" d="M365.283,413.4883 C374.365,413.4883 384.0525,413.4883 393.74,413.4883 C432.49,413.4883 471.24,413.4883 471.24,413.4883 C471.24,413.4883 471.24,1071.4883 471.24,1071.4883 C471.24,1071.4883 473.3714,1071.4883 477.1222,1071.4883 C478.9976,1071.4883 481.2778,1071.4883 483.8989,1071.4883 C485.2094,1071.4883 486.6052,1071.4883 488.0781,1071.4883 C488.8146,1071.4883 484.5704,1071.4883 485.3445,1071.4883" fill="none" id="lean-cli-to-observability (lean-observability)" style="stroke:#181818;stroke-width:1;stroke-dasharray:7,7;"/><polygon fill="#181818" points="490.3445,1071.4883,481.3445,1067.4883,485.3445,1071.4883,481.3445,1075.4883,490.3445,1071.4883" style="stroke:#181818;stroke-width:1;stroke-linejoin:miter;stroke-miterlimit:10;"/></g><!--link bin/lean-rust to lean-cli--><g class="link" data-entity-1="ent0064" data-entity-2="ent0062" data-link-type="dependency" data-source-line="146" id="lnk94"><path codeLine="146" d="M96.24,455.4716 C96.24,455.3204 96.24,455.169 96.24,455.0172 C96.24,453.8032 96.24,452.5699 96.24,451.3218 C96.24,446.3293 96.24,441.1005 96.24,435.9295 C96.24,415.2458 96.24,395.4883 96.24,395.4883 C96.24,395.4883 147.855,395.4883 201.0825,395.4883 C214.3894,395.4883 227.797,395.4883 240.5242,395.4883 C246.8878,395.4883 253.0812,395.4883 259.0069,395.4883 C260.4883,395.4883 261.953,395.4883 263.3994,395.4883 C264.1226,395.4883 264.8412,395.4883 265.5551,395.4883 C265.912,395.4883 261.2678,395.4883 261.6223,395.4883" fill="none" id="bin/lean-rust-to-lean-cli" style="stroke:#181818;stroke-width:1;stroke-dasharray:7,7;"/><polygon fill="#181818" points="266.6223,395.4883,257.6223,391.4883,261.6223,395.4883,257.6223,399.4883,266.6223,395.4883" style="stroke:#181818;stroke-width:1;stroke-linejoin:miter;stroke-miterlimit:10;"/></g><!--link bin/lean-rust to node--><g class="link" data-entity-1="ent0064" data-entity-2="ent0060" data-link-type="dependency" data-source-line="147" id="lnk95"><path codeLine="147" d="M154.4054,482.1583 C154.7783,482.1583 155.1522,482.1583 155.527,482.1583 C156.2768,482.1583 157.0305,482.1583 157.788,482.1583 C159.3031,482.1583 160.8334,482.1583 162.3775,482.1583 C165.4655,482.1583 168.6083,482.1583 171.7937,482.1583 C184.5353,482.1583 197.9581,482.1583 211.28,482.1583 C264.5675,482.1583 316.24,482.1583 316.24,482.1583 C316.24,482.1583 316.24,501.9908 316.24,522.7533 C316.24,527.9439 316.24,533.1927 316.24,538.2042 C316.24,539.4571 316.24,540.6951 316.24,541.9137 C316.24,542.0661 316.24,537.2181 316.24,537.3698" fill="none" id="bin/lean-rust-to-node" style="stroke:#181818;stroke-width:1;stroke-dasharray:7,7;"/><polygon fill="#181818" points="316.24,542.3698,320.24,533.3698,316.24,537.3698,312.24,533.3698,316.24,542.3698" style="stroke:#181818;stroke-width:1;stroke-linejoin:miter;stroke-miterlimit:10;"/></g><?plantuml-src fLRDRXit4BxpAGZtqFgWs4YD8WdG095arGKSmx22t2dkI4jenM79aOrD4I0FaIViavJS7sd9tPKTP4_aDp_yPZWpN59K02z0w8dTE-B_VVlE_ofm9Ge-AuHp_8BFh23WSp2WCz2ov7CbDbRi67DRfOtmIsw4t8eDBAdqtYn84dfJG4UXK1geDC3HKeuTWSj5XazAR_XQ50vO0MlYXDogJKuyKy6PGitOhtpYFtuhIh3l-1ntGcdFRYv8L1BMSE1daUoC_xAuMhnTNF5_6US7dS35dLKOvxAAT5eIkDzVfyZLvULb5nDEkNjKchgWpw9o0VdQFSIvB-qHNX_iMaZWrrfY1WauXmDOUrowBzVMearTIjHhjOc9pogiqloQvkdU8g748jmZQWVQxLsIhY6LEcj_BAPnraoZ6f-_L1iDsRH0kUtcP6W_nQnCiHiG6TXkF3d8hKbItB8SpCeQxLRcg2J4pCwMXDPZml65hDOTuU9WTFJPorym2aV4AMlGaANfuarQMwwLfbVVeTDuI3bzX1tQCaL3XlxMQ-pclBO_mVmEwCb763eh9dyKrFnzTyJyzT7ojseoFFakF4_kd0JjNNgLRbe-8D83_BC7HwDIPqATTSH7IeFNQ_UQr0ukp6lJCFAhIOwE4bPpUFJaRp0w-nCQ9K-ud5WZOpSFHju8dHLWtN1k7sfhtp5Bi8--WjAUwYlK7JLDEwhb8VsDDx65PHBNNJmSmhRJz4FkyZ016tzXVPusHashgiLPK6Y0g0q3h8LnETBOGQxKiZadBDDZRX5DNUzU63PZVh8zAP_5sbEzINpTxrT-nkRHfBX5AGe_6Gowzgu6V0kZ6iT-bNYz8JBzq0C2QL_DB3etaNkYVaz5id3LR_jF3guyoKUnKeMYiY4KOGcrps1Nw3m-N8CVZ2cK5E5nz6LshScM2Qa1ZK1juUimeQPzGOra-qCc346l9UlAAbJo4XKgLLmfVN7ulOYrF_hwEiRsf__yhqLuxxciqrdzU6JjZqTL7sI5zZbHZy0XstW4Tue8ilFAdjNF8t_rwZslNdZcd-3Ehds_AiYBOg0sPiV7f49R5TQCzHWS7PQH5ZlPc45rV10yRziGUrxn6DaB28q4rebbk6VZQFhUsOdPyREslKoC7F5yR8TtuQJ-wPSfYgPr-2Cs9seXdMa_OzTcZOKnyFmTzBK62s50RoZY0RM4un2jNe2iCv5Um6rCUv1Xglo2GSxIkLSP7lmCYaEOx7y0?></g></svg>