<svg xmlns="http://www.w3.org/2000/svg" xmlns:xlink="http://www.w3.org/1999/xlink" contentStyleType="text/css" data-diagram-type="SEQUENCE" height="688px" preserveAspectRatio="none" style="width:1056px;height:688px;background:#FFFFFF;" version="1.1" viewBox="0 0 1056 688" width="1056px" zoomAndPan="magnify"><?plantuml 1.2026.6?><defs/><g><g class="title" data-source-line="1"><text fill="#000000" font-family="sans-serif" font-size="14" font-weight="700" lengthAdjust="spacing" textLength="364.0479" x="342.5618" y="28.5352">Protocol &#8212; State transition (State::state_transition)</text></g><g><title>State .self.</title><rect fill="#FFFFFF" height="437.3477" style="stroke:#181818;stroke-width:1;" width="10" x="371.5073" y="150.2871"/></g><g><title>State .next clone.</title><rect fill="#FFFFFF" height="81.6211" style="stroke:#181818;stroke-width:1;" width="10" x="694.9497" y="208.9082"/></g><rect fill="none" height="59.6211" style="stroke:#000000;stroke-width:1.5;" width="233.021" x="623.8872" y="223.9082"/><rect fill="none" height="118.2422" style="stroke:#000000;stroke-width:1.5;" width="452.1099" x="323.9023" y="398.7715"/><g class="participant-lifeline" data-entity-uid="part1" data-qualified-name="Caller" data-source-line="3" id="part1-lifeline"><g><title>Caller</title><rect fill="#000000" fill-opacity="0.00000" height="486.6582" width="8" x="23.52" y="118.9766"/><line style="stroke:#181818;stroke-width:0.5;stroke-dasharray:5,5;" x1="27" x2="27" y1="118.9766" y2="605.6348"/></g></g><g class="participant-lifeline" data-entity-uid="part2" data-qualified-name="Self" data-source-line="4" id="part2-lifeline"><g><title>State .self.</title><rect fill="#000000" fill-opacity="0.00000" height="486.6582" width="8" x="372.5073" y="118.9766"/><line style="stroke:#181818;stroke-width:0.5;stroke-dasharray:5,5;" x1="375.9023" x2="375.9023" y1="118.9766" y2="605.6348"/></g></g><g class="participant-lifeline" data-entity-uid="part3" data-qualified-name="Next" data-source-line="5" id="part3-lifeline"><g><title>State .next clone.</title><rect fill="#000000" fill-opacity="0.00000" height="486.6582" width="8" x="695.9497" y="118.9766"/><line style="stroke:#181818;stroke-width:0.5;stroke-dasharray:5,5;" x1="699.8872" x2="699.8872" y1="118.9766" y2="605.6348"/></g></g><g class="participant participant-head" data-entity-uid="part1" data-qualified-name="Caller" data-source-line="3" id="part1-head"><text fill="#000000" font-family="sans-serif" font-size="14" lengthAdjust="spacing" textLength="39.04" x="5" y="116.0234">Caller</text><ellipse cx="27.52" cy="50.9883" fill="#E2E2F0" rx="8" ry="8" style="stroke:#181818;stroke-width:0.5;"/><path d="M27.52,58.9883 L27.52,85.9883 M14.52,66.9883 L40.52,66.9883 M27.52,85.9883 L14.52,100.9883 M27.52,85.9883 L40.52,100.9883" fill="none" style="stroke:#181818;stroke-width:0.5;"/></g><g class="participant participant-tail" data-entity-uid="part1" data-qualified-name="Caller" data-source-line="3" id="part1-tail"><text fill="#000000" font-family="sans-serif" font-size="14" lengthAdjust="spacing" textLength="39.04" x="5" y="618.1699">Caller</text><ellipse cx="27.52" cy="629.623" fill="#E2E2F0" rx="8" ry="8" style="stroke:#181818;stroke-width:0.5;"/><path d="M27.52,637.623 L27.52,664.623 M14.52,645.623 L40.52,645.623 M27.52,664.623 L14.52,679.623 M27.52,664.623 L40.52,679.623" fill="none" style="stroke:#181818;stroke-width:0.5;"/></g><g class="participant participant-head" data-entity-uid="part2" data-qualified-name="Self" data-source-line="4" id="part2-head"><rect fill="#E2E2F0" height="30.4883" rx="2.5" ry="2.5" style="stroke:#181818;stroke-width:0.5;" width="85.21" x="333.9023" y="87.4883"/><text fill="#000000" font-family="sans-serif" font-size="14" lengthAdjust="spacing" textLength="71.21" x="340.9023" y="108.0234">State (self)</text></g><g class="participant participant-tail" data-entity-uid="part2" data-qualified-name="Self" data-source-line="4" id="part2-tail"><rect fill="#E2E2F0" height="30.4883" rx="2.5" ry="2.5" style="stroke:#181818;stroke-width:0.5;" width="85.21" x="333.9023" y="604.6348"/><text fill="#000000" font-family="sans-serif" font-size="14" lengthAdjust="spacing" textLength="71.21" x="340.9023" y="625.1699">State (self)</text></g><g class="participant participant-head" data-entity-uid="part3" data-qualified-name="Next" data-source-line="5" id="part3-head"><rect fill="#E2E2F0" height="30.4883" rx="2.5" ry="2.5" style="stroke:#181818;stroke-width:0.5;" width="132.125" x="633.8872" y="87.4883"/><text fill="#000000" font-family="sans-serif" font-size="14" lengthAdjust="spacing" textLength="118.125" x="640.8872" y="108.0234">State (next clone)</text></g><g class="participant participant-tail" data-entity-uid="part3" data-qualified-name="Next" data-source-line="5" id="part3-tail"><rect fill="#E2E2F0" height="30.4883" rx="2.5" ry="2.5" style="stroke:#181818;stroke-width:0.5;" width="132.125" x="633.8872" y="604.6348"/><text fill="#000000" font-family="sans-serif" font-size="14" lengthAdjust="spacing" textLength="118.125" x="640.8872" y="625.1699">State (next clone)</text></g><g><title>State .self.</title><rect fill="#FFFFFF" height="437.3477" style="stroke:#181818;stroke-width:1;" width="10" x="371.5073" y="150.2871"/></g><g><title>State .next clone.</title><rect fill="#FFFFFF" height="81.6211" style="stroke:#181818;stroke-width:1;" width="10" x="694.9497" y="208.9082"/></g><g class="message" data-entity-1="part1" data-entity-2="part2" data-source-line="7" id="msg1"><polygon fill="#181818" points="359.5073,146.2871,369.5073,150.2871,359.5073,154.2871,363.5073,150.2871" style="stroke:#181818;stroke-width:1;stroke-linejoin:miter;stroke-miterlimit:10;"/><line style="stroke:#181818;stroke-width:1;" x1="27.52" x2="365.5073" y1="150.2871" y2="150.2871"/><text fill="#000000" font-family="sans-serif" font-size="13" lengthAdjust="spacing" textLength="324.9873" x="34.52" y="145.5449">state_transition(&amp;signed_block, validate_state_root)</text></g><g class="message" data-entity-1="part2" data-entity-2="part3" data-source-line="9" id="msg2"><polygon fill="#181818" points="687.9497,175.5977,697.9497,179.5977,687.9497,183.5977,691.9497,179.5977" style="stroke:#181818;stroke-width:1;stroke-linejoin:miter;stroke-miterlimit:10;"/><line style="stroke:#181818;stroke-width:1;" x1="381.5073" x2="693.9497" y1="179.5977" y2="179.5977"/><text fill="#000000" font-family="sans-serif" font-size="13" lengthAdjust="spacing" textLength="42.1675" x="388.5073" y="174.8555">clone()</text></g><g class="message" data-entity-1="part2" data-entity-2="part3" data-source-line="10" id="msg3"><polygon fill="#181818" points="682.9497,204.9082,692.9497,208.9082,682.9497,212.9082,686.9497,208.9082" style="stroke:#181818;stroke-width:1;stroke-linejoin:miter;stroke-miterlimit:10;"/><line style="stroke:#181818;stroke-width:1;" x1="381.5073" x2="688.9497" y1="208.9082" y2="208.9082"/><text fill="#000000" font-family="sans-serif" font-size="13" lengthAdjust="spacing" textLength="154.9844" x="388.5073" y="204.166">process_slots(block.slot)</text></g><path d="M623.8872,223.9082 L698.334,223.9082 L698.334,231.2188 L688.334,241.2188 L623.8872,241.2188 L623.8872,223.9082" fill="#EEEEEE" style="stroke:#000000;stroke-width:1.5;"/><rect fill="none" height="59.6211" style="stroke:#000000;stroke-width:1.5;" width="233.021" x="623.8872" y="223.9082"/><text fill="#000000" font-family="sans-serif" font-size="13" font-weight="700" lengthAdjust="spacing" textLength="29.4468" x="638.8872" y="237.4766">loop</text><text fill="#000000" font-family="sans-serif" font-size="11" font-weight="700" lengthAdjust="spacing" textLength="138.5742" x="713.334" y="236.543">[until slot == block.slot]</text><g class="message" data-entity-1="part3" data-entity-2="part3" data-source-line="13" id="msg4"><line style="stroke:#181818;stroke-width:1;" x1="704.9497" x2="746.9497" y1="262.5293" y2="262.5293"/><line style="stroke:#181818;stroke-width:1;" x1="746.9497" x2="746.9497" y1="262.5293" y2="275.5293"/><line style="stroke:#181818;stroke-width:1;" x1="705.9497" x2="746.9497" y1="275.5293" y2="275.5293"/><polygon fill="#181818" points="715.9497,271.5293,705.9497,275.5293,715.9497,279.5293,711.9497,275.5293" style="stroke:#181818;stroke-width:1;stroke-linejoin:miter;stroke-miterlimit:10;"/><text fill="#000000" font-family="sans-serif" font-size="13" lengthAdjust="spacing" textLength="86.8296" x="711.9497" y="257.7871">process_slot()</text></g><g class="message" data-entity-1="part2" data-entity-2="part3" data-source-line="16" id="msg5"><polygon fill="#181818" points="687.9497,318.4951,697.9497,322.4951,687.9497,326.4951,691.9497,322.4951" style="stroke:#181818;stroke-width:1;stroke-linejoin:miter;stroke-miterlimit:10;"/><line style="stroke:#181818;stroke-width:1;" x1="381.5073" x2="693.9497" y1="322.4951" y2="322.4951"/><text fill="#000000" font-family="sans-serif" font-size="13" lengthAdjust="spacing" textLength="190.7598" x="388.5073" y="317.7529">process_block_header(&amp;block)</text></g><path d="M704,295.5293 L704,335.5293 L1039,335.5293 L1039,305.5293 L1029,295.5293 L704,295.5293" fill="#FEFFDD" style="stroke:#181818;stroke-width:0.5;"/><path d="M1029,295.5293 L1029,305.5293 L1039,305.5293 L1029,295.5293" fill="#FEFFDD" style="stroke:#181818;stroke-width:0.5;"/><text fill="#000000" font-family="sans-serif" font-size="13" lengthAdjust="spacing" textLength="314.1836" x="710" y="313.0977">validate proposer, parent_root, slot monotonicity;</text><text fill="#000000" font-family="sans-serif" font-size="13" lengthAdjust="spacing" textLength="275.5645" x="710" y="328.4082">append history; update latest_block_header</text><g class="message" data-entity-1="part2" data-entity-2="part3" data-source-line="18" id="msg7"><polygon fill="#181818" points="687.9497,369.1162,697.9497,373.1162,687.9497,377.1162,691.9497,373.1162" style="stroke:#181818;stroke-width:1;stroke-linejoin:miter;stroke-miterlimit:10;"/><line style="stroke:#181818;stroke-width:1;" x1="381.5073" x2="693.9497" y1="373.1162" y2="373.1162"/><text fill="#000000" font-family="sans-serif" font-size="13" lengthAdjust="spacing" textLength="294.4424" x="388.5073" y="368.374">process_attestations(&amp;block.body.attestations)</text></g><path d="M704,346.1504 L704,386.1504 L1039,386.1504 L1039,356.1504 L1029,346.1504 L704,346.1504" fill="#FEFFDD" style="stroke:#181818;stroke-width:0.5;"/><path d="M1029,346.1504 L1029,356.1504 L1039,356.1504 L1029,346.1504" fill="#FEFFDD" style="stroke:#181818;stroke-width:0.5;"/><text fill="#000000" font-family="sans-serif" font-size="13" lengthAdjust="spacing" textLength="182.3936" x="710" y="363.7188">tally votes per target; update</text><text fill="#000000" font-family="sans-serif" font-size="13" lengthAdjust="spacing" textLength="314.2217" x="710" y="379.0293">latest_justified / latest_finalized on supermajority</text><path d="M323.9023,398.7715 L386.041,398.7715 L386.041,406.082 L376.041,416.082 L323.9023,416.082 L323.9023,398.7715" fill="#EEEEEE" style="stroke:#000000;stroke-width:1.5;"/><rect fill="none" height="118.2422" style="stroke:#000000;stroke-width:1.5;" width="452.1099" x="323.9023" y="398.7715"/><text fill="#000000" font-family="sans-serif" font-size="13" font-weight="700" lengthAdjust="spacing" textLength="17.1387" x="338.9023" y="412.3398">alt</text><text fill="#000000" font-family="sans-serif" font-size="11" font-weight="700" lengthAdjust="spacing" textLength="163.394" x="401.041" y="411.4063">[validate_state_root == true]</text><g class="message" data-entity-1="part2" data-entity-2="part3" data-source-line="21" id="msg9"><polygon fill="#181818" points="687.9497,433.3926,697.9497,437.3926,687.9497,441.3926,691.9497,437.3926" style="stroke:#181818;stroke-width:1;stroke-linejoin:miter;stroke-miterlimit:10;"/><line style="stroke:#181818;stroke-width:1;" x1="381.5073" x2="693.9497" y1="437.3926" y2="437.3926"/><text fill="#000000" font-family="sans-serif" font-size="13" lengthAdjust="spacing" textLength="102.2163" x="388.5073" y="432.6504">hash_tree_root()</text></g><g class="message" data-entity-1="part3" data-entity-2="part2" data-source-line="22" id="msg10"><polygon fill="#181818" points="392.5073,462.7031,382.5073,466.7031,392.5073,470.7031,388.5073,466.7031" style="stroke:#181818;stroke-width:1;stroke-linejoin:miter;stroke-miterlimit:10;"/><line style="stroke:#181818;stroke-width:1;stroke-dasharray:2,2;" x1="386.5073" x2="698.9497" y1="466.7031" y2="466.7031"/><text fill="#000000" font-family="sans-serif" font-size="13" lengthAdjust="spacing" textLength="26.1523" x="398.5073" y="461.9609">root</text></g><g class="message" data-entity-1="part2" data-entity-2="part2" data-source-line="23" id="msg11"><line style="stroke:#181818;stroke-width:1;" x1="381.5073" x2="423.5073" y1="496.0137" y2="496.0137"/><line style="stroke:#181818;stroke-width:1;" x1="423.5073" x2="423.5073" y1="496.0137" y2="509.0137"/><line style="stroke:#181818;stroke-width:1;" x1="382.5073" x2="423.5073" y1="509.0137" y2="509.0137"/><polygon fill="#181818" points="392.5073,505.0137,382.5073,509.0137,392.5073,513.0137,388.5073,509.0137" style="stroke:#181818;stroke-width:1;stroke-linejoin:miter;stroke-miterlimit:10;"/><text fill="#000000" font-family="sans-serif" font-size="13" lengthAdjust="spacing" textLength="198.7388" x="388.5073" y="491.2715">assert root == block.state_root</text></g><g class="message" data-entity-1="part2" data-entity-2="part2" data-source-line="25" id="msg12"><line style="stroke:#181818;stroke-width:1;" x1="381.5073" x2="423.5073" y1="545.3242" y2="545.3242"/><line style="stroke:#181818;stroke-width:1;" x1="423.5073" x2="423.5073" y1="545.3242" y2="558.3242"/><line style="stroke:#181818;stroke-width:1;" x1="382.5073" x2="423.5073" y1="558.3242" y2="558.3242"/><polygon fill="#181818" points="392.5073,554.3242,382.5073,558.3242,392.5073,562.3242,388.5073,558.3242" style="stroke:#181818;stroke-width:1;stroke-linejoin:miter;stroke-miterlimit:10;"/><text fill="#000000" font-family="sans-serif" font-size="13" lengthAdjust="spacing" textLength="135.1035" x="388.5073" y="540.582">commit next into self</text></g><g class="message" data-entity-1="part2" data-entity-2="part1" data-source-line="26" id="msg13"><polygon fill="#181818" points="38.52,583.6348,28.52,587.6348,38.52,591.6348,34.52,587.6348" style="stroke:#181818;stroke-width:1;stroke-linejoin:miter;stroke-miterlimit:10;"/><line style="stroke:#181818;stroke-width:1;stroke-dasharray:2,2;" x1="32.52" x2="375.5073" y1="587.6348" y2="587.6348"/><text fill="#000000" font-family="sans-serif" font-size="13" lengthAdjust="spacing" textLength="199.8115" x="44.52" y="582.8926">Ok(()) | Err(StateTransitionError)</text></g><?plantuml-src TLF1JkCm4BtxAqOSK29roxs8lQouiaXmHAfCCcqChiVoJ2gwsWCVmHVkb-pOIMY9oYM9npFlFVkzY1EFS9z8g24F_zu_u46i84YoWPqu2b2Loch5-RK-RjJ6s4OemI_hFIOJRHBNk6Y3mCM0KZ7wJNq1bk51lyws17mJQ3m571hlT6tCW0a_VfP1MC6SlRfajmtOhfyzDQyBs5llsjmoD2OYgRC-jyyiXRqWAM9cKCJ2MTNpSapK8FEQFGbN1NsPlq_GYaHF5A4FuZpaRRYvWMEpWG7kFAoIOcXDYryHln5IKDSTsXPJTLbMjGcaKybjkzmvdJsFH69C2z2RnY3b6XQ3lXtf30MzVZbSFmKResg0ph5QUBY6FXO4hm-MBvpVwRAIMsqsWqTTosTg3ylJZPbIKLiFiDSIGrH_nQOjoiJ-54Rwbvx5RHosS3KfshYWf_oZ9Oqazpgyio-Kz336UZbdVtP4Ke_gnUm4dULEeuH3dxenkNMCMzuu6HohblLo1IRqqUzFnkBgRAIXtSu9b9Ix80HyZA9sZJbVmU_Nggfh-0ktAGr_tEDdrhL4gJxDIydpVm00?></g></svg>