<svg xmlns="http://www.w3.org/2000/svg" xmlns:xlink="http://www.w3.org/1999/xlink" contentStyleType="text/css" data-diagram-type="SEQUENCE" height="918px" preserveAspectRatio="none" style="width:722px;height:918px;background:#FFFFFF;" version="1.1" viewBox="0 0 722 918" width="722px" zoomAndPan="magnify"><?plantuml 1.2026.6?><defs/><g><g class="title" data-source-line="1"><text fill="#000000" font-family="sans-serif" font-size="14" font-weight="700" lengthAdjust="spacing" textLength="375.4365" x="169.9688" y="28.5352">Runtime &#8212; Node startup / service wiring + lifecycle</text></g><g><title>Node</title><rect fill="#FFFFFF" height="367.416" style="stroke:#181818;stroke-width:1;" width="10" x="146.7769" y="179.2188"/></g><g><title>Node</title><rect fill="#FFFFFF" height="231.4844" style="stroke:#181818;stroke-width:1;" width="10" x="146.7769" y="631.9004"/></g><rect fill="none" height="101.9316" style="stroke:#000000;stroke-width:1.5;" width="272.543" x="117" y="410.3926"/><g class="participant-lifeline" data-entity-uid="part1" data-qualified-name="Node" data-source-line="3" id="part1-lifeline"><g><title>Node</title><rect fill="#000000" fill-opacity="0.00000" height="487.6582" width="8" x="147.7769" y="73.9766"/><line style="stroke:#181818;stroke-width:0.5;stroke-dasharray:5,5;" x1="151" x2="151" y1="73.9766" y2="561.6348"/></g><line style="stroke:#181818;stroke-width:0.5;stroke-dasharray:1,4;" x1="151" x2="151" y1="561.6348" y2="602.5898"/><g><title>Node</title><rect fill="#000000" fill-opacity="0.00000" height="278.7949" width="8" x="147.7769" y="602.5898"/><line style="stroke:#181818;stroke-width:0.5;stroke-dasharray:5,5;" x1="151" x2="151" y1="602.5898" y2="881.3848"/></g></g><g class="participant-lifeline" data-entity-uid="part2" data-qualified-name="Chain" data-source-line="4" id="part2-lifeline"><g><title>chain</title><rect fill="#000000" fill-opacity="0.00000" height="487.6582" width="8" x="385.543" y="73.9766"/><line style="stroke:#181818;stroke-width:0.5;stroke-dasharray:5,5;" x1="389.3799" x2="389.3799" y1="73.9766" y2="561.6348"/></g><line style="stroke:#181818;stroke-width:0.5;stroke-dasharray:1,4;" x1="389.3799" x2="389.3799" y1="561.6348" y2="602.5898"/><g><title>chain</title><rect fill="#000000" fill-opacity="0.00000" height="278.7949" width="8" x="385.543" y="602.5898"/><line style="stroke:#181818;stroke-width:0.5;stroke-dasharray:5,5;" x1="389.3799" x2="389.3799" y1="602.5898" y2="881.3848"/></g></g><g class="participant-lifeline" data-entity-uid="part3" data-qualified-name="P2p" data-source-line="5" id="part3-lifeline"><g><title>p2p</title><rect fill="#000000" fill-opacity="0.00000" height="487.6582" width="8" x="440.9438" y="73.9766"/><line style="stroke:#181818;stroke-width:0.5;stroke-dasharray:5,5;" x1="444.7061" x2="444.7061" y1="73.9766" y2="561.6348"/></g><line style="stroke:#181818;stroke-width:0.5;stroke-dasharray:1,4;" x1="444.7061" x2="444.7061" y1="561.6348" y2="602.5898"/><g><title>p2p</title><rect fill="#000000" fill-opacity="0.00000" height="278.7949" width="8" x="440.9438" y="602.5898"/><line style="stroke:#181818;stroke-width:0.5;stroke-dasharray:5,5;" x1="444.7061" x2="444.7061" y1="602.5898" y2="881.3848"/></g></g><g class="participant-lifeline" data-entity-uid="part4" data-qualified-name="Sync" data-source-line="6" id="part4-lifeline"><g><title>sync</title><rect fill="#000000" fill-opacity="0.00000" height="487.6582" width="8" x="493.3369" y="73.9766"/><line style="stroke:#181818;stroke-width:0.5;stroke-dasharray:5,5;" x1="497.1816" x2="497.1816" y1="73.9766" y2="561.6348"/></g><line style="stroke:#181818;stroke-width:0.5;stroke-dasharray:1,4;" x1="497.1816" x2="497.1816" y1="561.6348" y2="602.5898"/><g><title>sync</title><rect fill="#000000" fill-opacity="0.00000" height="278.7949" width="8" x="493.3369" y="602.5898"/><line style="stroke:#181818;stroke-width:0.5;stroke-dasharray:5,5;" x1="497.1816" x2="497.1816" y1="602.5898" y2="881.3848"/></g></g><g class="participant-lifeline" data-entity-uid="part5" data-qualified-name="Duties" data-source-line="7" id="part5-lifeline"><g><title>duties</title><rect fill="#000000" fill-opacity="0.00000" height="487.6582" width="8" x="553.3521" y="73.9766"/><line style="stroke:#181818;stroke-width:0.5;stroke-dasharray:5,5;" x1="556.4922" x2="556.4922" y1="73.9766" y2="561.6348"/></g><line style="stroke:#181818;stroke-width:0.5;stroke-dasharray:1,4;" x1="556.4922" x2="556.4922" y1="561.6348" y2="602.5898"/><g><title>duties</title><rect fill="#000000" fill-opacity="0.00000" height="278.7949" width="8" x="553.3521" y="602.5898"/><line style="stroke:#181818;stroke-width:0.5;stroke-dasharray:5,5;" x1="556.4922" x2="556.4922" y1="602.5898" y2="881.3848"/></g></g><g class="participant-lifeline" data-entity-uid="part6" data-qualified-name="Http" data-source-line="8" id="part6-lifeline"><g><title>http</title><rect fill="#000000" fill-opacity="0.00000" height="487.6582" width="8" x="612.1982" y="73.9766"/><line style="stroke:#181818;stroke-width:0.5;stroke-dasharray:5,5;" x1="615.2119" x2="615.2119" y1="73.9766" y2="561.6348"/></g><line style="stroke:#181818;stroke-width:0.5;stroke-dasharray:1,4;" x1="615.2119" x2="615.2119" y1="561.6348" y2="602.5898"/><g><title>http</title><rect fill="#000000" fill-opacity="0.00000" height="278.7949" width="8" x="612.1982" y="602.5898"/><line style="stroke:#181818;stroke-width:0.5;stroke-dasharray:5,5;" x1="615.2119" x2="615.2119" y1="602.5898" y2="881.3848"/></g></g><g class="participant-lifeline" data-entity-uid="part7" data-qualified-name="Metrics" data-source-line="9" id="part7-lifeline"><g><title>metrics</title><rect fill="#000000" fill-opacity="0.00000" height="487.6582" width="8" x="675.2793" y="73.9766"/><line style="stroke:#181818;stroke-width:0.5;stroke-dasharray:5,5;" x1="679.1846" x2="679.1846" y1="73.9766" y2="561.6348"/></g><line style="stroke:#181818;stroke-width:0.5;stroke-dasharray:1,4;" x1="679.1846" x2="679.1846" y1="561.6348" y2="602.5898"/><g><title>metrics</title><rect fill="#000000" fill-opacity="0.00000" height="278.7949" width="8" x="675.2793" y="602.5898"/><line style="stroke:#181818;stroke-width:0.5;stroke-dasharray:5,5;" x1="679.1846" x2="679.1846" y1="602.5898" y2="881.3848"/></g></g><g class="participant participant-head" data-entity-uid="part1" data-qualified-name="Node" data-source-line="3" id="part1-head"><rect fill="#E2E2F0" height="30.4883" rx="2.5" ry="2.5" style="stroke:#181818;stroke-width:0.5;" width="49.5537" x="127" y="42.4883"/><text fill="#000000" font-family="sans-serif" font-size="14" lengthAdjust="spacing" textLength="35.5537" x="134" y="63.0234">Node</text></g><g class="participant participant-tail" data-entity-uid="part1" data-qualified-name="Node" data-source-line="3" id="part1-tail"><rect fill="#E2E2F0" height="30.4883" rx="2.5" ry="2.5" style="stroke:#181818;stroke-width:0.5;" width="49.5537" x="127" y="880.3848"/><text fill="#000000" font-family="sans-serif" font-size="14" lengthAdjust="spacing" textLength="35.5537" x="134" y="900.9199">Node</text></g><g class="participant participant-head" data-entity-uid="part2" data-qualified-name="Chain" data-source-line="4" id="part2-head"><rect fill="#E2E2F0" height="30.4883" rx="2.5" ry="2.5" style="stroke:#181818;stroke-width:0.5;" width="50.3262" x="364.3799" y="42.4883"/><text fill="#000000" font-family="sans-serif" font-size="14" lengthAdjust="spacing" textLength="36.3262" x="371.3799" y="63.0234">chain</text></g><g class="participant participant-tail" data-entity-uid="part2" data-qualified-name="Chain" data-source-line="4" id="part2-tail"><rect fill="#E2E2F0" height="30.4883" rx="2.5" ry="2.5" style="stroke:#181818;stroke-width:0.5;" width="50.3262" x="364.3799" y="880.3848"/><text fill="#000000" font-family="sans-serif" font-size="14" lengthAdjust="spacing" textLength="36.3262" x="371.3799" y="900.9199">chain</text></g><g class="participant participant-head" data-entity-uid="part3" data-qualified-name="P2p" data-source-line="5" id="part3-head"><rect fill="#E2E2F0" height="30.4883" rx="2.5" ry="2.5" style="stroke:#181818;stroke-width:0.5;" width="40.4756" x="424.7061" y="42.4883"/><text fill="#000000" font-family="sans-serif" font-size="14" lengthAdjust="spacing" textLength="26.4756" x="431.7061" y="63.0234">p2p</text></g><g class="participant participant-tail" data-entity-uid="part3" data-qualified-name="P2p" data-source-line="5" id="part3-tail"><rect fill="#E2E2F0" height="30.4883" rx="2.5" ry="2.5" style="stroke:#181818;stroke-width:0.5;" width="40.4756" x="424.7061" y="880.3848"/><text fill="#000000" font-family="sans-serif" font-size="14" lengthAdjust="spacing" textLength="26.4756" x="431.7061" y="900.9199">p2p</text></g><g class="participant participant-head" data-entity-uid="part4" data-qualified-name="Sync" data-source-line="6" id="part4-head"><rect fill="#E2E2F0" height="30.4883" rx="2.5" ry="2.5" style="stroke:#181818;stroke-width:0.5;" width="44.3105" x="475.1816" y="42.4883"/><text fill="#000000" font-family="sans-serif" font-size="14" lengthAdjust="spacing" textLength="30.3105" x="482.1816" y="63.0234">sync</text></g><g class="participant participant-tail" data-entity-uid="part4" data-qualified-name="Sync" data-source-line="6" id="part4-tail"><rect fill="#E2E2F0" height="30.4883" rx="2.5" ry="2.5" style="stroke:#181818;stroke-width:0.5;" width="44.3105" x="475.1816" y="880.3848"/><text fill="#000000" font-family="sans-serif" font-size="14" lengthAdjust="spacing" textLength="30.3105" x="482.1816" y="900.9199">sync</text></g><g class="participant participant-head" data-entity-uid="part5" data-qualified-name="Duties" data-source-line="7" id="part5-head"><rect fill="#E2E2F0" height="30.4883" rx="2.5" ry="2.5" style="stroke:#181818;stroke-width:0.5;" width="55.7197" x="529.4922" y="42.4883"/><text fill="#000000" font-family="sans-serif" font-size="14" lengthAdjust="spacing" textLength="41.7197" x="536.4922" y="63.0234">duties</text></g><g class="participant participant-tail" data-entity-uid="part5" data-qualified-name="Duties" data-source-line="7" id="part5-tail"><rect fill="#E2E2F0" height="30.4883" rx="2.5" ry="2.5" style="stroke:#181818;stroke-width:0.5;" width="55.7197" x="529.4922" y="880.3848"/><text fill="#000000" font-family="sans-serif" font-size="14" lengthAdjust="spacing" textLength="41.7197" x="536.4922" y="900.9199">duties</text></g><g class="participant participant-head" data-entity-uid="part6" data-qualified-name="Http" data-source-line="8" id="part6-head"><rect fill="#E2E2F0" height="30.4883" rx="2.5" ry="2.5" style="stroke:#181818;stroke-width:0.5;" width="41.9727" x="595.2119" y="42.4883"/><text fill="#000000" font-family="sans-serif" font-size="14" lengthAdjust="spacing" textLength="27.9727" x="602.2119" y="63.0234">http</text></g><g class="participant participant-tail" data-entity-uid="part6" data-qualified-name="Http" data-source-line="8" id="part6-tail"><rect fill="#E2E2F0" height="30.4883" rx="2.5" ry="2.5" style="stroke:#181818;stroke-width:0.5;" width="41.9727" x="595.2119" y="880.3848"/><text fill="#000000" font-family="sans-serif" font-size="14" lengthAdjust="spacing" textLength="27.9727" x="602.2119" y="900.9199">http</text></g><g class="participant participant-head" data-entity-uid="part7" data-qualified-name="Metrics" data-source-line="9" id="part7-head"><rect fill="#E2E2F0" height="30.4883" rx="2.5" ry="2.5" style="stroke:#181818;stroke-width:0.5;" width="64.1895" x="647.1846" y="42.4883"/><text fill="#000000" font-family="sans-serif" font-size="14" lengthAdjust="spacing" textLength="50.1895" x="654.1846" y="63.0234">metrics</text></g><g class="participant participant-tail" data-entity-uid="part7" data-qualified-name="Metrics" data-source-line="9" id="part7-tail"><rect fill="#E2E2F0" height="30.4883" rx="2.5" ry="2.5" style="stroke:#181818;stroke-width:0.5;" width="64.1895" x="647.1846" y="880.3848"/><text fill="#000000" font-family="sans-serif" font-size="14" lengthAdjust="spacing" textLength="50.1895" x="654.1846" y="900.9199">metrics</text></g><g><title>Node</title><rect fill="#FFFFFF" height="367.416" style="stroke:#181818;stroke-width:1;" width="10" x="146.7769" y="179.2188"/></g><g><title>Node</title><rect fill="#FFFFFF" height="231.4844" style="stroke:#181818;stroke-width:1;" width="10" x="146.7769" y="631.9004"/></g><path d="M5,88.9766 L5,143.9766 L299,143.9766 L299,98.9766 L289,88.9766 L5,88.9766" fill="#FEFFDD" style="stroke:#181818;stroke-width:0.5;"/><path d="M289,88.9766 L289,98.9766 L299,98.9766 L289,88.9766" fill="#FEFFDD" style="stroke:#181818;stroke-width:0.5;"/><text fill="#000000" font-family="sans-serif" font-size="13" lengthAdjust="spacing" textLength="167.1147" x="11" y="106.5449">builder: Node::new(config)</text><text fill="#000000" font-family="sans-serif" font-size="13" lengthAdjust="spacing" textLength="248.46" x="11" y="121.8555">.with_chain(..).with_p2p(..).with_sync(..)</text><text fill="#000000" font-family="sans-serif" font-size="13" lengthAdjust="spacing" textLength="273.3174" x="11" y="137.166">.with_duties(..).with_http(..).with_metrics(..)</text><g class="message" data-entity-1="part1" data-entity-2="part1" data-source-line="13" id="msg1"><line style="stroke:#181818;stroke-width:1;" x1="151.7769" x2="198.7769" y1="166.2188" y2="166.2188"/><line style="stroke:#181818;stroke-width:1;" x1="198.7769" x2="198.7769" y1="166.2188" y2="179.2188"/><line style="stroke:#181818;stroke-width:1;" x1="157.7769" x2="198.7769" y1="179.2188" y2="179.2188"/><polygon fill="#181818" points="167.7769,175.2188,157.7769,179.2188,167.7769,183.2188,163.7769,179.2188" style="stroke:#181818;stroke-width:1;stroke-linejoin:miter;stroke-miterlimit:10;"/><text fill="#000000" font-family="sans-serif" font-size="13" lengthAdjust="spacing" textLength="37.3052" x="163.7769" y="161.4766">start()</text></g><path d="M161,197.2188 L161,222.2188 L530,222.2188 L530,207.2188 L520,197.2188 L161,197.2188" fill="#FEFFDD" style="stroke:#181818;stroke-width:0.5;"/><path d="M520,197.2188 L520,207.2188 L530,207.2188 L520,197.2188" fill="#FEFFDD" style="stroke:#181818;stroke-width:0.5;"/><text fill="#000000" font-family="sans-serif" font-size="13" lengthAdjust="spacing" textLength="348.0039" x="167" y="214.7871">SLOT_ORDER = [chain, p2p, sync, duties, http, metrics]</text><g class="message" data-entity-1="part1" data-entity-2="part2" data-source-line="16" id="msg2"><polygon fill="#181818" points="377.543,244.8398,387.543,248.8398,377.543,252.8398,381.543,248.8398" style="stroke:#181818;stroke-width:1;stroke-linejoin:miter;stroke-miterlimit:10;"/><line style="stroke:#181818;stroke-width:1;" x1="156.7769" x2="383.543" y1="248.8398" y2="248.8398"/><text fill="#000000" font-family="sans-serif" font-size="13" lengthAdjust="spacing" textLength="37.3052" x="163.7769" y="244.0977">start()</text></g><g class="message" data-entity-1="part1" data-entity-2="part3" data-source-line="17" id="msg3"><polygon fill="#181818" points="432.9438,274.1504,442.9438,278.1504,432.9438,282.1504,436.9438,278.1504" style="stroke:#181818;stroke-width:1;stroke-linejoin:miter;stroke-miterlimit:10;"/><line style="stroke:#181818;stroke-width:1;" x1="156.7769" x2="438.9438" y1="278.1504" y2="278.1504"/><text fill="#000000" font-family="sans-serif" font-size="13" lengthAdjust="spacing" textLength="37.3052" x="163.7769" y="273.4082">start()</text></g><g class="message" data-entity-1="part1" data-entity-2="part4" data-source-line="18" id="msg4"><polygon fill="#181818" points="485.3369,303.4609,495.3369,307.4609,485.3369,311.4609,489.3369,307.4609" style="stroke:#181818;stroke-width:1;stroke-linejoin:miter;stroke-miterlimit:10;"/><line style="stroke:#181818;stroke-width:1;" x1="156.7769" x2="491.3369" y1="307.4609" y2="307.4609"/><text fill="#000000" font-family="sans-serif" font-size="13" lengthAdjust="spacing" textLength="37.3052" x="163.7769" y="302.7188">start()</text></g><g class="message" data-entity-1="part1" data-entity-2="part5" data-source-line="19" id="msg5"><polygon fill="#181818" points="545.3521,332.7715,555.3521,336.7715,545.3521,340.7715,549.3521,336.7715" style="stroke:#181818;stroke-width:1;stroke-linejoin:miter;stroke-miterlimit:10;"/><line style="stroke:#181818;stroke-width:1;" x1="156.7769" x2="551.3521" y1="336.7715" y2="336.7715"/><text fill="#000000" font-family="sans-serif" font-size="13" lengthAdjust="spacing" textLength="37.3052" x="163.7769" y="332.0293">start()</text></g><g class="message" data-entity-1="part1" data-entity-2="part6" data-source-line="20" id="msg6"><polygon fill="#181818" points="604.1982,362.082,614.1982,366.082,604.1982,370.082,608.1982,366.082" style="stroke:#181818;stroke-width:1;stroke-linejoin:miter;stroke-miterlimit:10;"/><line style="stroke:#181818;stroke-width:1;" x1="156.7769" x2="610.1982" y1="366.082" y2="366.082"/><text fill="#000000" font-family="sans-serif" font-size="13" lengthAdjust="spacing" textLength="37.3052" x="163.7769" y="361.3398">start()</text></g><g class="message" data-entity-1="part1" data-entity-2="part7" data-source-line="21" id="msg7"><polygon fill="#181818" points="667.2793,391.3926,677.2793,395.3926,667.2793,399.3926,671.2793,395.3926" style="stroke:#181818;stroke-width:1;stroke-linejoin:miter;stroke-miterlimit:10;"/><line style="stroke:#181818;stroke-width:1;" x1="156.7769" x2="673.2793" y1="395.3926" y2="395.3926"/><text fill="#000000" font-family="sans-serif" font-size="13" lengthAdjust="spacing" textLength="37.3052" x="163.7769" y="390.6504">start()</text></g><path d="M117,410.3926 L179.1387,410.3926 L179.1387,417.7031 L169.1387,427.7031 L117,427.7031 L117,410.3926" fill="#EEEEEE" style="stroke:#000000;stroke-width:1.5;"/><rect fill="none" height="101.9316" style="stroke:#000000;stroke-width:1.5;" width="272.543" x="117" y="410.3926"/><text fill="#000000" font-family="sans-serif" font-size="13" font-weight="700" lengthAdjust="spacing" textLength="17.1387" x="132" y="423.9609">alt</text><text fill="#000000" font-family="sans-serif" font-size="11" font-weight="700" lengthAdjust="spacing" textLength="94.6655" x="194.1387" y="423.0273">[any start() fails]</text><g class="message" data-entity-1="part1" data-entity-2="part1" data-source-line="23" id="msg8"><line style="stroke:#181818;stroke-width:1;" x1="156.7769" x2="198.7769" y1="449.0137" y2="449.0137"/><line style="stroke:#181818;stroke-width:1;" x1="198.7769" x2="198.7769" y1="449.0137" y2="462.0137"/><line style="stroke:#181818;stroke-width:1;" x1="157.7769" x2="198.7769" y1="462.0137" y2="462.0137"/><polygon fill="#181818" points="167.7769,458.0137,157.7769,462.0137,167.7769,466.0137,163.7769,462.0137" style="stroke:#181818;stroke-width:1;stroke-linejoin:miter;stroke-miterlimit:10;"/><text fill="#000000" font-family="sans-serif" font-size="13" lengthAdjust="spacing" textLength="203.7661" x="163.7769" y="444.2715">stop_services_reverse() (unwind)</text></g><g class="message" data-entity-1="part1" data-entity-2="part1" data-source-line="24" id="msg9"><line style="stroke:#181818;stroke-width:1;stroke-dasharray:2,2;" x1="156.7769" x2="198.7769" y1="491.3242" y2="491.3242"/><line style="stroke:#181818;stroke-width:1;stroke-dasharray:2,2;" x1="198.7769" x2="198.7769" y1="491.3242" y2="504.3242"/><line style="stroke:#181818;stroke-width:1;stroke-dasharray:2,2;" x1="157.7769" x2="198.7769" y1="504.3242" y2="504.3242"/><polygon fill="#181818" points="167.7769,500.3242,157.7769,504.3242,167.7769,508.3242,163.7769,504.3242" style="stroke:#181818;stroke-width:1;stroke-linejoin:miter;stroke-miterlimit:10;"/><text fill="#000000" font-family="sans-serif" font-size="13" lengthAdjust="spacing" textLength="164.6836" x="163.7769" y="486.582">Err(NodeError::StartFailed)</text></g><g class="message" data-entity-1="part1" data-entity-2="part1" data-source-line="26" id="msg10"><line style="stroke:#181818;stroke-width:1;" x1="156.7769" x2="198.7769" y1="545.6348" y2="545.6348"/><line style="stroke:#181818;stroke-width:1;" x1="198.7769" x2="198.7769" y1="545.6348" y2="558.6348"/><line style="stroke:#181818;stroke-width:1;" x1="151.7769" x2="198.7769" y1="558.6348" y2="558.6348"/><polygon fill="#181818" points="161.7769,554.6348,151.7769,558.6348,161.7769,562.6348,157.7769,558.6348" style="stroke:#181818;stroke-width:1;stroke-linejoin:miter;stroke-miterlimit:10;"/><text fill="#000000" font-family="sans-serif" font-size="13" lengthAdjust="spacing" textLength="202.0903" x="163.7769" y="540.8926">commit started services to state</text></g><text fill="#000000" font-family="sans-serif" font-size="11" lengthAdjust="spacing" textLength="172.5303" x="329.2629" y="586.2695">node runs until shutdown signal</text><g class="message" data-entity-1="part1" data-entity-2="part1" data-source-line="31" id="msg11"><line style="stroke:#181818;stroke-width:1;" x1="151.7769" x2="198.7769" y1="618.9004" y2="618.9004"/><line style="stroke:#181818;stroke-width:1;" x1="198.7769" x2="198.7769" y1="618.9004" y2="631.9004"/><line style="stroke:#181818;stroke-width:1;" x1="157.7769" x2="198.7769" y1="631.9004" y2="631.9004"/><polygon fill="#181818" points="167.7769,627.9004,157.7769,631.9004,167.7769,635.9004,163.7769,631.9004" style="stroke:#181818;stroke-width:1;stroke-linejoin:miter;stroke-miterlimit:10;"/><text fill="#000000" font-family="sans-serif" font-size="13" lengthAdjust="spacing" textLength="36.1118" x="163.7769" y="614.1582">stop()</text></g><path d="M161,649.9004 L161,689.9004 L602,689.9004 L602,659.9004 L592,649.9004 L161,649.9004" fill="#FEFFDD" style="stroke:#181818;stroke-width:0.5;"/><path d="M592,649.9004 L592,659.9004 L602,659.9004 L592,649.9004" fill="#FEFFDD" style="stroke:#181818;stroke-width:0.5;"/><text fill="#000000" font-family="sans-serif" font-size="13" lengthAdjust="spacing" textLength="420.3037" x="167" y="667.4688">reverse order: metrics -&gt; http -&gt; duties -&gt; sync -&gt; p2p -&gt; chain</text><text fill="#000000" font-family="sans-serif" font-size="13" lengthAdjust="spacing" textLength="275.2217" x="167" y="682.7793">bounded by NodeConfig.shutdown_timeout</text><g class="message" data-entity-1="part1" data-entity-2="part7" data-source-line="34" id="msg12"><polygon fill="#181818" points="667.2793,712.832,677.2793,716.832,667.2793,720.832,671.2793,716.832" style="stroke:#181818;stroke-width:1;stroke-linejoin:miter;stroke-miterlimit:10;"/><line style="stroke:#181818;stroke-width:1;" x1="156.7769" x2="673.2793" y1="716.832" y2="716.832"/><text fill="#000000" font-family="sans-serif" font-size="13" lengthAdjust="spacing" textLength="75.6768" x="163.7769" y="712.0898">stop(cancel)</text></g><g class="message" data-entity-1="part1" data-entity-2="part6" data-source-line="35" id="msg13"><polygon fill="#181818" points="604.1982,742.1426,614.1982,746.1426,604.1982,750.1426,608.1982,746.1426" style="stroke:#181818;stroke-width:1;stroke-linejoin:miter;stroke-miterlimit:10;"/><line style="stroke:#181818;stroke-width:1;" x1="156.7769" x2="610.1982" y1="746.1426" y2="746.1426"/><text fill="#000000" font-family="sans-serif" font-size="13" lengthAdjust="spacing" textLength="75.6768" x="163.7769" y="741.4004">stop(cancel)</text></g><g class="message" data-entity-1="part1" data-entity-2="part5" data-source-line="36" id="msg14"><polygon fill="#181818" points="545.3521,771.4531,555.3521,775.4531,545.3521,779.4531,549.3521,775.4531" style="stroke:#181818;stroke-width:1;stroke-linejoin:miter;stroke-miterlimit:10;"/><line style="stroke:#181818;stroke-width:1;" x1="156.7769" x2="551.3521" y1="775.4531" y2="775.4531"/><text fill="#000000" font-family="sans-serif" font-size="13" lengthAdjust="spacing" textLength="75.6768" x="163.7769" y="770.7109">stop(cancel)</text></g><g class="message" data-entity-1="part1" data-entity-2="part4" data-source-line="37" id="msg15"><polygon fill="#181818" points="485.3369,800.7637,495.3369,804.7637,485.3369,808.7637,489.3369,804.7637" style="stroke:#181818;stroke-width:1;stroke-linejoin:miter;stroke-miterlimit:10;"/><line style="stroke:#181818;stroke-width:1;" x1="156.7769" x2="491.3369" y1="804.7637" y2="804.7637"/><text fill="#000000" font-family="sans-serif" font-size="13" lengthAdjust="spacing" textLength="75.6768" x="163.7769" y="800.0215">stop(cancel)</text></g><g class="message" data-entity-1="part1" data-entity-2="part3" data-source-line="38" id="msg16"><polygon fill="#181818" points="432.9438,830.0742,442.9438,834.0742,432.9438,838.0742,436.9438,834.0742" style="stroke:#181818;stroke-width:1;stroke-linejoin:miter;stroke-miterlimit:10;"/><line style="stroke:#181818;stroke-width:1;" x1="156.7769" x2="438.9438" y1="834.0742" y2="834.0742"/><text fill="#000000" font-family="sans-serif" font-size="13" lengthAdjust="spacing" textLength="75.6768" x="163.7769" y="829.332">stop(cancel)</text></g><g class="message" data-entity-1="part1" data-entity-2="part2" data-source-line="39" id="msg17"><polygon fill="#181818" points="377.543,859.3848,387.543,863.3848,377.543,867.3848,381.543,863.3848" style="stroke:#181818;stroke-width:1;stroke-linejoin:miter;stroke-miterlimit:10;"/><line style="stroke:#181818;stroke-width:1;" x1="151.7769" x2="383.543" y1="863.3848" y2="863.3848"/><text fill="#000000" font-family="sans-serif" font-size="13" lengthAdjust="spacing" textLength="75.6768" x="158.7769" y="858.6426">stop(cancel)</text></g><?plantuml-src ZLInZjim3Dtr5SHD3kgwm8q6skNkYWvjhqYwzGf3aPbOW4CPaXmZMp-YNzWlgIZRSNpLq4aa7qK-wj7sshS8svwyFY7y-VKRlfeQmNbfVT_1Et1epreX3DfgEi8RQFK1rKMrA4GNahJIdIGFTtpl3gIB1TQGQgIcY3smjGQx-ov2t-wxDU0kf2Ao2yOQgdklqKNmCPfhkF5-hFaf66leXDvgDLxzCjf2aF48vens7Bw4VQ_R6cqP_R8a739bwA2FcnSg1ksRAewK5SLcTCCGYyF4sPjpHxOBplGMRsB40I5Y_xSVPXvHXcmZfFBwB0F9-BQHhjN7neCvpAcxpy_Vg-VjuzCMtiEFI2-7G2i7ffF3I287Rfx3rFJdjM4KvgRZ70-g9AAiI28yQf40M8T4U1BWTj3MWwJBxCD1wjO9W7_UnNJLj9ckiXYaSnZIivu6JVNcUcEvycHjncOuZItB7JVu6AfZo4QgNx-yCgUJzYCFhEUlm84t7FCeQboB8egY0EBBjYS7_46ru9hUrsOWSFf8ieMGaz3OTFydyJGd61jtSzAGIx6eV8uYiyMYynasW8-u3o-qDptLOPpz9TPyY3jTp2mh_WUOtYVr2IIL98LjGjK4ThCA2VIwFmbithW4j2pf3VXQYBy0?></g></svg>