<svg xmlns="http://www.w3.org/2000/svg" xmlns:xlink="http://www.w3.org/1999/xlink" contentStyleType="text/css" data-diagram-type="CLASS" height="775px" preserveAspectRatio="none" style="width:1262px;height:775px;background:#FFFFFF;" version="1.1" viewBox="0 0 1262 775" width="1262px" zoomAndPan="magnify"><?plantuml 1.2026.6?><defs/><g><g class="title" data-source-line="1"><text fill="#000000" font-family="sans-serif" font-size="14" font-weight="700" lengthAdjust="spacing" textLength="295.6406" x="480.0609" y="23.5352">Storage Layer &#8212; Class Diagram (storage)</text></g><!--cluster storage--><g class="cluster" data-qualified-name="storage" data-source-line="6" id="ent0001"><path d="M8.5,43.4883 L64.0645,43.4883 A3.75,3.75 0 0 1 66.5645,45.9883 L73.5645,65.9766 L955.5,65.9766 A2.5,2.5 0 0 1 958,68.4766 L958,758.2883 A2.5,2.5 0 0 1 955.5,760.7883 L8.5,760.7883 A2.5,2.5 0 0 1 6,758.2883 L6,45.9883 A2.5,2.5 0 0 1 8.5,43.4883" fill="#FBF8F4" style="stroke:#000000;stroke-width:1.5;"/><line style="stroke:#000000;stroke-width:1.5;" x1="6" x2="73.5645" y1="65.9766" y2="65.9766"/><text fill="#000000" font-family="sans-serif" font-size="14" font-weight="700" lengthAdjust="spacing" textLength="54.5645" x="10" y="59.0234">storage</text></g><!--class Store--><g class="entity" data-qualified-name="storage.Store" data-source-line="7" id="ent0002"><rect fill="#F1F1F1" height="201.0156" rx="2.5" ry="2.5" style="stroke:#181818;stroke-width:0.5;" width="567.5498" x="59.23" y="228.0883"/><ellipse cx="321.3028" cy="248.3988" fill="#B4A7E5" rx="11" ry="11" style="stroke:#181818;stroke-width:1;"/><path d="M317.7305,244.664 L317.7305,242.5058 L325.1099,242.5058 L325.1099,244.664 L322.6446,244.664 L322.6446,252.7406 L325.1099,252.7406 L325.1099,254.8988 L317.7305,254.8988 L317.7305,252.7406 L320.1958,252.7406 L320.1958,244.664 Z " fill="#000000"/><text fill="#000000" font-family="sans-serif" font-size="12" font-style="italic" lengthAdjust="spacing" textLength="36.5566" x="340.9766" y="244.6898">&#171;trait&#187;</text><text fill="#000000" font-family="sans-serif" font-size="14" font-style="italic" lengthAdjust="spacing" textLength="34.9043" x="341.8028" y="260.7562">Store</text><line style="stroke:#181818;stroke-width:0.5;" x1="60.23" x2="625.7798" y1="268.7094" y2="268.7094"/><g data-visibility-modifier="PUBLIC_METHOD"><ellipse cx="70.23" cy="302.9418" fill="#84BE84" rx="3" ry="3" style="stroke:#038048;stroke-width:1;"/></g><text fill="#000000" font-family="sans-serif" font-size="14" lengthAdjust="spacing" textLength="527.6318" x="79.23" y="306.7328">save_block(&amp;self, root: Bytes32, block: SignedBlock): Result&lt;(), StorageError&gt;</text><g data-visibility-modifier="PUBLIC_METHOD"><ellipse cx="70.23" cy="319.4301" fill="#84BE84" rx="3" ry="3" style="stroke:#038048;stroke-width:1;"/></g><text fill="#000000" font-family="sans-serif" font-size="14" lengthAdjust="spacing" textLength="472.165" x="79.23" y="323.2211">save_state(&amp;self, root: Bytes32, state: State): Result&lt;(), StorageError&gt;</text><g data-visibility-modifier="PUBLIC_METHOD"><ellipse cx="70.23" cy="335.9184" fill="#84BE84" rx="3" ry="3" style="stroke:#038048;stroke-width:1;"/></g><text fill="#000000" font-family="sans-serif" font-size="14" lengthAdjust="spacing" textLength="393.8252" x="79.23" y="339.7094">save_head(&amp;self, info: HeadInfo): Result&lt;(), StorageError&gt;</text><g data-visibility-modifier="PUBLIC_METHOD"><ellipse cx="70.23" cy="352.4066" fill="#84BE84" rx="3" ry="3" style="stroke:#038048;stroke-width:1;"/></g><text fill="#000000" font-family="sans-serif" font-size="14" lengthAdjust="spacing" textLength="482.6104" x="79.23" y="356.1977">save_accepted(&amp;self, root, block, state, head): Result&lt;(), StorageError&gt;</text><g data-visibility-modifier="PUBLIC_METHOD"><ellipse cx="70.23" cy="368.8949" fill="#84BE84" rx="3" ry="3" style="stroke:#038048;stroke-width:1;"/></g><text fill="#000000" font-family="sans-serif" font-size="14" lengthAdjust="spacing" textLength="415.7891" x="79.23" y="372.6859">has_block(&amp;self, root: &amp;Bytes32): Result&lt;bool, StorageError&gt;</text><g data-visibility-modifier="PUBLIC_METHOD"><ellipse cx="70.23" cy="385.3832" fill="#84BE84" rx="3" ry="3" style="stroke:#038048;stroke-width:1;"/></g><text fill="#000000" font-family="sans-serif" font-size="14" lengthAdjust="spacing" textLength="541.5498" x="79.23" y="389.1742">load_block(&amp;self, root: &amp;Bytes32): Result&lt;Option&lt;SignedBlock&gt;, StorageError&gt;</text><g data-visibility-modifier="PUBLIC_METHOD"><ellipse cx="70.23" cy="401.8715" fill="#84BE84" rx="3" ry="3" style="stroke:#038048;stroke-width:1;"/></g><text fill="#000000" font-family="sans-serif" font-size="14" lengthAdjust="spacing" textLength="489.7539" x="79.23" y="405.6625">load_state(&amp;self, root: &amp;Bytes32): Result&lt;Option&lt;State&gt;, StorageError&gt;</text><g data-visibility-modifier="PUBLIC_METHOD"><ellipse cx="70.23" cy="418.3598" fill="#84BE84" rx="3" ry="3" style="stroke:#038048;stroke-width:1;"/></g><text fill="#000000" font-family="sans-serif" font-size="14" lengthAdjust="spacing" textLength="408.3105" x="79.23" y="422.1508">load_head(&amp;self): Result&lt;Option&lt;HeadInfo&gt;, StorageError&gt;</text><line style="stroke:#181818;stroke-width:1;stroke-dasharray:1,2;" x1="60.23" x2="301.2339" y1="284.9535" y2="284.9535"/><text fill="#000000" font-family="sans-serif" font-size="14" lengthAdjust="spacing" textLength="83.542" x="301.2339" y="289.7445">Send + Sync</text><line style="stroke:#181818;stroke-width:1;stroke-dasharray:1,2;" x1="384.7759" x2="625.7798" y1="284.9535" y2="284.9535"/></g><g class="entity" data-qualified-name="storage.GMN3" data-source-line="19" id="ent0004"><path d="M661.87,300.6283 L661.87,324.7883 L627.16,328.7883 L661.87,332.7883 L661.87,356.5599 A0,0 0 0 0 661.87,356.5599 L942.1273,356.5599 A0,0 0 0 0 942.1273,356.5599 L942.1273,310.6283 L932.1273,300.6283 L661.87,300.6283 A0,0 0 0 0 661.87,300.6283" fill="#FEFFDD" style="stroke:#181818;stroke-width:0.5;"/><path d="M932.1273,300.6283 L932.1273,310.6283 L942.1273,310.6283 L932.1273,300.6283" fill="#FEFFDD" style="stroke:#181818;stroke-width:0.5;"/><text fill="#000000" font-family="sans-serif" font-size="13" lengthAdjust="spacing" textLength="212.5576" x="667.87" y="318.1966">save_accepted default impl writes</text><text fill="#000000" font-family="sans-serif" font-size="13" lengthAdjust="spacing" textLength="226.2686" x="667.87" y="333.5072">block -&gt; state -&gt; head (head LAST)</text><text fill="#000000" font-family="sans-serif" font-size="13" lengthAdjust="spacing" textLength="259.2573" x="667.87" y="348.8177">so load_head never points at absent data</text></g><!--class MemoryStore--><g class="entity" data-qualified-name="storage.MemoryStore" data-source-line="24" id="ent0006"><rect fill="#F1F1F1" height="89.5977" rx="2.5" ry="2.5" style="stroke:#181818;stroke-width:0.5;" width="178.0654" x="137.97" y="78.4883"/><ellipse cx="178.4354" cy="98.7988" fill="#ADD1B2" rx="11" ry="11" style="stroke:#181818;stroke-width:1;"/><path d="M180.9086,104.9419 Q180.3275,105.2407 179.6884,105.3901 Q179.0492,105.5396 178.3436,105.5396 Q175.8368,105.5396 174.517,103.8877 Q173.1971,102.2358 173.1971,99.1147 Q173.1971,95.9854 174.517,94.3335 Q175.8368,92.6816 178.3436,92.6816 Q179.0492,92.6816 179.6967,92.8311 Q180.3441,92.9805 180.9086,93.2793 L180.9086,96.002 Q180.2777,95.4209 179.6842,95.1511 Q179.0907,94.8813 178.4598,94.8813 Q177.1151,94.8813 176.4303,95.948 Q175.7455,97.0146 175.7455,99.1147 Q175.7455,101.2065 176.4303,102.2732 Q177.1151,103.3398 178.4598,103.3398 Q179.0907,103.3398 179.6842,103.0701 Q180.2777,102.8003 180.9086,102.2192 Z " fill="#000000"/><text fill="#000000" font-family="sans-serif" font-size="12" font-style="italic" lengthAdjust="spacing" textLength="46.1719" x="219.7463" y="95.0898">&#171;struct&#187;</text><text fill="#000000" font-family="sans-serif" font-size="14" lengthAdjust="spacing" textLength="89.4756" x="198.0944" y="111.1563">MemoryStore</text><line style="stroke:#181818;stroke-width:0.5;" x1="138.97" x2="315.0354" y1="119.1094" y2="119.1094"/><g data-visibility-modifier="PRIVATE_FIELD"><rect fill="none" height="6" style="stroke:#C82930;stroke-width:1;" width="6" x="145.97" y="129.8535"/></g><text fill="#000000" font-family="sans-serif" font-size="14" lengthAdjust="spacing" textLength="152.0654" x="157.97" y="136.6445">inner: RwLock&lt;Inner&gt;</text><line style="stroke:#181818;stroke-width:0.5;" x1="138.97" x2="315.0354" y1="143.5977" y2="143.5977"/><g data-visibility-modifier="PUBLIC_METHOD"><ellipse cx="148.97" cy="157.3418" fill="#84BE84" rx="3" ry="3" style="stroke:#038048;stroke-width:1;"/></g><text fill="#000000" font-family="sans-serif" font-size="14" lengthAdjust="spacing" textLength="69.7744" x="157.97" y="161.1328">new(): Self</text></g><!--class HeadInfo--><g class="entity" data-qualified-name="storage.HeadInfo" data-source-line="28" id="ent0007"><rect fill="#F1F1F1" height="122.5742" rx="2.5" ry="2.5" style="stroke:#181818;stroke-width:0.5;" width="388.6396" x="256.68" y="489.1083"/><ellipse cx="416.2" cy="509.4188" fill="#ADD1B2" rx="11" ry="11" style="stroke:#181818;stroke-width:1;"/><path d="M418.6732,515.5619 Q418.0921,515.8607 417.4529,516.0101 Q416.8138,516.1596 416.1082,516.1596 Q413.6014,516.1596 412.2816,514.5077 Q410.9617,512.8558 410.9617,509.7347 Q410.9617,506.6054 412.2816,504.9535 Q413.6014,503.3016 416.1082,503.3016 Q416.8138,503.3016 417.4613,503.4511 Q418.1087,503.6005 418.6732,503.8993 L418.6732,506.622 Q418.0423,506.0409 417.4488,505.7711 Q416.8553,505.5013 416.2244,505.5013 Q414.8797,505.5013 414.1949,506.568 Q413.5101,507.6346 413.5101,509.7347 Q413.5101,511.8265 414.1949,512.8932 Q414.8797,513.9598 416.2244,513.9598 Q416.8553,513.9598 417.4488,513.6901 Q418.0423,513.4203 418.6732,512.8392 Z " fill="#000000"/><text fill="#000000" font-family="sans-serif" font-size="12" font-style="italic" lengthAdjust="spacing" textLength="46.1719" x="444.1639" y="505.7098">&#171;struct&#187;</text><text fill="#000000" font-family="sans-serif" font-size="14" lengthAdjust="spacing" textLength="61.0996" x="436.7" y="521.7762">HeadInfo</text><line style="stroke:#181818;stroke-width:0.5;" x1="257.68" x2="644.3196" y1="529.7294" y2="529.7294"/><g data-visibility-modifier="PUBLIC_FIELD"><ellipse cx="267.68" cy="543.4735" fill="none" rx="3" ry="3" style="stroke:#038048;stroke-width:1;"/></g><text fill="#000000" font-family="sans-serif" font-size="14" lengthAdjust="spacing" textLength="118.8018" x="276.68" y="547.2645">head: Checkpoint</text><g data-visibility-modifier="PUBLIC_FIELD"><ellipse cx="267.68" cy="559.9618" fill="none" rx="3" ry="3" style="stroke:#038048;stroke-width:1;"/></g><text fill="#000000" font-family="sans-serif" font-size="14" lengthAdjust="spacing" textLength="144.1152" x="276.68" y="563.7528">finalized: Checkpoint</text><line style="stroke:#181818;stroke-width:0.5;" x1="257.68" x2="644.3196" y1="570.7059" y2="570.7059"/><g data-visibility-modifier="PUBLIC_METHOD"><ellipse cx="267.68" cy="584.4501" fill="#84BE84" rx="3" ry="3" style="stroke:#038048;stroke-width:1;"/></g><text fill="#000000" font-family="sans-serif" font-size="14" lengthAdjust="spacing" textLength="341.5508" x="276.68" y="588.2411">new(head: Checkpoint, finalized: Checkpoint): Self</text><g data-visibility-modifier="PUBLIC_METHOD"><ellipse cx="267.68" cy="600.9384" fill="#84BE84" rx="3" ry="3" style="stroke:#038048;stroke-width:1;"/></g><text fill="#000000" font-family="sans-serif" font-size="14" lengthAdjust="spacing" textLength="362.6396" x="276.68" y="604.7294">try_new(head, finalized): Result&lt;Self, HeadInfoError&gt;</text></g><g class="entity" data-qualified-name="storage.GMN8" data-source-line="34" id="ent0009"><path d="M157.71,695.5783 L157.71,720.8888 A0,0 0 0 0 157.71,720.8888 L410.2915,720.8888 A0,0 0 0 0 410.2915,720.8888 L410.2915,705.5783 L400.2915,695.5783 L337.49,695.5783 L333.49,611.8683 L329.49,695.5783 L157.71,695.5783 A0,0 0 0 0 157.71,695.5783" fill="#FEFFDD" style="stroke:#181818;stroke-width:0.5;"/><path d="M400.2915,695.5783 L400.2915,705.5783 L410.2915,705.5783 L400.2915,695.5783" fill="#FEFFDD" style="stroke:#181818;stroke-width:0.5;"/><text fill="#000000" font-family="sans-serif" font-size="13" lengthAdjust="spacing" textLength="231.5815" x="163.71" y="713.1466">invariant: finalized.slot &lt;= head.slot</text></g><!--class HeadInfoError--><g class="entity" data-qualified-name="storage.HeadInfoError" data-source-line="35" id="ent0011"><rect fill="#F1F1F1" height="73.1094" rx="2.5" ry="2.5" style="stroke:#181818;stroke-width:0.5;" width="359.1836" x="445.41" y="671.6783"/><ellipse cx="573.5155" cy="691.9888" fill="#EB937F" rx="11" ry="11" style="stroke:#181818;stroke-width:1;"/><path d="M577.1297,698.4888 L569.41,698.4888 L569.41,686.0958 L577.1297,686.0958 L577.1297,688.254 L571.8587,688.254 L571.8587,690.9268 L576.6317,690.9268 L576.6317,693.085 L571.8587,693.085 L571.8587,696.3306 L577.1297,696.3306 Z " fill="#000000"/><text fill="#000000" font-family="sans-serif" font-size="12" font-style="italic" lengthAdjust="spacing" textLength="45.3574" x="618.5731" y="688.2798">&#171;enum&#187;</text><text fill="#000000" font-family="sans-serif" font-size="14" lengthAdjust="spacing" textLength="94.4727" x="594.0155" y="704.3462">HeadInfoError</text><line style="stroke:#181818;stroke-width:0.5;" x1="446.41" x2="803.5936" y1="712.2994" y2="712.2994"/><text fill="#000000" font-family="sans-serif" font-size="14" lengthAdjust="spacing" textLength="347.1836" x="451.41" y="729.8345">FinalizedAheadOfHead { head: u64, finalized: u64 }</text><line style="stroke:#181818;stroke-width:0.5;" x1="446.41" x2="803.5936" y1="736.7877" y2="736.7877"/></g><!--class StorageError--><g class="entity" data-qualified-name="storage.StorageError" data-source-line="38" id="ent0012"><rect fill="#F1F1F1" height="73.1094" rx="2.5" ry="2.5" style="stroke:#181818;stroke-width:0.5;" width="199.0654" x="22.47" y="513.8383"/><ellipse cx="75.3836" cy="534.1488" fill="#EB937F" rx="11" ry="11" style="stroke:#181818;stroke-width:1;"/><path d="M78.9978,540.6488 L71.2781,540.6488 L71.2781,528.2558 L78.9978,528.2558 L78.9978,530.414 L73.7268,530.414 L73.7268,533.0868 L78.4998,533.0868 L78.4998,535.245 L73.7268,535.245 L73.7268,538.4906 L78.9978,538.4906 Z " fill="#000000"/><text fill="#000000" font-family="sans-serif" font-size="12" font-style="italic" lengthAdjust="spacing" textLength="45.3574" x="115.574" y="530.4398">&#171;enum&#187;</text><text fill="#000000" font-family="sans-serif" font-size="14" lengthAdjust="spacing" textLength="84.7383" x="95.8836" y="546.5062">StorageError</text><line style="stroke:#181818;stroke-width:0.5;" x1="23.47" x2="220.5354" y1="554.4594" y2="554.4594"/><text fill="#000000" font-family="sans-serif" font-size="14" lengthAdjust="spacing" textLength="187.0654" x="28.47" y="571.9945">Backend { message: String }</text><line style="stroke:#181818;stroke-width:0.5;" x1="23.47" x2="220.5354" y1="578.9477" y2="578.9477"/></g><g class="entity" data-qualified-name="N1" data-source-line="50" id="ent0018"><path d="M974.24,102.9783 L974.24,143.5994 L1247.7625,143.5994 L1247.7625,112.9783 L1237.7625,102.9783 L974.24,102.9783" fill="#FEFFDD" style="stroke:#181818;stroke-width:0.5;"/><path d="M1237.7625,102.9783 L1237.7625,112.9783 L1247.7625,112.9783 L1237.7625,102.9783" fill="#FEFFDD" style="stroke:#181818;stroke-width:1;"/><text fill="#000000" font-family="sans-serif" font-size="13" lengthAdjust="spacing" textLength="252.4399" x="980.24" y="120.5466">Store consumes (from protocol / types):</text><text fill="#000000" font-family="sans-serif" font-size="13" lengthAdjust="spacing" textLength="252.5225" x="980.24" y="135.8572">Bytes32, SignedBlock, State, Checkpoint</text></g><!--link MemoryStore to Store--><g class="link" data-entity-1="ent0006" data-entity-2="ent0002" data-link-type="extension" data-source-line="43" id="lnk13"><path codeLine="43" d="M227,168.3483 C227,185.9283 227,188.8583 227,209.6783" fill="none" id="MemoryStore-to-Store" style="stroke:#181818;stroke-width:1;stroke-dasharray:7,7;"/><polygon fill="none" points="227,227.6783,233,209.6783,221,209.6783,227,227.6783" style="stroke:#181818;stroke-width:1;stroke-linejoin:miter;stroke-miterlimit:10;"/></g><!--link MemoryStore to StorageError--><g class="link" data-entity-1="ent0006" data-entity-2="ent0012" data-link-type="dependency" data-source-line="44" id="lnk14"><path codeLine="44" d="M137.74,123.7883 C89.96,123.7883 40.85,123.7883 40.85,123.7883 C40.85,123.7883 40.85,405.1683 40.85,508.6483" fill="none" id="MemoryStore-to-StorageError" style="stroke:#181818;stroke-width:1;stroke-dasharray:7,7;"/><polygon fill="#181818" points="40.85,513.6483,44.85,504.6483,40.85,508.6483,36.85,504.6483,40.85,513.6483" style="stroke:#181818;stroke-width:1;stroke-linejoin:miter;stroke-miterlimit:10;"/></g><!--link Store to HeadInfo--><g class="link" data-entity-1="ent0002" data-entity-2="ent0007" data-link-type="dependency" data-source-line="45" id="lnk15"><path codeLine="45" d="M441.73,429.4383 C441.73,449.6883 441.73,465.3983 441.73,483.8183" fill="none" id="Store-to-HeadInfo" style="stroke:#181818;stroke-width:1;stroke-dasharray:7,7;"/><polygon fill="#181818" points="441.73,488.8183,445.73,479.8183,441.73,483.8183,437.73,479.8183,441.73,488.8183" style="stroke:#181818;stroke-width:1;stroke-linejoin:miter;stroke-miterlimit:10;"/></g><!--link Store to StorageError--><g class="link" data-entity-1="ent0002" data-entity-2="ent0012" data-link-type="dependency" data-source-line="46" id="lnk16"><path codeLine="46" d="M140.38,429.4383 C140.38,459.4183 140.38,485.3883 140.38,508.4883" fill="none" id="Store-to-StorageError" style="stroke:#181818;stroke-width:1;stroke-dasharray:7,7;"/><polygon fill="#181818" points="140.38,513.4883,144.38,504.4883,140.38,508.4883,136.38,504.4883,140.38,513.4883" style="stroke:#181818;stroke-width:1;stroke-linejoin:miter;stroke-miterlimit:10;"/></g><!--link HeadInfo to HeadInfoError--><g class="link" data-entity-1="ent0007" data-entity-2="ent0011" data-link-type="dependency" data-source-line="47" id="lnk17"><path codeLine="47" d="M545.36,611.8683 C545.36,631.9483 545.36,648.6183 545.36,666.3183" fill="none" id="HeadInfo-to-HeadInfoError" style="stroke:#181818;stroke-width:1;stroke-dasharray:7,7;"/><polygon fill="#181818" points="545.36,671.3183,549.36,662.3183,545.36,666.3183,541.36,662.3183,545.36,671.3183" style="stroke:#181818;stroke-width:1;stroke-linejoin:miter;stroke-miterlimit:10;"/></g><!--link N1 to Store--><g class="link" data-entity-1="ent0018" data-entity-2="ent0002" data-link-type="association" data-source-line="53" id="lnk19"><path codeLine="53" d="M1111,143.8683 C1111,183.1083 1111,264.7883 1111,264.7883 C1111,264.7883 845.79,264.7883 627.07,264.7883" fill="none" id="N1-Store" style="stroke:#181818;stroke-width:1;stroke-dasharray:7,7;"/></g><?plantuml-src ZLLjRzem4FwUNt7gf0hKbAbRDKqHYrIweLNgMcdPz-f8Bc0HxCWs8DPLwe_OBzmlsTbv8HJO-W6mptUFdtlkpbXX2uB4AerJWblSa8O_px_Xka1ZuBF0gSO5z4pbq0y2CnUoH6SiX2IxAGcKjZFLEJ0ppDHQo2daM1WAWXBJkOC_gM5EuCruDFuuleJ70418Iph7jA91C1nQZSB6iJy560mW8Pd16IGRcVBMMyyChkXXKgXqtZirLEGXQALi1AED9VF-NGZ-B894J2Lb8xVfH_2TpBAmmru_R9B-ehNISGVJMBHq1DEVCQRxUHtQZ31hm8JCLGHVsNB3gzV5OvfIQIdh4gfpg-c4uExuBzeCpI6vJklSjl4JfOg328N2x7KGzwKLIWuxqiV74G_eVHpH-Vu3QwlsNcWZ-u7e9_v8PGcqcCuigBpgH8-xKmJ8A4V61B4e2rXhmIozbrS5pkEg8cxXc43FVzzU9J_w5PY2bYP8Ml6mbOhxtm1Qm8aXQI53Y-piEjvn2dYT-c7yHWkbDysC6AkNwNP8peMKf3ddzIqp6TwuNIsCf7MFrKXOb3hN2gyHP1_ipF6Bu7f6wTppgwova5Y8dtJWoDtnCYY4Wm5RAXndzUQXYUtuRukN-AvegEvNRAAiLGjNiZQTYETiXLgWv4vg8GUcK1Q6dtnX_CQBl5piWhCOpjXACMxYhrpSVUwSuH6gN9SVBdUIvBrdzjH0Tnlj9VA87qLNv4TOa37ivPuLxLxD2k8f2BeL7mn-nNLRxfhZdLk2hRd9ApZYsGhMTQwE0gyj6hYxO2vLVAgaMJ9LwEMQ5I-riYfL1Rm5zoTW-X5xjkzaP_B3whKCkptJDlVTXN_UVLf_0G00?></g></svg>